<svg width="167" height="163" viewBox="0 0 167 163" fill="none" xmlns="http://www.w3.org/2000/svg">
<path fill-rule="evenodd" clip-rule="evenodd" d="M3.09477 134.266C2.6931 132.437 2.25262 130.616 1.86799 128.784C1.68197 127.898 1.57564 126.995 1.44913 126.097C1.21321 124.423 0.980062 122.748 0.764571 121.072C0.688783 120.482 0.634459 119.886 0.627628 119.292C0.572323 114.48 0.440164 109.667 0.525048 104.857C0.56436 102.63 1.03092 100.41 1.31065 98.1872C1.6786 95.2637 2.45156 92.4328 3.3434 89.6318C4.6269 85.6006 5.92649 81.5745 7.22184 77.5471C7.91774 75.3834 8.66507 73.2345 9.29755 71.0529C9.58941 70.0462 9.7074 68.982 9.8202 67.9349C9.92741 66.9397 10.0421 65.9217 9.94564 64.9335C9.76526 63.0847 9.45496 61.2471 9.16017 59.4109C8.90854 57.8435 8.61438 56.2824 8.3185 54.7224C7.85895 52.2994 7.72324 49.8542 7.77261 47.3954C7.81156 45.456 7.75115 43.5063 7.9353 41.5799C8.20149 38.7952 8.6064 36.0051 9.71703 33.4064C10.5668 31.418 11.5086 29.4535 12.5914 27.5815C13.6612 25.7321 14.9313 23.9928 16.1679 22.2429C16.9222 21.1755 17.7214 20.1274 18.6032 19.1628C19.9618 17.6768 21.3664 16.2261 22.828 14.8394C25.1106 12.6739 27.6676 10.8484 30.3851 9.25651C32.9497 7.75416 35.664 6.56338 38.5143 5.69154C40.4654 5.09478 42.4332 4.55023 44.3749 3.9256C45.764 3.47871 47.0956 2.83979 48.5012 2.46368C50.2455 1.99695 52.0283 1.6385 53.8156 1.37082C55.6499 1.09608 57.5082 0.971391 59.3587 0.811059C60.7159 0.693464 62.0763 0.595941 63.4373 0.54062C65.25 0.466934 67.0646 0.422996 68.8788 0.402817C70.9333 0.379963 72.9891 0.363264 75.0429 0.408681C76.6099 0.443337 78.1765 0.556658 79.7402 0.675187C81.8425 0.834548 83.9436 1.01493 86.0418 1.21988C87.5956 1.37163 89.1507 1.53358 90.6931 1.76895C92.7931 2.08943 94.8872 2.45533 96.9736 2.85398C99.9168 3.4163 102.872 3.93861 105.783 4.64017C108.857 5.38135 111.932 6.18067 114.82 7.50734C117.415 8.70024 120.016 9.89404 122.541 11.2244C124.841 12.4364 127.039 13.8387 129.289 15.1441C130.153 15.6451 131.052 16.0876 131.909 16.5994C132.483 16.9425 133.062 17.307 133.553 17.7542C135.784 19.7859 137.994 21.8397 140.191 23.9074C141.25 24.9046 142.263 25.95 143.297 26.9736C144.458 28.1226 145.674 29.2229 146.766 30.4331C148.152 31.9694 149.423 33.6067 150.768 35.1793C152.578 37.2942 153.792 39.7609 155.105 42.1776C155.996 43.8182 156.55 45.5793 157.201 47.3064C157.646 48.4867 158.156 49.6756 158.359 50.9055C158.668 52.7829 159.792 54.274 160.466 55.9693C161.156 57.7064 161.707 59.4985 162.294 61.275C162.795 62.7947 163.316 64.3119 163.724 65.8571C164.1 67.2796 164.34 68.7372 164.634 70.1807C164.86 71.2913 165.096 72.4004 165.288 73.5168C165.425 74.3085 165.494 75.1116 165.598 75.909C165.779 77.3082 165.975 78.7057 166.143 80.1064C166.256 81.0416 166.357 81.9795 166.415 82.9191C166.489 84.1006 166.516 85.285 166.559 86.4682C166.607 87.7874 166.74 89.1107 166.679 90.4251C166.536 93.5227 161.385 105.975 159.305 109.031C158.099 110.802 156.937 112.604 155.7 114.354C154.079 116.646 152.421 118.913 150.746 121.168C148.74 123.867 146.725 126.56 144.664 129.217C143.691 130.473 142.623 131.66 141.558 132.843C140.667 133.831 139.774 134.829 138.783 135.714C136.847 137.442 134.852 139.105 132.864 140.776C130.245 142.977 127.371 144.839 124.401 146.514C121.977 147.882 119.412 149.032 116.829 150.086C112.934 151.674 108.976 153.112 105.031 154.578C102.016 155.699 99.0009 156.825 95.9484 157.837C93.3671 158.694 90.7518 159.467 88.1149 160.136C85.8824 160.703 83.6037 161.1 81.3338 161.509C79.7442 161.795 78.1388 162.007 76.5333 162.191C74.9686 162.371 73.3956 162.482 71.8249 162.606C70.9978 162.671 70.1682 162.724 69.3389 162.741C66.5859 162.798 63.8326 162.857 61.0792 162.872C59.7238 162.879 58.3646 162.834 57.013 162.735C55.1154 162.595 53.2149 162.443 51.3312 162.185C49.1823 161.891 47.0521 161.465 44.9107 161.115C43.1484 160.828 41.3736 160.61 39.6185 160.286C36.6055 159.731 33.5892 159.178 30.6014 158.507C28.2101 157.969 25.829 157.348 23.4967 156.6C19.7862 155.412 16.3094 153.71 13.1701 151.398C12.1176 150.623 11.0767 149.794 10.1913 148.844C8.08163 146.578 6.3853 144.022 5.15912 141.108C4.22071 138.857 3.60262 136.578 3.09477 134.266Z" fill="#FFB61D"/>
<path d="M91.9085 139.203C91.6332 140.632 91.5238 142.054 91.0414 143.339C90.4154 145.006 88.9665 146.014 87.2936 146.526C85.4558 147.089 83.5631 147.484 81.6821 147.898C81.0573 148.035 80.3949 148.009 79.7491 148.047C77.4236 148.186 75.0975 148.315 72.7724 148.459C71.5038 148.537 70.2374 148.654 68.9684 148.724C67.7515 148.791 66.5316 148.868 65.3145 148.849C65.0444 148.845 63.356 149.087 60.9937 149.251C60.5349 149.283 61.2489 151.736 60.4241 151.993C58.5865 152.567 54.0855 152.406 53.3003 151.189C52.515 149.973 52.7934 149.46 51.9228 149.109C47.6655 147.389 43.2802 146.987 41.9951 143.339C41.1397 140.911 42.7678 135.158 42.2944 130.742C41.0804 119.418 38.666 106.783 38.5872 106.718C38.5952 106.709 36.0162 106.927 35.8241 105.992C33.4411 94.3817 32.3544 79.0805 38.5872 75.2221C42.3404 72.8987 49.4895 70.5125 57.4154 68.5632C58.5674 68.2799 59.2474 66.6047 60.4241 66.3414C60.6873 66.2825 61.4926 64.7688 62.1833 63.2482C62.8788 61.717 63.4638 60.1788 64.8916 60.1116C67.8266 59.9733 72.8897 56.2521 76.3245 57.4133C79.4698 58.4766 81.0645 64.4619 82.2791 63.7371C83.5033 63.0066 84.5866 64.2749 86.2634 64.2749C98.2654 64.2749 107.304 86.8432 108.561 92.3963C106.461 95.3967 100.239 95.3967 94.3607 97.1746C93.3881 95.987 91.4336 92.4253 90.8022 90.4215C90.1525 88.3596 89.9285 93.0354 89.883 94.6923C89.8241 96.8354 90.0182 98.9862 90.1252 101.133C90.1957 102.547 90.3125 103.96 90.3944 105.374C90.5382 107.857 90.69 110.34 90.8022 112.825C90.8812 114.573 90.8471 116.328 90.9609 118.073C91.0775 119.862 91.3183 121.642 91.4939 123.428C91.5972 124.477 91.6915 125.528 91.7673 126.58C91.8312 127.467 91.9212 128.358 91.896 129.245C91.8471 130.962 91.6655 132.677 91.658 134.394C91.654 135.29 91.9574 136.184 92.02 137.087C92.067 137.764 91.9516 138.452 91.9085 139.203Z" fill="white"/>
<path d="M111.099 32.1165C110.325 31.3909 109.852 30.4844 109.244 29.6776C109.226 29.6538 109.209 29.6289 109.196 29.6023C108.72 28.5796 108.255 27.5572 108.028 26.4392C107.896 25.7865 107.902 25.1502 108.002 24.5027C108.052 24.1807 108.073 23.8536 108.137 23.5349C108.336 22.5567 108.818 21.7048 109.383 20.8947C109.553 20.651 109.749 20.4242 109.914 20.1775C110.535 19.2536 111.41 18.6588 112.429 18.2444C113.092 17.9747 113.773 17.7473 114.422 17.4423C114.502 17.4048 114.59 17.3712 114.677 17.3631C115.751 17.2625 116.824 17.1581 117.899 17.0732C118.947 16.9903 119.997 17.0133 121.046 17.0802C121.615 17.1164 122.186 17.132 122.752 17.1889C123.98 17.3124 125.167 17.5868 126.307 18.0803C127.104 18.425 127.907 18.7473 128.67 19.1643C129.548 19.6435 130.292 20.2797 130.997 20.9709C131.319 21.2873 131.566 21.6581 131.787 22.0479C131.919 22.2806 132.035 22.5243 132.189 22.7416C133.086 24.0054 133.28 25.4126 133.062 26.9005C133.011 27.2514 132.897 27.5936 132.927 27.9548C132.75 28.6757 132.578 29.3993 132.144 30.0235C131.803 30.513 131.434 30.9796 130.975 31.3697C130.816 31.5049 130.656 31.641 130.512 31.7917C130.2 32.1185 129.82 32.3526 129.46 32.6178C128.683 33.1891 127.819 33.5924 126.963 34.0166C126.857 34.0693 126.744 34.1113 126.63 34.1454C126.172 34.2835 125.713 34.4168 125.253 34.5509C124.736 34.7019 124.221 34.8621 123.7 34.9993C122.884 35.2144 122.037 35.2174 121.206 35.3267C121.089 35.3421 120.965 35.3337 120.847 35.3138C119.96 35.1648 119.062 35.1194 118.17 35.0094C118.022 34.9912 117.877 34.9531 117.73 34.9228C116.732 34.7173 115.728 34.5347 114.76 34.2079C114.518 34.1261 114.299 34.1446 114.073 34.2759C113.815 34.4258 113.541 34.5484 113.271 34.6781C112.701 34.952 112.205 35.3373 111.692 35.6966C111.546 35.7985 111.393 35.8912 111.238 35.9786C111.118 36.0461 110.912 35.9447 110.881 35.8038C110.842 35.6311 110.804 35.46 110.855 35.2782C111.144 34.2647 111.134 33.228 111.099 32.1165Z" fill="white"/>
<path fill-rule="evenodd" clip-rule="evenodd" d="M60.8143 65.4988C60.8143 65.4988 62.1208 63.7281 62.5719 62.8052C63.0229 61.8822 63.447 60.1116 63.447 60.1116C63.447 60.1116 72.7698 73.1776 71.2947 73.3477C68.3459 73.6877 60.8143 65.4988 60.8143 65.4988Z" fill="#E7EAEE"/>
<path d="M101.016 107.325C99.5405 105.002 96.4042 99.5877 94.9599 97.3005C94.9265 97.2477 101.652 91.1261 107.639 92.6758C108.233 92.8297 109.376 95.1233 109.937 95.3967C110.98 95.9058 110.794 93.4181 112.79 89.9131C115.934 84.3941 121.726 76.1519 123.999 71.2314C124.923 69.2317 124.27 67.673 124.172 67.2363C123.812 65.621 122.965 64.3033 121.742 63.1965C120.949 62.4786 120.918 60.8765 121.821 60.4351C122.487 60.1092 123.239 60.0059 123.999 60.3819C124.867 60.8112 125.732 61.2173 126.329 62.0176C126.41 62.1257 126.551 62.1892 126.665 62.2734C126.719 62.137 126.779 62.0026 126.827 61.864C127.309 60.4739 127.751 59.0693 128.279 57.6966C128.745 56.4835 129.261 55.2841 129.847 54.1244C130.041 53.7422 130.528 53.2499 130.87 53.2576C131.374 53.269 131.703 53.8076 131.778 54.3723C131.819 54.6717 131.861 54.9712 131.918 55.2678C131.944 55.3981 132.007 55.5211 132.053 55.6474C132.145 55.5392 132.229 55.4246 132.329 55.324C132.628 55.0206 132.894 54.6627 133.245 54.4373C133.728 54.1275 134.278 54.4718 134.239 55.0668C134.186 55.8888 134.121 56.7244 133.92 57.5195C133.56 58.9493 133.094 60.3528 132.678 61.7689C132.653 61.8532 132.677 61.9515 132.678 62.0433C132.772 61.9936 132.912 61.9674 132.952 61.8903C133.214 61.387 133.494 60.8873 133.693 60.3585C134.014 59.504 134.5 58.7722 135.203 58.1942C135.366 58.0598 135.632 58.0466 135.85 57.9776C135.913 58.1785 136.071 58.4047 136.024 58.5762C135.686 59.8167 135.393 61.0799 134.922 62.2725C133.736 65.2769 132.468 68.2502 131.222 71.2314C130.502 72.9543 129.665 74.6362 129.054 76.3954C128.431 78.189 128.068 80.0696 127.502 81.885C126.903 83.8098 126.211 85.7073 125.537 87.6086C124.511 90.4983 123.589 93.4321 122.39 96.2501C121.453 98.4524 120.233 100.548 119.006 102.614C118.086 104.162 117.034 105.65 115.889 107.043C115.217 107.861 114.262 108.458 113.411 109.124C112.048 110.191 110.5 110.872 108.805 111.257C106.855 111.7 105.124 111.355 103.668 109.946C102.787 109.093 101.923 108.222 101.016 107.325Z" fill="white"/>
<path fill-rule="evenodd" clip-rule="evenodd" d="M55.1353 50.0544C54.9474 50.4305 54.9596 50.7596 55.2045 51.0791C55.3142 51.2222 55.4328 51.3587 55.5515 51.4952C55.6789 51.6417 55.8063 51.7883 55.9226 51.943C56.0983 52.1768 56.2797 52.4075 56.4613 52.6383C56.9379 53.2444 57.4149 53.851 57.7891 54.514C58.3178 55.4508 58.9301 56.1416 60.0412 56.34C60.4921 56.4206 60.6624 56.7773 60.7164 57.247C60.7915 57.9007 60.9145 58.5633 61.1338 59.1815C61.2907 59.6239 61.7055 59.9171 62.234 59.8605C62.4816 59.834 62.7284 59.7926 62.9749 59.7512C63.3544 59.6875 63.7335 59.6239 64.1144 59.6148C64.4793 59.6061 64.9527 59.7005 65.1981 59.9335C65.8537 60.556 66.4574 61.2329 67.0604 61.9091C67.1849 62.0488 67.3096 62.1887 67.4346 62.3278C67.4808 62.3792 67.5261 62.431 67.571 62.4824C68.0115 62.986 68.4208 63.4541 69.2959 63.1536C70.3349 62.7968 71.4276 62.637 72.5549 62.7096C73.5886 62.7762 73.9924 62.4296 74.3105 61.4276C74.3431 61.3248 74.3708 61.2198 74.3984 61.1149C74.4517 60.9122 74.505 60.7096 74.5942 60.5239C74.6281 60.4534 74.6615 60.382 74.6951 60.3103C74.8788 59.9179 75.0666 59.5167 75.3501 59.2085C75.8622 58.6517 76.526 58.7372 77.2064 58.9761C77.9722 59.2449 78.3694 59.08 78.6998 58.3909C78.8396 58.0992 78.8859 58.103 79.1416 58.2896C79.3485 58.4406 79.6744 58.5104 79.9382 58.4911C80.5907 58.4433 81.2442 58.3529 81.8839 58.2176C82.115 58.1687 82.4213 57.9876 82.5003 57.791C82.5969 57.5504 82.6942 57.3099 82.7915 57.0694C83.3402 55.7132 83.8896 54.355 84.3291 52.9637C85.0441 50.7006 85.5765 48.3835 85.5752 45.993C85.5744 44.3916 85.5269 42.79 85.4794 41.1887C85.4674 40.7831 85.4553 40.3769 85.4441 39.9713C85.4387 39.7786 85.4341 39.5857 85.4295 39.3928C85.4083 38.5145 85.3872 37.6351 85.2981 36.7632C85.1372 35.1898 84.9301 33.6209 84.7231 32.0523C84.6883 31.7887 84.6535 31.5251 84.6189 31.2615C84.5176 30.4889 84.3996 29.7184 84.2815 28.9479L84.2814 28.9468C84.2423 28.6922 84.2033 28.4376 84.1649 28.1829L84.0817 27.6306C83.8972 26.4056 83.7128 25.1805 83.5178 23.9571C83.5102 23.9093 83.5032 23.8598 83.4962 23.8097C83.4606 23.5551 83.4224 23.2822 83.2773 23.1101C83.1476 22.9563 83.0182 22.8021 82.8888 22.6478C82.0606 21.6603 81.23 20.6701 80.3062 19.7766C79.5814 19.0756 78.7079 18.5127 77.85 17.9599L77.7385 17.888C75.3944 16.3762 72.7688 15.6956 70.009 15.516C69.2527 15.4668 68.4926 15.4782 67.7323 15.4895C67.2771 15.4963 66.8218 15.5031 66.3672 15.4969C65.9522 15.4913 65.7275 15.6221 65.4582 15.9805C65.1008 16.456 64.5667 16.8386 64.0395 17.1443C62.7226 17.9081 61.5638 18.8051 60.6738 20.0662C59.5047 21.7226 58.4336 23.4269 57.7335 25.3269C57.1936 26.7923 56.82 28.2974 56.6912 29.8738C56.6496 30.3828 56.546 30.8851 56.4422 31.3877C56.2416 32.3602 56.0407 33.3337 56.2886 34.3591C56.3955 34.8009 56.4576 35.2541 56.5197 35.707C56.5926 36.2379 56.6653 36.7683 56.8099 37.2795L56.8899 37.5614C57.3512 39.1851 57.8039 40.7784 57.7139 42.5257C57.6171 44.4039 56.9438 46.0448 56.1639 47.8226C56.0643 48.0408 55.9662 48.2598 55.868 48.4787C55.6311 49.0075 55.3941 49.5363 55.1353 50.0544ZM85.9966 37.6878C85.9975 37.7039 85.9956 37.7214 85.9938 37.7387C85.9905 37.7697 85.9872 37.8002 86.0002 37.8215C86.0402 37.8874 86.0883 37.9485 86.1363 38.0096C86.1552 38.0337 86.1742 38.0578 86.1926 38.0822C86.2131 38.0642 86.2344 38.0469 86.2557 38.0296C86.3018 37.9922 86.3478 37.9548 86.385 37.9101C86.4906 37.7832 86.597 37.6569 86.7034 37.5306C87.0063 37.1712 87.3091 36.8117 87.5932 36.4383C88.2197 35.6146 88.8324 34.7803 89.4324 33.9376C89.7862 33.4407 89.4343 33.2348 89.0147 33.2053C88.1411 33.144 87.4013 33.5095 86.6507 33.9366C86.1143 34.2418 85.7192 34.4974 85.8594 35.3029L85.8798 35.6559L85.8799 35.6569C85.9189 36.3339 85.9579 37.0108 85.9966 37.6878ZM56.078 38.0701C56.0591 38.1006 56.0402 38.1312 56.0264 38.1607C55.6528 37.9844 55.3063 37.7738 54.9633 37.5653C54.6631 37.3828 54.3655 37.2019 54.0546 37.0471C53.352 36.697 53.1048 36.0612 52.8799 35.4294C52.621 34.7022 53.1972 34.0076 53.9784 34.0128C54.0132 34.0131 54.0481 34.0132 54.0831 34.0133C54.3615 34.0143 54.6442 34.0153 54.912 34.0734C55.4381 34.1876 55.4903 34.5911 55.5406 34.9799C55.5562 35.1006 55.5716 35.2199 55.6009 35.3286C55.7888 36.0245 55.926 36.7341 56.0631 37.443C56.0915 37.5896 56.1198 37.7363 56.1486 37.8828C56.1596 37.9386 56.1188 38.0043 56.078 38.0701Z" fill="white"/>
<path d="M82.9747 46.14C82.9747 47.1452 82.1515 47.96 81.136 47.96C80.1205 47.96 79.2973 47.1452 79.2973 46.14C79.2973 45.1348 80.1205 44.32 81.136 44.32C82.1515 44.32 82.9747 45.1348 82.9747 46.14Z" fill="#FFB61D"/>
<path d="M63.8 44.58C63.8 45.5852 62.9768 46.4 61.9613 46.4C60.9459 46.4 60.1227 45.5852 60.1227 44.58C60.1227 43.5748 60.9459 42.76 61.9613 42.76C62.9768 42.76 63.8 43.5748 63.8 44.58Z" fill="#FFB61D"/>
<path fill-rule="evenodd" clip-rule="evenodd" d="M70.6537 22.6501C71.7014 22.8729 72.8376 23.1433 73.8964 22.5741C74.255 22.3814 74.5921 22.1441 74.9188 21.9006C75.1181 21.7521 75.2975 21.5678 75.4542 21.3745C76.6978 19.8398 77.6156 20.069 79.3281 21.071C81.5191 22.3529 84.0561 26.087 77.2633 26.087C73.8419 26.087 60.1761 24.2428 62.0842 22.4096C62.8641 21.6604 63.8857 21.1589 64.7908 20.5356C65.1317 20.3009 65.4788 20.0658 65.7796 19.7854C66.2155 19.3791 66.4799 19.5936 66.752 19.9671C67.1096 20.4581 67.483 20.9379 67.884 21.4565C68.8271 21.891 69.7019 22.4478 70.6537 22.6501Z" fill="#E7EAEE"/>
<path d="M78.7449 48.469C79.0751 48.5465 79.371 48.6579 79.6669 48.7694C79.6221 48.8436 79.5818 48.9223 79.5413 49.0008C79.454 49.1703 79.3667 49.3397 79.2365 49.4659C77.6412 51.0122 75.6981 51.9156 73.5362 52.3644C73.2742 52.4187 72.9824 52.3475 72.6971 52.2779C72.6108 52.2568 72.525 52.2359 72.4409 52.2186C72.3628 52.2026 72.2452 51.9923 72.2594 51.9773C72.29 51.9451 72.3211 51.9096 72.3528 51.8734C72.4687 51.741 72.5924 51.5997 72.7308 51.5792C74.8978 51.2581 76.7149 50.2728 78.2852 48.7931C78.3594 48.7232 78.4468 48.667 78.5433 48.605C78.6069 48.564 78.6745 48.5206 78.7449 48.469Z" fill="#FFB61D"/>
<path d="M75.9944 33.7728C75.505 34.3112 75.5583 35.4448 76.1328 36.0173C77.2974 36.0514 77.9961 34.8955 77.4538 33.9228C77.1527 33.3828 76.4177 33.3073 75.9944 33.7728Z" fill="#FFB61D"/>
<path d="M65.65 33.0575C65.8951 33.7743 65.7348 34.5166 65.1882 34.9166C65.0293 35.0328 64.6267 35.0691 64.5145 34.9607C63.8827 34.3503 63.7767 33.3171 64.6809 32.7807C65.0928 32.5365 65.3865 32.6497 65.65 33.0575Z" fill="#FFB61D"/>
<path fill-rule="evenodd" clip-rule="evenodd" d="M80.5397 32.3595C79.3758 31.4594 78.011 31.2751 76.5109 31.4245C76.3716 31.4492 76.2532 31.4767 76.1437 31.5022C76.0521 31.5235 75.9661 31.5435 75.8799 31.559C74.4623 31.8141 73.2471 32.3869 72.4121 33.6184C72.3245 33.7476 71.9971 33.8131 71.8164 33.7683C71.0198 33.5706 70.2803 33.554 69.6616 34.1915C69.5849 34.2705 69.5137 34.3546 69.4425 34.4387C69.4098 34.4775 69.377 34.5162 69.3437 34.5544C69.3311 34.498 69.3137 34.4412 69.2964 34.3844C69.259 34.2619 69.2216 34.1394 69.232 34.0209C69.3557 32.612 68.674 31.7348 67.4325 31.1424C66.2706 30.588 65.0502 30.4698 63.7951 30.4713C61.8833 30.4736 60.2551 31.699 59.5831 33.4911C59.1727 34.5854 59.2839 35.6495 59.6379 36.6604C59.9833 37.6471 60.376 38.7018 61.4027 39.2489C61.5328 39.3182 61.6636 39.3908 61.7953 39.464C62.3983 39.7988 63.0192 40.1436 63.661 40.2196C63.7186 40.2264 63.7765 40.2334 63.8346 40.2405C64.7869 40.356 65.8082 40.4799 66.7077 39.8437C68.0674 38.8821 68.809 37.5229 69.2026 35.9805C69.3884 35.2526 69.7636 34.8147 70.4192 34.5237C71.4059 34.0859 72.0249 34.471 72.1279 35.4824C72.2484 36.6654 72.5114 37.8292 73.2118 38.8426C74.0324 40.0299 75.1467 40.752 76.5224 41.2541C78.1804 41.8593 79.3717 41.4905 80.5738 40.5283C82.8078 38.7402 83.0302 34.2855 80.5397 32.3595ZM75.3511 32.4131C76.2882 32.1365 77.3055 32.047 78.2981 32.309C79.4252 32.393 80.1655 33.022 80.7117 33.7861C81.2599 34.553 81.7571 35.4223 81.7221 36.4164C81.6845 37.4826 81.2794 38.4427 80.6025 39.2815C80.0217 40.0013 79.2652 40.4613 78.3677 40.6586C78.1795 40.7 77.9679 40.646 77.7593 40.5929C77.6846 40.5739 77.6104 40.555 77.5378 40.5406C75.149 40.0665 73.55 38.7718 73.0742 36.3165C73.0439 36.1599 73.0054 36.0046 72.967 35.8498C72.8126 35.2272 72.66 34.6115 73.0458 33.9464C73.5738 33.0362 74.4692 32.6735 75.3511 32.4131ZM68.3976 34.0168C68.5465 35.2679 68.1375 36.3928 67.5747 37.4802C67.4615 37.629 67.3643 37.7707 67.2725 37.9045C67.1381 38.1004 67.0152 38.2794 66.8708 38.4395C66.0759 39.321 65.1256 39.598 63.9198 39.3461C63.0747 39.1696 62.3228 38.9531 61.6201 38.4209C60.7735 37.7798 60.4105 36.895 60.1676 35.964C59.7806 34.4807 60.3078 33.2356 61.382 32.1705C62.2493 31.3105 63.3462 31.2036 64.4421 31.3126C65.4972 31.4175 66.5273 31.6767 67.4582 32.2946C68.1255 32.7375 68.3153 33.3246 68.3976 34.0168Z" fill="#FFB61D"/>
<path d="M68.1246 28.8389C68.8241 28.8779 69.4048 28.8048 69.9343 28.3816C70.0313 28.304 70.2348 28.3571 70.4383 28.4101C70.5317 28.4345 70.6251 28.4588 70.7082 28.4705C70.6691 28.5152 70.6312 28.5613 70.5934 28.6075C70.5116 28.7073 70.4296 28.8074 70.3343 28.8926C69.4483 29.6853 68.4733 29.6299 67.3948 29.2996C66.4522 29.0109 65.4622 28.7882 64.4811 28.7279C63.0078 28.6374 61.7478 29.2047 60.7625 30.3293C60.6774 30.4264 60.5457 30.4834 60.414 30.5405C60.353 30.567 60.292 30.5934 60.2356 30.6238C60.2536 30.5451 60.2637 30.4598 60.2738 30.3745C60.2955 30.1908 60.3173 30.0071 60.4179 29.8893C62.062 27.9653 64.2029 27.8857 66.4695 28.3656C66.787 28.4328 67.0981 28.5298 67.4224 28.6308C67.6479 28.7011 67.8798 28.7733 68.1246 28.8389Z" fill="#FFB61D"/>
<path d="M78.9756 29.3257C77.6363 29.1225 76.3034 29.1454 75.1017 30.0297C74.9262 30.158 74.7532 30.2809 74.583 30.4017C74.2421 30.6436 73.9128 30.8774 73.5996 31.1305C73.5289 31.1876 73.518 31.3172 73.5072 31.4468C73.5022 31.5064 73.4971 31.5661 73.4863 31.6187C73.5333 31.6127 73.5827 31.6107 73.632 31.6087C73.7412 31.6043 73.8504 31.5998 73.934 31.5518C74.1738 31.4143 74.3915 31.236 74.6065 31.06L74.6167 31.0517C75.9501 29.9601 77.4317 29.5194 79.1393 30.0085C79.7328 30.1785 80.3315 30.335 80.9359 30.4597C81.0339 30.4799 81.1471 30.4283 81.2602 30.3767C81.3123 30.353 81.3643 30.3292 81.4149 30.3125C81.3765 30.272 81.3404 30.225 81.3043 30.178C81.2258 30.0758 81.1474 29.9737 81.0455 29.939C80.9159 29.8948 80.7862 29.8491 80.6564 29.8033C80.1035 29.6085 79.5471 29.4124 78.9756 29.3257Z" fill="#FFB61D"/>
<path d="M71.7334 43.57C70.9275 43.6267 70.1552 43.6732 69.385 43.6513C69.2829 43.6485 69.1845 43.5205 69.0861 43.3925C69.0407 43.3335 68.9952 43.2744 68.9495 43.2276C69.0087 43.2029 69.0677 43.1723 69.1266 43.1416C69.2551 43.0749 69.3836 43.0082 69.5149 43.0023C70.2242 42.9703 70.9357 42.9727 71.6462 42.9805C71.8158 42.9824 71.9851 43.0093 72.1545 43.0363C72.2318 43.0486 72.3091 43.0609 72.3865 43.0708C72.1802 43.2258 71.974 43.3809 71.7334 43.57Z" fill="#FFB61D"/>
<path fill-rule="evenodd" clip-rule="evenodd" d="M67.884 21.4565C68.1529 21.5803 68.4162 21.7141 68.6774 21.8469C69.3322 22.1796 69.9733 22.5055 70.6537 22.6501L70.7598 22.6727C71.7778 22.8901 72.8732 23.1241 73.8964 22.5741C74.255 22.3814 74.5921 22.1441 74.9188 21.9006C75.1181 21.7521 75.2975 21.5678 75.4542 21.3745C76.6978 19.8398 77.6156 20.069 79.3281 21.071C81.5191 22.3529 82.3171 24.5409 83.0885 26.7178C83.4739 27.8053 83.7162 28.9458 83.9572 30.0802C83.9896 30.2326 84.022 30.3849 84.0546 30.5369C84.2139 31.2781 84.2811 32.0424 84.3403 32.8001C84.4105 33.6989 84.4436 34.6009 84.4766 35.5022L84.4826 35.6674C84.5008 36.1609 84.5104 36.655 84.52 37.1491C84.5386 38.1111 84.5573 39.0733 84.6392 40.0299C84.7645 41.4934 84.5284 42.904 84.1984 44.3032C83.8185 45.9146 82.5811 46.6915 81.0813 47.0535C80.4496 47.206 79.7902 47.25 79.1322 47.294C78.9051 47.3092 78.6775 47.3244 78.452 47.344C76.1299 47.5459 73.8223 47.8303 71.5788 48.4887C70.883 48.6929 70.2182 48.5989 69.6348 48.215C68.457 47.44 67.1266 47.1567 65.7699 46.9395C63.2398 46.5345 60.8378 45.8513 58.9836 43.9464C58.4942 43.4436 58.1802 42.9053 58.2117 42.148C58.2676 40.8049 58.0718 39.483 57.8761 38.1626C57.7644 37.4084 57.6527 36.6547 57.5881 35.8978C57.3926 33.6092 57.4783 31.3101 58.1851 29.0308C58.9735 26.4886 60.1761 24.2428 62.0842 22.4096C62.6083 21.9061 63.2416 21.5145 63.8754 21.1226C64.1846 20.9313 64.494 20.74 64.7908 20.5356L64.8408 20.5012C65.1655 20.2778 65.4935 20.0522 65.7796 19.7854C66.2155 19.3791 66.4799 19.5936 66.752 19.9671C67.0767 20.4129 67.4144 20.8494 67.774 21.3141L67.7746 21.3149L67.884 21.4565ZM81.9413 25.5729C81.9049 25.4871 81.8683 25.4014 81.8317 25.3157C81.7529 25.1312 81.674 24.9468 81.5981 24.7611C80.8744 22.9923 79.5956 21.7511 77.8446 21.0046C77.5727 20.8887 77.0993 20.956 76.8541 21.1276C76.6499 21.2704 76.5065 21.4948 76.3619 21.7211C76.2801 21.8491 76.198 21.9777 76.1042 22.0924C75.2665 23.1178 74.2842 23.9195 72.8506 23.7931C71.9635 23.7149 71.0671 23.6022 70.2082 23.3794C68.8619 23.0301 67.636 22.4033 66.7651 21.2858L66.6802 21.1765C66.108 20.4392 66.1009 20.4301 65.321 20.9482C65.0639 21.119 64.7996 21.2827 64.5351 21.4464C63.8759 21.8545 63.2158 22.2632 62.6652 22.7842C60.8036 24.5456 59.581 26.663 58.8474 29.1694C58.1863 31.4284 58.1463 33.6681 58.2548 35.9331C58.3428 37.7724 58.6386 39.607 58.9338 41.4292L58.9532 41.5498C59.0825 42.3569 59.2154 43.187 59.9271 43.8118C61.2752 44.9952 62.8726 45.6319 64.5901 45.9707C64.8229 46.0166 65.056 46.0609 65.2888 46.1051C66.9267 46.4163 68.5549 46.7256 70.0301 47.5978C70.3743 47.8013 70.8951 47.8461 71.3059 47.7825C72.2298 47.6394 73.1501 47.4727 74.0703 47.306L74.0715 47.3058L74.0726 47.3056C75.0262 47.1328 75.98 46.96 76.9378 46.8135C77.4809 46.7304 78.0312 46.6856 78.581 46.6409C79.3317 46.5798 80.0815 46.5187 80.8108 46.3604C81.8153 46.1424 82.9447 45.8053 83.2703 44.6418C83.5868 43.511 83.8598 42.3352 83.9032 41.1702C83.9631 39.5596 83.8945 37.9431 83.826 36.3288C83.8135 36.0352 83.801 35.7416 83.7894 35.4482C83.7656 34.8503 83.7147 34.2535 83.6639 33.6566C83.6079 32.9996 83.552 32.3426 83.5321 31.6844C83.4701 29.6337 82.7623 27.7535 82.0267 25.7999L81.9413 25.5729Z" fill="#FFB61D"/>
<path fill-rule="evenodd" clip-rule="evenodd" d="M107.266 92.8541C106.91 93.0657 106.556 93.2769 106.174 93.42C105.252 93.7663 104.317 94.0794 103.372 94.3958C102.774 94.5962 102.172 94.7978 101.566 95.0099C101.384 95.0803 101.224 95.1265 101.068 95.1713C101.032 95.1818 100.996 95.1922 100.96 95.2029C100.419 95.3621 99.8793 95.5229 99.3394 95.6837C97.9843 96.0873 96.6284 96.4911 95.2661 96.8693C94.7146 97.0224 94.2585 96.8508 93.9588 96.2606C93.214 94.7938 92.417 93.3525 91.6151 91.9152C91.5595 91.8154 91.422 91.7604 91.2846 91.7054C91.2208 91.6798 91.157 91.6543 91.1014 91.6243C91.0806 91.6938 91.0474 91.7697 91.0142 91.8455C90.9427 92.0088 90.8713 92.1721 90.9236 92.2717C91.8177 93.972 92.7355 95.661 93.6959 97.3253C93.8147 97.5313 94.2446 97.7201 94.4819 97.6738C95.7426 97.4277 96.9938 97.1268 98.2366 96.8008C98.7169 96.6747 99.1922 96.5274 99.6674 96.3801C100.352 96.1678 101.036 95.9557 101.735 95.8076C104.133 95.2993 106.428 94.5653 108.486 93.2079C109.226 92.7205 109.428 91.9749 109.069 91.2026C108.943 90.9329 108.816 90.664 108.688 90.3949C108.247 89.4674 107.805 88.5388 107.459 87.5771C106.4 84.6291 105.208 81.7382 103.805 78.9377C102.916 77.1655 101.973 75.4164 100.971 73.705C99.6315 71.4185 98.2289 69.134 96.0753 67.507C94.5797 66.3771 92.9781 65.313 91.2751 64.5406C88.7861 63.4118 86.0525 63.1645 83.3325 62.9768C82.7767 62.9385 82.1926 62.7321 81.7016 62.461C80.7173 61.9174 80.3174 60.9545 79.9147 59.9848C79.8707 59.8787 79.8265 59.7725 79.7816 59.6668C79.583 59.199 79.9027 59.1115 80.104 59.0702C80.6222 58.9641 81.1696 58.88 81.6906 58.9321C82.5023 59.0133 82.9488 58.6392 83.2467 57.973C83.9775 56.3389 84.6173 54.6771 85.1004 52.9477C85.7692 50.5534 86.3404 48.1593 86.2795 45.6501C86.2531 44.5625 86.2592 43.4741 86.2653 42.3857C86.2685 41.8182 86.2717 41.2508 86.2703 40.6834C86.2699 40.5285 86.2509 40.3666 86.232 40.2052C86.1939 39.8805 86.1561 39.558 86.2702 39.2993C86.5509 38.6632 87.012 38.0924 87.4593 37.5438C87.8131 37.1098 88.1828 36.6883 88.5525 36.2669C89.0005 35.7563 89.4484 35.2457 89.8679 34.7131C90.2057 34.2841 90.4576 33.7377 90.1174 33.1681C89.7851 32.6117 89.2521 32.3859 88.633 32.5241C88.5269 32.5478 88.4201 32.5702 88.313 32.5926C87.5347 32.7556 86.7476 32.9204 86.1982 33.6034C85.9342 33.9315 85.7814 33.9327 85.7131 33.4567C85.6623 33.1033 85.59 32.7528 85.5177 32.4023C85.4429 32.0394 85.368 31.6764 85.3171 31.3102C85.2543 30.859 85.2121 30.405 85.1699 29.9509L85.1697 29.9499C85.1289 29.5109 85.0881 29.0718 85.0287 28.6353C84.9452 28.0223 84.851 27.4105 84.7567 26.7988C84.6141 25.8726 84.4713 24.9457 84.366 24.0153C84.3035 23.4628 84.1486 23.0203 83.7741 22.6176C83.58 22.4089 83.3829 22.2022 83.1858 21.9955L83.185 21.9946C82.5799 21.3601 81.974 20.7248 81.4521 20.0286C80.0118 18.1077 77.9665 17.1003 75.844 16.1866C74.4763 15.5979 73.0621 15.1767 71.5582 15.0918C70.8964 15.0544 70.2351 15.0077 69.5738 14.961C68.8985 14.9134 68.2232 14.8657 67.5474 14.8279C66.9914 14.7968 66.426 14.7747 65.877 14.8431C65.604 14.8772 65.3309 15.0932 65.1056 15.2827C64.8833 15.4697 64.6717 15.6697 64.4601 15.8697C64.1876 16.1273 63.9152 16.3848 63.6202 16.614C63.3092 16.8557 62.9798 17.0776 62.6508 17.2993C62.1107 17.6631 61.5717 18.0262 61.1171 18.4749C60.5946 18.9906 60.1772 19.6122 59.7605 20.2325C59.6072 20.4608 59.4538 20.6891 59.2955 20.9118C58.1201 22.5648 57.2171 24.3513 56.7199 26.3179C56.4122 27.5352 56.1516 28.7646 55.8929 29.9934L55.8519 30.1878C55.6622 31.0873 55.472 31.989 55.3525 32.8986L55.3472 32.9389C55.2528 33.6594 55.2456 33.7141 54.5472 33.4585C53.8261 33.1946 53.2046 33.3729 52.6969 33.8571C52.198 34.3329 52.1431 34.9748 52.3166 35.6218C52.8245 37.5168 54.2877 38.3102 56.0368 38.7829C56.1895 38.8241 56.3581 38.9716 56.4308 39.114C57.185 40.5905 57.2176 42.1609 56.7403 43.6838C56.3007 45.0862 55.7801 46.4636 55.2594 47.841C55.0297 48.4488 54.8 49.0565 54.5772 49.6665C54.3478 50.2946 54.2221 50.8704 54.7476 51.4788C55.8778 52.7872 56.9573 54.1415 57.7726 55.6763C58.0959 56.2849 58.5921 56.7231 59.2577 56.8553C59.8917 56.9813 59.9778 57.2916 60.0524 57.8804C60.1508 58.6565 60.4118 59.4721 60.8354 60.1223C60.9699 60.3287 61.3325 60.3845 61.7037 60.4417C61.9002 60.4719 62.0991 60.5026 62.2678 60.5561C62.4056 60.5998 62.6243 60.7816 62.6074 60.8555C62.5773 60.9868 62.548 61.1187 62.5187 61.2506C62.3781 61.8844 62.2365 62.5222 61.9989 63.1204C61.4785 64.4304 60.3717 65.2499 59.2974 66.0453C59.1506 66.154 59.0044 66.2622 58.8603 66.3712C56.9847 67.7906 54.7536 68.5701 52.512 69.2427C51.4584 69.5588 50.3897 69.8248 49.3208 70.0909C48.6273 70.2635 47.9339 70.4361 47.2444 70.6224C46.8148 70.7385 46.3903 70.8759 45.9659 71.0131C45.3367 71.2167 44.708 71.4201 44.0639 71.5538C41.5897 72.0677 39.4072 73.1245 37.4902 74.7431C36.2017 75.8311 35.5101 77.294 34.8146 78.7651L34.7131 78.9796C33.7731 80.9627 32.949 83.0769 32.8329 85.2228C32.8003 85.8246 32.8468 86.4303 32.8932 87.0363C32.9167 87.3427 32.9402 87.6492 32.9535 87.9552C32.9834 88.6434 33.009 89.3318 33.0346 90.0202C33.0902 91.5176 33.1459 93.0148 33.2456 94.5093C33.3012 95.3426 33.451 96.1706 33.6005 96.9973C33.6434 97.2347 33.6863 97.472 33.727 97.7093C33.8376 98.3551 33.9611 98.9988 34.0847 99.6425C34.1671 100.072 34.2495 100.501 34.3281 100.932C34.3793 101.212 34.4343 101.492 34.4893 101.772C34.6374 102.526 34.7854 103.281 34.8606 104.042C34.9297 104.741 34.9096 105.449 34.8895 106.157C34.8836 106.366 34.8777 106.576 34.874 106.785C34.8677 107.153 34.9327 107.451 35.3797 107.351C35.8213 107.252 36.2553 107.119 36.689 106.987C36.8254 106.945 36.9618 106.903 37.0984 106.862C37.5589 106.725 37.841 106.886 37.9003 107.355C37.9591 107.818 38.0108 108.283 38.0626 108.747C38.1411 109.452 38.2197 110.157 38.3226 110.858C38.5728 112.564 38.8481 114.266 39.145 115.964C39.69 119.08 40.4756 122.142 41.5078 125.132C42.4254 127.791 43.4179 130.426 44.42 133.055C44.9972 134.57 45.6145 136.069 46.2318 137.568L46.2333 137.572C46.3905 137.954 46.548 138.336 46.7044 138.718C47.3408 140.271 47.991 141.819 48.642 143.367C48.7927 143.725 48.9415 144.084 49.0904 144.443L49.0916 144.445C49.5294 145.501 49.9673 146.557 50.4507 147.591C50.8703 148.49 51.3472 149.362 51.8239 150.234C51.9645 150.491 52.1051 150.748 52.2443 151.006C52.2875 151.086 52.3743 151.144 52.4612 151.201C52.5015 151.227 52.5418 151.254 52.5778 151.282C52.5951 151.235 52.6153 151.188 52.6354 151.141C52.6827 151.031 52.7299 150.922 52.7407 150.808C52.7491 150.72 52.6983 150.623 52.6497 150.53C52.6369 150.506 52.6243 150.482 52.6129 150.458C52.4508 150.122 52.2831 149.788 52.1154 149.454C51.7637 148.753 51.4121 148.053 51.1119 147.331C50.072 144.832 49.0745 142.315 48.0805 139.797C47.6339 138.666 47.1973 137.531 46.7607 136.395L46.7603 136.394C46.3306 135.277 45.9009 134.16 45.4617 133.046C45.1885 132.354 44.8997 131.667 44.611 130.98C44.0941 129.75 43.5772 128.52 43.1503 127.26C42.2441 124.585 41.4332 121.875 40.699 119.149C40.2853 117.613 40.001 116.041 39.7172 114.472C39.6661 114.19 39.6151 113.908 39.5634 113.626C39.4202 112.847 39.3291 112.058 39.238 111.27L39.2378 111.269C39.2068 111 39.1757 110.731 39.1426 110.463C38.9985 109.296 38.8627 108.127 38.7306 106.958C38.6866 106.568 38.8609 106.384 39.2626 106.258C40.8008 105.776 42.3317 105.271 43.8626 104.766C44.4058 104.587 44.9489 104.408 45.4924 104.23C45.8966 104.097 46.3271 103.97 46.7696 103.84C48.4081 103.356 50.2115 102.824 51.4585 101.785C51.5307 101.725 51.7197 101.691 51.765 101.735C51.8465 101.814 51.9041 101.964 51.8955 102.08C51.8524 102.656 51.8002 103.232 51.7479 103.808C51.6449 104.945 51.5418 106.081 51.5095 107.219C51.4685 108.662 51.5385 110.11 51.6084 111.556C51.6176 111.746 51.6269 111.938 51.6359 112.128C51.679 113.045 51.7481 113.97 51.9143 114.871C52.3372 117.165 53.2148 119.312 54.2451 121.397C54.395 121.7 54.5731 121.992 54.751 122.283C55.017 122.719 55.2824 123.153 55.4512 123.623C55.7094 124.342 55.9822 125.055 56.2551 125.769C57.0045 127.729 57.7541 129.69 58.1991 131.752C58.339 132.401 58.5024 133.044 58.6659 133.688C58.8472 134.402 59.0286 135.117 59.1779 135.838C59.4081 136.95 59.5874 138.072 59.7666 139.194L59.7668 139.195C59.808 139.453 59.8493 139.712 59.8911 139.97C59.9423 140.285 59.9995 140.601 60.0566 140.917C60.2117 141.774 60.367 142.632 60.4044 143.494C60.4789 145.21 60.5025 146.928 60.5261 148.646C60.5387 149.563 60.5513 150.48 60.5717 151.397C60.5747 151.534 60.6334 151.669 60.6921 151.805C60.7194 151.868 60.7466 151.931 60.7683 151.994C60.8047 151.93 60.8498 151.867 60.895 151.804C60.9927 151.667 61.0904 151.53 61.0988 151.388C61.1441 150.615 61.1708 149.84 61.1974 149.066C61.2146 148.566 61.2318 148.067 61.254 147.567C61.2646 147.329 61.2896 147.092 61.3146 146.854C61.3521 146.498 61.3896 146.142 61.3782 145.787C61.3664 145.415 61.3557 145.043 61.345 144.671C61.2961 142.969 61.2471 141.266 61.0856 139.574C60.9774 138.44 60.7058 137.317 60.4355 136.2C60.3837 135.985 60.3318 135.771 60.2812 135.557C60.1599 135.044 60.0415 134.53 59.9231 134.016C59.5033 132.193 59.0832 130.368 58.5315 128.584C57.6254 125.655 56.3955 122.843 54.9825 120.106C54.3402 118.862 53.8019 117.535 53.4412 116.186C52.733 113.537 52.6717 110.8 52.6106 108.078L52.6049 107.822C52.5765 106.569 52.6285 105.314 52.6806 104.06C52.6983 103.632 52.7161 103.203 52.7307 102.776C52.7498 102.214 52.7934 101.652 52.837 101.091L52.8654 100.723C52.9076 100.164 52.9592 99.6046 53.0108 99.0457C53.1236 97.8243 53.2363 96.6028 53.2517 95.3802C53.2641 94.3968 53.1996 93.4128 53.1351 92.4285C53.0816 91.6131 53.0282 90.7976 53.0184 89.9819C53.0046 88.8307 52.669 87.7668 52.3331 86.7024C52.2266 86.3647 52.1201 86.0269 52.0238 85.6863C51.9868 85.5555 51.85 85.4523 51.7132 85.3491C51.6498 85.3013 51.5865 85.2535 51.5331 85.203C51.5122 85.2768 51.4821 85.3525 51.4521 85.4282C51.3864 85.5935 51.3208 85.7587 51.3508 85.9047C51.4109 86.1975 51.5005 86.4859 51.59 86.7739C51.7152 87.1769 51.8401 87.579 51.8833 87.9904C52.0766 89.8334 52.2598 91.6846 52.2898 93.535C52.3023 94.3096 52.2412 95.0859 52.1802 95.8619C52.112 96.7278 52.0439 97.5932 52.0782 98.4553C52.1271 99.6851 51.4933 100.339 50.6446 100.963C49.5282 101.784 47.9336 102.258 46.5021 102.684L46.5008 102.684C46.1219 102.797 45.7545 102.906 45.4105 103.018C43.2709 103.711 41.144 104.442 39.0172 105.174C38.1389 105.476 37.2605 105.778 36.3813 106.077L36.3665 106.082C36.0726 106.182 35.8301 106.265 35.8306 105.769C35.8311 105.163 35.7676 104.556 35.7045 103.952L35.7012 103.92C35.6652 103.576 35.63 103.232 35.5948 102.888C35.4588 101.56 35.3227 100.231 35.1457 98.9074C35.0376 98.0989 34.9063 97.2934 34.775 96.4879C34.6181 95.5253 34.4612 94.5628 34.3439 93.5955C34.179 92.2356 34.0811 90.8606 34.07 89.4914C34.0586 88.1045 34.1018 86.7172 34.1449 85.3299C34.1618 84.7854 34.1788 84.241 34.1924 83.6965C34.229 82.2356 34.9537 80.8953 35.6604 79.5883C35.9248 79.0993 36.1867 78.6149 36.4091 78.1306C37.537 75.6744 39.661 74.3199 42.0518 73.3632C43.2009 72.9034 44.3996 72.5636 45.5975 72.2241C46.0374 72.0994 46.4779 71.9746 46.9151 71.844C47.8949 71.5514 48.8772 71.2664 49.8594 70.9815L49.8605 70.9812C51.7982 70.419 53.7367 69.8566 55.6552 69.236C57.3666 68.6823 58.9964 67.8893 60.3442 66.6616C60.7135 66.3253 60.8952 66.385 61.2208 66.6931C62.284 67.699 63.3725 68.6788 64.4608 69.6585L64.6483 69.8273C66.5038 71.4979 68.5691 72.8639 70.8654 73.8601C71.2056 74.0077 71.7628 73.9871 72.079 73.8051C72.792 73.3945 73.4588 72.9035 74.1243 72.4135C74.2614 72.3126 74.3985 72.2116 74.5359 72.1115C74.8119 71.9102 75.0883 71.7096 75.3648 71.5089L75.3657 71.5082L75.3665 71.5076C76.5161 70.6732 77.6662 69.8384 78.7842 68.9642C79.9723 68.0352 80.8225 66.8112 81.6697 65.5914C81.8052 65.3963 81.9406 65.2013 82.0773 65.0077C82.131 64.9316 81.9416 64.5397 81.8202 64.5153C81.344 64.4199 81.1254 64.727 80.8962 65.049C80.8526 65.1102 80.8086 65.172 80.7624 65.2317C80.5723 65.4772 80.3867 65.7293 80.2009 65.9818C79.6248 66.7645 79.0455 67.5515 78.3176 68.1589C77.1559 69.1284 75.9357 70.0287 74.7151 70.9292C73.8474 71.5694 72.9793 72.21 72.1321 72.8754C71.6049 73.2896 71.2168 73.2592 70.7072 72.9745C70.5955 72.9121 70.4837 72.85 70.3721 72.7879C69.1833 72.127 68.0043 71.4715 66.9759 70.536C65.654 69.3336 64.2667 68.2014 62.8797 67.0695L62.8789 67.0689C62.4828 66.7456 62.0862 66.4219 61.6917 66.0971C61.3254 65.7955 61.3912 65.6091 61.7062 65.3239C62.7617 64.3683 63.3279 63.186 63.4814 61.7595C63.4908 61.6724 63.4939 61.5767 63.4972 61.4773C63.5119 61.0275 63.5291 60.502 64.1369 60.3617C64.7211 60.2268 65.1567 60.6048 65.5054 61.0237C65.7292 61.2925 65.9428 61.5698 66.1564 61.8471L66.157 61.8479C66.4227 62.1928 66.6887 62.5382 66.9738 62.8666L67.0274 62.9285C67.5727 63.5582 68.1734 64.2518 69.1215 63.9273C70.447 63.4736 71.7849 63.3892 73.1625 63.3731C73.5541 63.3685 74.098 63.0786 74.2987 62.754C74.6305 62.2176 74.8756 61.6286 75.1206 61.0397L75.1211 61.0388C75.2159 60.8111 75.3108 60.583 75.4105 60.3584C75.7621 59.5667 76.1277 59.2708 77.0081 59.5882C77.3906 59.726 77.8969 59.8358 78.243 59.6995C78.9285 59.4297 79.0581 59.7568 79.2504 60.242L79.2741 60.3019C79.7231 61.4273 80.1797 62.556 81.263 63.29C81.9772 63.7738 82.7856 63.9078 83.5947 64.0418C83.6699 64.0543 83.7451 64.0667 83.8203 64.0795C84.5221 64.1985 85.2262 64.3052 85.9303 64.4119L85.9354 64.4127C86.9506 64.5666 87.9666 64.7206 88.9748 64.9111C91.6008 65.4072 93.8518 66.7424 95.7807 68.4701C97.128 69.6769 98.2163 71.1965 99.2776 72.6784L99.3082 72.7212C100.079 73.7974 100.706 74.9798 101.329 76.1551C101.4 76.2905 101.472 76.4259 101.544 76.5611C101.738 76.9249 101.933 77.2883 102.128 77.6518C103.02 79.3124 103.913 80.9753 104.67 82.6954C105.545 84.6846 106.342 86.7071 107.14 88.7298L107.141 88.7339L107.142 88.735L107.144 88.7396C107.53 89.7206 107.917 90.702 108.313 91.6792C108.446 92.0066 108.488 92.2145 108.086 92.4022C107.804 92.5335 107.534 92.6939 107.266 92.8541ZM55.868 48.4787L55.8684 48.4778C55.9664 48.2591 56.0644 48.0405 56.1639 47.8226C56.9438 46.0448 57.6171 44.4039 57.7139 42.5257C57.8039 40.7784 57.3512 39.1851 56.8899 37.5614L56.8099 37.2795C56.6653 36.7683 56.5926 36.2379 56.5197 35.707C56.4576 35.2541 56.3955 34.8009 56.2886 34.3591C56.0407 33.3337 56.2416 32.3602 56.4422 31.3877C56.546 30.8851 56.6496 30.3828 56.6912 29.8738C56.82 28.2974 57.1936 26.7923 57.7335 25.3269C58.4336 23.4269 59.5047 21.7226 60.6738 20.0662C61.5638 18.8051 62.7226 17.9081 64.0395 17.1443C64.5667 16.8386 65.1008 16.456 65.4582 15.9805C65.7275 15.6221 65.9522 15.4913 66.3672 15.4969C66.8218 15.5031 67.2771 15.4963 67.7323 15.4895C68.4926 15.4782 69.2527 15.4668 70.009 15.516C72.7688 15.6956 75.3944 16.3762 77.7385 17.888L77.85 17.9599C78.7079 18.5127 79.5814 19.0756 80.3062 19.7766C81.23 20.6701 82.0606 21.6603 82.8888 22.6478C83.0182 22.8021 83.1476 22.9563 83.2773 23.1101C83.4224 23.2822 83.4606 23.5551 83.4962 23.8097C83.5032 23.8598 83.5102 23.9093 83.5178 23.9571C83.7128 25.1805 83.8972 26.4056 84.0817 27.6306L84.1649 28.1829C84.2032 28.4369 84.2422 28.6907 84.2811 28.9446L84.2813 28.9457L84.2814 28.9468L84.2815 28.9479C84.3996 29.7184 84.5176 30.4889 84.6189 31.2615C84.6531 31.5216 84.6874 31.7816 84.7218 32.0418L84.7227 32.0488L84.7231 32.0523L84.7233 32.0533C84.9303 33.6214 85.1372 35.1903 85.2981 36.7632C85.3872 37.6351 85.4083 38.5145 85.4295 39.3928L85.4296 39.3947C85.4342 39.587 85.4387 39.7792 85.4441 39.9713C85.4553 40.3764 85.4674 40.7814 85.4794 41.1866L85.4794 41.1887L85.4795 41.1898V41.1909C85.527 42.7914 85.5744 44.3924 85.5752 45.993C85.5765 48.3835 85.0441 50.7006 84.3291 52.9637C83.8896 54.355 83.3402 55.7132 82.7915 57.0694C82.6942 57.3099 82.5969 57.5504 82.5003 57.791C82.4213 57.9876 82.115 58.1687 81.8839 58.2176C81.2442 58.3529 80.5907 58.4433 79.9382 58.4911C79.6744 58.5104 79.3485 58.4406 79.1416 58.2896C78.8859 58.103 78.8396 58.0992 78.6998 58.3909C78.3694 59.08 77.9722 59.2449 77.2064 58.9761C76.526 58.7372 75.8622 58.6517 75.3501 59.2085C75.0666 59.5167 74.8788 59.9179 74.6951 60.3103C74.6615 60.382 74.6281 60.4534 74.5942 60.5239C74.505 60.7096 74.4517 60.9122 74.3984 61.1149C74.3708 61.2198 74.3431 61.3248 74.3105 61.4276C73.9924 62.4296 73.5886 62.7762 72.5549 62.7096C71.4276 62.637 70.3349 62.7968 69.2959 63.1536C68.4208 63.4541 68.0115 62.986 67.571 62.4824C67.5261 62.431 67.4808 62.3792 67.4346 62.3278C67.3096 62.1887 67.1849 62.0488 67.0604 61.9091C66.4574 61.2329 65.8537 60.556 65.1981 59.9335C64.9527 59.7005 64.4793 59.6061 64.1144 59.6148C63.7335 59.6239 63.3544 59.6875 62.9749 59.7512C62.7284 59.7926 62.4816 59.834 62.234 59.8605C61.7055 59.9171 61.2907 59.6239 61.1338 59.1815C60.9145 58.5633 60.7915 57.9007 60.7164 57.247C60.6624 56.7773 60.4921 56.4206 60.0412 56.34C58.9301 56.1416 58.3178 55.4508 57.7891 54.514C57.4149 53.851 56.9379 53.2444 56.4613 52.6383C56.2797 52.4075 56.0983 52.1768 55.9226 51.943C55.8063 51.7883 55.6789 51.6417 55.5515 51.4952C55.4328 51.3587 55.3142 51.2222 55.2045 51.0791C54.9596 50.7596 54.9474 50.4305 55.1353 50.0544C55.3941 49.5363 55.6311 49.0075 55.868 48.4787ZM85.8798 35.6559L85.8594 35.3029C85.7192 34.4974 86.1143 34.2418 86.6507 33.9366C87.4013 33.5095 88.1411 33.144 89.0147 33.2053C89.4343 33.2348 89.7862 33.4407 89.4324 33.9376C88.8324 34.7803 88.2197 35.6146 87.5932 36.4383C87.3091 36.8117 87.0063 37.1712 86.7034 37.5306C86.597 37.6569 86.4906 37.7832 86.385 37.9101C86.3478 37.9548 86.3018 37.9922 86.2557 38.0296L86.2287 38.0516C86.2165 38.0616 86.2044 38.0719 86.1926 38.0822C86.1823 38.0686 86.1718 38.0549 86.1612 38.0413L86.1363 38.0096C86.0883 37.9485 86.0402 37.8874 86.0002 37.8215C85.9872 37.8002 85.9905 37.7697 85.9938 37.7387C85.9956 37.7214 85.9975 37.7039 85.9966 37.6878C85.958 37.0118 85.919 36.3357 85.88 35.6597L85.8799 35.6587L85.8799 35.6569L85.8798 35.6559ZM56.078 38.0701C56.0591 38.1006 56.0402 38.1312 56.0264 38.1607C55.6528 37.9844 55.3063 37.7738 54.9633 37.5653C54.6631 37.3828 54.3655 37.2019 54.0546 37.0471C53.352 36.697 53.1048 36.0612 52.8799 35.4294C52.621 34.7022 53.1972 34.0076 53.9784 34.0128L54.0831 34.0133C54.3615 34.0143 54.6442 34.0153 54.912 34.0734C55.4381 34.1876 55.4903 34.5911 55.5406 34.9799C55.5562 35.1006 55.5716 35.2199 55.6009 35.3286C55.7888 36.0245 55.926 36.7341 56.0631 37.443L56.0634 37.4445C56.0917 37.5905 56.12 37.7369 56.1486 37.8828C56.1596 37.9386 56.1188 38.0043 56.078 38.0701Z" fill="#FFB61D"/>
<path d="M97.7309 102.13C98.8172 103.852 99.907 105.579 101.016 107.325C101.3 107.605 101.579 107.883 101.855 108.158L101.856 108.159L101.86 108.163C102.467 108.767 103.064 109.361 103.668 109.946C105.124 111.355 106.855 111.7 108.805 111.257C110.5 110.872 112.048 110.191 113.411 109.124C113.625 108.957 113.846 108.793 114.067 108.63L114.072 108.626C114.728 108.141 115.387 107.654 115.889 107.043C117.034 105.65 118.086 104.162 119.006 102.614C120.233 100.548 121.453 98.4524 122.39 96.2501C123.263 94.1972 123.99 92.0827 124.717 89.9687L124.717 89.9675L124.718 89.9662C124.988 89.1792 125.259 88.3923 125.537 87.6086C125.638 87.3218 125.741 87.035 125.843 86.7482C126.418 85.1343 126.993 83.5192 127.502 81.885C127.749 81.0925 127.958 80.2875 128.166 79.4827L128.166 79.4805C128.435 78.4429 128.703 77.405 129.054 76.3954C129.457 75.2363 129.957 74.1108 130.458 72.985L130.458 72.9839L130.459 72.9816C130.718 72.4001 130.977 71.8178 131.222 71.2314C131.481 70.613 131.74 69.9949 131.999 69.3768L132.001 69.3736C132.991 67.0133 133.982 64.6524 134.922 62.2725C135.295 61.3284 135.556 60.34 135.817 59.3537C135.885 59.0941 135.954 58.8347 136.024 58.5762C136.056 58.459 135.993 58.3161 135.929 58.1733C135.899 58.1072 135.87 58.0411 135.85 57.9776C135.781 57.9993 135.708 58.0155 135.634 58.0317C135.474 58.0669 135.315 58.1022 135.203 58.1942C134.5 58.7722 134.014 59.504 133.693 60.3585C133.529 60.7963 133.308 61.2141 133.088 61.6306C133.043 61.7171 132.997 61.8037 132.952 61.8903C132.924 61.943 132.85 61.9719 132.776 62.0008C132.742 62.0142 132.708 62.0276 132.678 62.0433C132.678 62.0142 132.675 61.9843 132.672 61.9545C132.667 61.8904 132.661 61.8264 132.678 61.7689C132.811 61.3159 132.949 60.8641 133.087 60.4123L133.088 60.4113L133.089 60.4083C133.382 59.4495 133.676 58.4904 133.92 57.5195C134.121 56.7244 134.186 55.8888 134.239 55.0668C134.278 54.4718 133.728 54.1275 133.245 54.4373C132.995 54.5979 132.788 54.8257 132.581 55.0532C132.498 55.145 132.415 55.2368 132.329 55.324C132.261 55.393 132.199 55.4686 132.138 55.5443C132.11 55.5788 132.082 55.6135 132.053 55.6474C132.048 55.633 132.043 55.6185 132.037 55.6042C132.032 55.5904 132.026 55.5767 132.02 55.563L132.007 55.5296C131.971 55.4435 131.936 55.3574 131.918 55.2678C131.861 54.9712 131.819 54.6717 131.778 54.3723C131.703 53.8076 131.374 53.269 130.87 53.2576C130.528 53.2499 130.041 53.7422 129.847 54.1244C129.261 55.2841 128.745 56.4835 128.279 57.6966C127.917 58.6392 127.594 59.5967 127.272 60.5544L127.272 60.5554C127.125 60.9919 126.978 61.4289 126.827 61.864C126.795 61.9587 126.756 62.0514 126.718 62.1441L126.696 62.197L126.673 62.2523L126.665 62.2734C126.629 62.2468 126.59 62.2221 126.551 62.1976C126.468 62.1445 126.384 62.0915 126.329 62.0176C125.755 61.2484 124.934 60.8434 124.1 60.4318L123.999 60.3819C123.239 60.0059 122.487 60.1092 121.821 60.4351C120.918 60.8765 120.949 62.4786 121.742 63.1965C122.965 64.3033 123.812 65.621 124.172 67.2363C124.662 69.4299 124.198 71.4124 122.888 73.2283L122.694 73.4977C122.041 74.4018 121.387 75.3071 120.786 76.2449C119.247 78.6478 117.723 81.0608 116.234 83.4942L116.146 83.6387L116.145 83.6406C114.769 85.8897 113.391 88.1412 112.119 90.4481C111.543 91.4916 111.077 92.5944 110.611 93.6965L110.607 93.7056C110.444 94.0914 110.28 94.478 110.112 94.861C109.961 95.2061 109.854 95.3273 109.566 94.9763C109.35 94.7138 109.103 94.4674 108.834 94.2611C108.751 94.1977 108.625 94.1891 108.5 94.1806C108.443 94.1767 108.386 94.1728 108.332 94.1638C108.329 94.2025 108.32 94.2464 108.311 94.2903C108.292 94.3853 108.272 94.4804 108.311 94.5236C108.363 94.5804 108.414 94.638 108.465 94.6957C108.731 94.995 109 95.2982 109.322 95.5234C110.327 96.2262 110.446 96.1448 110.89 94.9855C110.945 94.8405 111.001 94.6951 111.056 94.5495L111.056 94.5484C111.441 93.535 111.828 92.5148 112.353 91.5747C113.779 89.0217 115.284 86.5109 116.799 84.0078C118.296 81.5326 119.821 79.0723 121.382 76.6361C121.735 76.0859 122.127 75.5585 122.518 75.0317C123.067 74.2939 123.615 73.557 124.053 72.7595C125.68 69.7958 125.443 66.8467 123.547 64.0556C123.359 63.7788 123.115 63.5379 122.871 63.2976C122.603 63.0325 122.335 62.7681 122.143 62.4564C121.936 62.1205 121.913 61.512 122.088 61.1643C122.206 60.9298 122.867 60.7638 123.192 60.8641C124.754 61.3458 126.238 61.972 126.567 63.8547C126.582 63.9429 126.686 64.016 126.789 64.0891C126.838 64.1231 126.886 64.1571 126.925 64.1926C126.944 64.1644 126.965 64.137 126.987 64.1095C127.033 64.0503 127.079 63.9911 127.099 63.9242C127.293 63.2964 127.478 62.6664 127.664 62.0364L127.751 61.742C127.892 61.2662 128.028 60.7888 128.163 60.3115L128.165 60.3078C128.485 59.1834 128.805 58.0583 129.185 56.9541C129.423 56.2618 129.769 55.605 130.115 54.9499C130.222 54.7463 130.329 54.543 130.433 54.3387C130.504 54.1986 130.691 54.1011 130.846 54.0278C130.886 54.0088 131.07 54.1477 131.08 54.2273C131.097 54.3654 131.122 54.5058 131.146 54.6467C131.215 55.0393 131.284 55.4358 131.201 55.7965C131.034 56.5285 130.805 57.2463 130.576 57.9644L130.574 57.972C130.445 58.3768 130.316 58.7817 130.198 59.1893C129.927 60.124 129.678 61.0654 129.457 62.0125C129.439 62.0939 129.528 62.2002 129.618 62.3064C129.66 62.3556 129.701 62.4048 129.732 62.4515C129.774 62.4157 129.823 62.3823 129.871 62.3488C129.977 62.2765 130.082 62.2041 130.116 62.1072C130.338 61.472 130.54 60.8302 130.742 60.1884C130.812 59.9669 130.882 59.7454 130.953 59.5241C131.425 58.0428 131.928 56.5751 133.047 55.4186C133.117 55.3464 133.21 55.2968 133.304 55.2471C133.347 55.2242 133.391 55.2009 133.432 55.1758C133.446 55.2275 133.467 55.2808 133.488 55.3341C133.533 55.4491 133.578 55.5642 133.554 55.6631C133.162 57.3133 132.752 58.9597 132.335 60.604C132.273 60.8468 132.2 61.0874 132.128 61.3279C132.011 61.7153 131.895 62.1026 131.824 62.4981C131.792 62.6736 131.87 62.8684 131.948 63.0632C131.983 63.1518 132.019 63.2405 132.044 63.3274C132.113 63.3031 132.191 63.2853 132.269 63.2676C132.44 63.2288 132.61 63.1901 132.692 63.0843C133.109 62.5439 133.496 61.9727 133.831 61.3784C134.028 61.0291 134.199 60.6657 134.37 60.3022C134.513 59.9998 134.656 59.6972 134.813 59.4027C134.87 59.2969 134.99 59.2247 135.111 59.1524C135.166 59.1192 135.222 59.0859 135.271 59.0494C135.265 59.1039 135.262 59.1596 135.26 59.2153C135.255 59.3356 135.25 59.4559 135.209 59.5628L135.027 60.0383C134.594 61.1738 134.161 62.3096 133.695 63.4321C133.504 63.8939 133.289 64.3463 133.075 64.7988L133.074 64.7998C132.866 65.2392 132.657 65.6791 132.47 66.127C132.121 66.9622 131.784 67.8027 131.448 68.6433C130.848 70.1407 130.248 71.638 129.578 73.1041C128.63 75.1804 127.872 77.3104 127.238 79.493C126.986 80.3628 126.727 81.2317 126.437 82.0897C126.127 83.0064 125.807 83.9198 125.487 84.8333L125.486 84.8343C124.86 86.6188 124.234 88.4038 123.688 90.2118C122.884 92.8741 121.989 95.4935 120.802 98.0107C119.537 100.694 117.976 103.215 116.157 105.551C115.302 106.649 114.223 107.667 113.043 108.401C111.696 109.239 110.252 110.012 108.637 110.333C107.563 110.547 106.481 110.672 105.496 110.11C103.684 109.075 102.33 107.533 101.135 105.882C100.234 104.637 99.3824 103.358 98.5304 102.078C98.0401 101.342 97.5498 100.606 97.0502 99.8762C96.9687 99.7572 96.8267 99.6788 96.6847 99.6005C96.6188 99.5641 96.5528 99.5277 96.4929 99.4872C96.4902 99.555 96.4864 99.6229 96.4826 99.6908C96.4726 99.8715 96.4625 100.052 96.4722 100.232C96.4743 100.27 96.5172 100.303 96.5627 100.338C96.5979 100.365 96.6345 100.393 96.6551 100.426C97.003 100.977 97.3507 101.528 97.6987 102.079L97.7309 102.13Z" fill="#FFB61D"/>
<path d="M91.6948 140.46C91.5365 141.457 91.3818 142.432 91.0414 143.339C90.4154 145.006 88.9665 146.014 87.2936 146.526C85.6487 147.03 83.9599 147.399 82.2748 147.768C82.0771 147.811 81.8795 147.854 81.6821 147.898C81.2346 147.996 80.7679 148.01 80.3018 148.025C80.1171 148.03 79.9324 148.036 79.7491 148.047C78.8243 148.102 77.8996 148.156 76.9748 148.209C75.5739 148.291 74.1729 148.372 72.7724 148.459C72.203 148.494 71.6341 148.537 71.0651 148.58L71.0619 148.58H71.0599C70.3632 148.633 69.6659 148.685 68.9684 148.724L68.6284 148.743C67.5245 148.804 66.4181 148.866 65.3145 148.849C64.5448 148.838 63.7759 148.745 63.0082 148.653C62.8072 148.629 62.6062 148.605 62.4054 148.582C62.3245 148.573 62.2513 148.497 62.1781 148.421C62.1441 148.386 62.1102 148.35 62.0755 148.322C62.1025 148.293 62.1282 148.258 62.154 148.223C62.21 148.148 62.2661 148.072 62.3341 148.059C62.4051 148.046 62.4767 148.031 62.5486 148.017C62.8703 147.952 63.199 147.886 63.5104 147.925C65.6639 148.2 67.7998 148.021 69.9399 147.782C70.9866 147.665 72.0388 147.594 73.0902 147.522L73.3307 147.506C74.0604 147.456 74.791 147.416 75.5216 147.375L75.5267 147.374C76.9155 147.296 78.3046 147.219 79.6873 147.08C82.3703 146.813 85.0243 146.336 87.5351 145.316C88.9863 144.726 89.9852 143.604 90.3641 142.124L90.4026 141.974C90.8206 140.344 91.2454 138.688 91.0768 136.973C91.0375 136.573 90.9706 136.174 90.9038 135.776C90.8014 135.165 90.6991 134.555 90.6966 133.944C90.6933 133.14 90.753 132.337 90.8127 131.533C90.8647 130.832 90.9168 130.132 90.9272 129.431C90.9364 128.806 90.8538 128.179 90.7712 127.553C90.7361 127.286 90.701 127.02 90.6729 126.753C90.6486 126.523 90.6259 126.291 90.6032 126.06L90.6031 126.059L90.6029 126.058C90.5425 125.442 90.482 124.826 90.3909 124.215C90.0632 122.014 89.9363 119.804 89.9734 117.58C89.9831 116.997 89.9465 116.414 89.9098 115.83C89.885 115.435 89.8602 115.038 89.8497 114.643C89.8263 113.754 89.8097 112.864 89.793 111.975V111.974C89.7692 110.706 89.7455 109.437 89.7022 108.169C89.6666 107.127 89.6063 106.086 89.5459 105.046C89.5072 104.378 89.4684 103.711 89.4363 103.043C89.4099 102.496 89.3913 101.948 89.3728 101.401C89.3505 100.743 89.3281 100.083 89.2922 99.4258C89.2667 98.9583 89.2231 98.4904 89.1795 98.0226C89.0975 97.1431 89.0155 96.2641 89.0543 95.3899C89.0965 94.4413 89.2654 93.4983 89.4342 92.5552C89.5096 92.1343 89.585 91.7134 89.6491 91.292C89.6919 91.0104 89.7359 90.729 89.7798 90.4476C89.8992 89.6832 90.0186 88.9185 90.1157 88.1513C90.1706 87.7182 90.2111 87.2832 90.2516 86.8483C90.2984 86.3452 90.3453 85.842 90.4144 85.3419C90.4297 85.2311 90.556 85.1353 90.6823 85.0395C90.7406 84.9953 90.799 84.951 90.8464 84.9053C90.8714 84.9578 90.9049 85.0113 90.9383 85.0647C91.0104 85.1798 91.0825 85.2949 91.0707 85.4009C90.9097 86.8476 90.7255 88.2919 90.5328 89.735C90.461 90.2727 90.372 90.8098 90.283 91.3467C90.0984 92.4606 89.9137 93.5744 89.883 94.6923C89.8392 96.2869 89.9355 97.8856 90.0317 99.4837L90.032 99.4881C90.065 100.036 90.0979 100.585 90.1252 101.133C90.1654 101.939 90.2207 102.745 90.276 103.551C90.3177 104.159 90.3592 104.766 90.3944 105.374C90.4185 105.79 90.4429 106.206 90.4672 106.622L90.4674 106.624C90.5881 108.691 90.7088 110.757 90.8022 112.825C90.8365 113.582 90.8495 114.341 90.8625 115.099V115.101C90.8795 116.093 90.8964 117.084 90.9609 118.073C91.0373 119.246 91.1673 120.415 91.2971 121.584L91.2972 121.586C91.3654 122.199 91.4335 122.813 91.4939 123.428C91.5972 124.477 91.6915 125.528 91.7673 126.58C91.779 126.743 91.7917 126.906 91.8043 127.068C91.8604 127.794 91.9166 128.521 91.896 129.245C91.8748 129.988 91.8289 130.73 91.7829 131.473C91.7226 132.446 91.6623 133.42 91.658 134.394C91.6558 134.896 91.7499 135.397 91.8441 135.899C91.9182 136.294 91.9924 136.689 92.02 137.087C92.0517 137.543 92.0097 138.004 91.9656 138.486C91.9444 138.72 91.9225 138.958 91.9085 139.203C91.8275 139.623 91.761 140.042 91.6951 140.458L91.6948 140.46Z" fill="#FFB61D"/>
<path d="M41.3561 141.69C41.9334 144.114 43.5153 145.911 45.5437 147.402L45.7129 147.469C46.5971 147.819 47.4477 148.156 48.3155 148.442C48.4818 148.496 48.6764 148.467 48.871 148.437C48.9604 148.423 49.0498 148.41 49.1365 148.404C49.0865 148.352 49.0367 148.299 48.987 148.247C48.8409 148.093 48.6949 147.938 48.5412 147.792C48.5215 147.773 48.4834 147.776 48.4433 147.779C48.4087 147.781 48.3727 147.784 48.3454 147.773C48.1186 147.683 47.8807 147.606 47.6427 147.529C47.0979 147.353 46.5527 147.177 46.1386 146.842C45.1285 146.025 44.2073 145.064 43.4016 144.046C42.6054 143.039 42.1995 141.83 42.2745 140.503C42.3016 140.023 42.3161 139.542 42.3307 139.061C42.3512 138.382 42.3717 137.702 42.4278 137.025C42.4704 136.511 42.5513 136 42.6323 135.489C42.7037 135.038 42.7751 134.587 42.8202 134.133C42.919 133.141 42.9806 132.145 43.0422 131.149C43.057 130.911 43.0717 130.673 43.0869 130.435C43.0927 130.345 43.0328 130.219 42.9609 130.164C42.9016 130.12 42.7344 130.119 42.693 130.166C42.664 130.199 42.6329 130.232 42.6013 130.266C42.4632 130.415 42.3152 130.574 42.2944 130.742C42.2074 131.446 42.147 132.152 42.0865 132.859L42.0864 132.86C42.0589 133.181 42.0314 133.502 42.0014 133.823C41.9924 133.919 41.9722 134.015 41.952 134.11C41.9366 134.183 41.9213 134.255 41.9108 134.329C41.8524 134.735 41.7895 135.142 41.7265 135.548C41.5741 136.532 41.4217 137.517 41.3346 138.506L41.3144 138.733C41.2255 139.722 41.1329 140.753 41.3561 141.69Z" fill="#FFB61D"/>
<path d="M77.0951 74.0527C77.4675 73.796 77.8426 73.5453 78.2166 73.2954C79.7063 72.2998 81.1777 71.3166 82.3832 70.0142C83.0188 69.3275 83.5823 68.5754 84.1459 67.8234C84.394 67.4923 84.6421 67.1611 84.8963 66.8356C84.9246 66.7995 84.9486 66.7566 84.9724 66.7141C85.0155 66.6372 85.058 66.5614 85.1235 66.5287C85.2559 66.4627 85.4031 66.426 85.5504 66.3893C85.6116 66.3741 85.6733 66.3587 85.7334 66.3413C85.7139 66.4013 85.6987 66.4645 85.6836 66.5276C85.6508 66.6641 85.6181 66.8005 85.5412 66.9051C85.3831 67.1201 85.2258 67.3359 85.0685 67.5518C84.4336 68.4229 83.798 69.2948 83.106 70.1195C82.482 70.8631 81.7943 71.5824 81.0253 72.1726C79.6907 73.197 78.3192 74.192 76.8745 75.0536C75.2942 75.996 73.6356 76.8195 71.967 77.6028C71.1401 77.9911 70.2387 77.9406 69.4199 77.4127C66.9446 75.8166 64.5312 74.1407 62.4737 72.021C61.9045 71.4346 61.3785 70.8027 60.8809 70.1554C60.8003 70.0506 60.811 69.877 60.8216 69.7034C60.8265 69.6236 60.8314 69.5437 60.8274 69.4705C60.9013 69.4843 60.9836 69.49 61.0658 69.4957C61.2448 69.5082 61.4239 69.5207 61.5163 69.6157C61.7655 69.8718 61.9936 70.1485 62.2216 70.4251C62.486 70.7458 62.7502 71.0662 63.0469 71.3542C63.8124 72.0973 64.6177 72.8073 65.4586 73.4657C66.4671 74.2553 67.5043 75.0091 68.5413 75.7628L68.5436 75.7644C68.7731 75.9312 69.0025 76.0979 69.2316 76.265C69.3834 76.3758 69.547 76.4709 69.7106 76.566C69.8809 76.665 70.0511 76.764 70.208 76.8806C70.8627 77.367 71.4267 77.0482 71.9439 76.756C72.0723 76.6835 72.1978 76.6126 72.3211 76.556C73.5474 75.9934 74.7329 75.3437 75.9359 74.6844C76.3198 74.474 76.7057 74.2625 77.0951 74.0527Z" fill="#FFB61D"/>
<path d="M129.95 67.1883C130.153 66.9416 130.359 66.6905 130.575 66.432C130.721 66.4158 130.86 66.414 130.995 66.4122C131.144 66.4102 131.287 66.4083 131.427 66.3874C131.545 66.3697 131.655 66.3031 131.766 66.2365C131.815 66.2067 131.865 66.1769 131.915 66.1514C131.875 66.1057 131.838 66.0525 131.801 65.9994C131.721 65.8845 131.641 65.7695 131.533 65.7296C130.511 65.3525 128.708 66.7396 128.762 67.8545C128.767 67.9587 128.828 68.0603 128.888 68.1618C128.917 68.2088 128.945 68.2558 128.967 68.3031C129.003 68.2686 129.039 68.235 129.075 68.2014C129.154 68.1283 129.233 68.0551 129.301 67.9733C129.517 67.7145 129.732 67.4537 129.95 67.1883Z" fill="#FFB61D"/>
<path d="M127.097 68.2948C127.421 67.4977 127.159 66.7419 126.863 65.9557L126.796 65.88L126.723 65.7956L126.633 65.6928L126.632 65.6918C126.418 65.4452 126.216 65.2135 126.005 64.9906C125.991 64.9761 125.734 65.1415 125.742 65.1599C125.849 65.4097 125.974 65.6526 126.11 65.889C126.526 66.6143 126.58 67.4023 126.565 68.2124C126.563 68.3253 126.631 68.4395 126.698 68.5536C126.73 68.6062 126.761 68.6589 126.785 68.7114C126.819 68.6678 126.856 68.6257 126.893 68.5835C126.973 68.4922 127.054 68.4009 127.097 68.2948Z" fill="#FFB61D"/>
<path fill-rule="evenodd" clip-rule="evenodd" d="M110.197 29.7803C110.553 30.3087 110.91 30.8407 111.396 31.2961C111.428 32.328 111.437 33.2905 111.169 34.2315C111.122 34.4002 111.157 34.5591 111.193 34.7195C111.222 34.8503 111.413 34.9444 111.524 34.8817C111.668 34.8006 111.81 34.7145 111.945 34.6199C112.036 34.5563 112.126 34.4918 112.217 34.4274C112.6 34.1537 112.983 33.8801 113.411 33.6743C113.463 33.6492 113.515 33.6244 113.567 33.5997C113.766 33.5054 113.965 33.4111 114.154 33.3009C114.364 33.179 114.567 33.1618 114.792 33.2377C115.567 33.4994 116.366 33.6615 117.165 33.8235C117.293 33.8494 117.42 33.8753 117.548 33.9015C117.586 33.9094 117.624 33.9179 117.662 33.9264C117.76 33.9481 117.857 33.9697 117.956 33.9819C118.274 34.0211 118.593 34.0515 118.912 34.082C119.422 34.1306 119.933 34.1793 120.44 34.2645C120.548 34.2829 120.664 34.2907 120.772 34.2764C121.03 34.2426 121.289 34.2197 121.547 34.1969C122.064 34.1512 122.581 34.1056 123.086 33.9725C123.431 33.8815 123.774 33.7796 124.116 33.6777C124.253 33.637 124.39 33.5962 124.527 33.5562C124.591 33.5376 124.654 33.519 124.718 33.5004C125.081 33.3946 125.443 33.2888 125.805 33.1798C125.91 33.148 126.015 33.109 126.113 33.0602C126.199 33.0178 126.284 32.9757 126.37 32.9336C127.079 32.584 127.787 32.2349 128.43 31.7615C128.511 31.7018 128.593 31.6439 128.675 31.586C128.931 31.4049 129.187 31.2244 129.406 30.9945C129.539 30.8551 129.687 30.7292 129.834 30.6042L129.836 30.6026C130.262 30.2405 130.604 29.8073 130.92 29.3528C131.315 28.7842 131.476 28.1268 131.637 27.4701L131.647 27.4322C131.627 27.1987 131.673 26.9738 131.718 26.7487C131.738 26.6505 131.758 26.5523 131.772 26.4533C131.974 25.0719 131.794 23.7654 130.962 22.592C130.861 22.4488 130.777 22.2932 130.693 22.1377C130.658 22.0742 130.624 22.0107 130.589 21.948C130.384 21.5861 130.155 21.2418 129.856 20.948C129.202 20.3064 128.511 19.7156 127.697 19.2708C127.12 18.955 126.517 18.6977 125.914 18.4398C125.778 18.3816 125.641 18.3233 125.505 18.2643C124.447 17.8062 123.346 17.5514 122.206 17.4367C121.855 17.4015 121.502 17.3833 121.15 17.3651C120.974 17.356 120.799 17.347 120.624 17.3359C119.651 17.2737 118.677 17.2524 117.704 17.3294C116.873 17.395 116.042 17.4733 115.212 17.5516C115.046 17.5673 114.881 17.5829 114.715 17.5985C114.634 17.606 114.552 17.6372 114.478 17.672C114.089 17.8552 113.687 18.0083 113.285 18.1613C113.066 18.2448 112.846 18.3283 112.629 18.4167C111.684 18.8015 110.872 19.3537 110.296 20.2115C110.213 20.3355 110.122 20.4541 110.03 20.5727C109.953 20.6732 109.876 20.7736 109.803 20.8773C109.279 21.6295 108.832 22.4204 108.648 23.3286C108.612 23.5068 108.59 23.6877 108.569 23.8688C108.555 23.9885 108.541 24.1082 108.522 24.2272C108.429 24.8283 108.424 25.419 108.547 26.0251C108.756 27.063 109.188 28.0123 109.63 28.9618C109.641 28.9865 109.657 29.0096 109.674 29.0317C109.857 29.2745 110.027 29.527 110.197 29.7803ZM111.909 33.6675C111.904 33.6678 111.9 33.6683 111.896 33.6688C111.893 33.6737 111.9 33.6808 111.916 33.6896C111.913 33.6822 111.911 33.6748 111.909 33.6675ZM111.977 33.665C111.954 33.6653 111.931 33.6655 111.909 33.6675C111.862 33.5108 111.887 33.3526 111.932 33.2021C112.041 32.8339 112.089 32.456 112.136 32.0782C112.164 31.8551 112.192 31.632 112.233 31.411C112.258 31.2719 112.227 31.1299 112.077 31.0615C111.603 30.8447 111.293 30.451 110.997 30.0535C110.75 29.722 110.515 29.3757 110.323 29.0109C110.144 28.6716 110.012 28.305 109.89 27.9402C109.734 27.4699 109.599 26.992 109.474 26.5125C109.361 26.0835 109.35 25.6408 109.354 25.1995C109.354 25.1038 109.361 25.008 109.367 24.9122C109.376 24.7877 109.384 24.6631 109.38 24.5389C109.335 23.1832 109.886 22.0234 110.589 20.9145C111.031 20.2177 111.665 19.7086 112.388 19.3477C113.23 18.9278 114.105 18.5597 115.035 18.3631C115.906 18.1793 116.781 18.0269 117.675 17.9973C118.006 17.9864 118.333 17.9687 118.659 17.8574C118.885 17.7806 119.143 17.7826 119.392 17.7846C119.423 17.7848 119.453 17.785 119.484 17.7851C119.817 17.7862 120.152 17.8083 120.483 17.8447C120.512 17.8478 120.541 17.851 120.57 17.8542C120.901 17.8908 121.23 17.9272 121.564 17.9315C121.786 17.9345 122.009 17.9827 122.229 18.0301C122.254 18.0355 122.279 18.0409 122.304 18.0462C122.888 18.1706 123.454 18.3532 124.02 18.5358C124.379 18.6517 124.738 18.7675 125.101 18.8685C125.309 18.9691 125.518 19.0693 125.726 19.1694C126.192 19.3937 126.658 19.6179 127.122 19.8469C128.027 20.2932 128.746 20.9757 129.464 21.6573L129.54 21.7296C130.035 22.1989 130.329 22.7979 130.548 23.423C130.757 24.0197 130.902 24.6359 130.946 25.2749C131.019 26.3399 130.834 27.3529 130.452 28.3476C130.055 29.3837 129.414 30.2441 128.529 30.891C127.386 31.7266 126.141 32.4031 124.782 32.8461C124.203 33.0352 123.624 33.2237 123.022 33.3479C122.116 33.5351 121.2 33.551 120.282 33.5606C120.244 33.561 120.207 33.5592 120.169 33.5575C120.123 33.5553 120.078 33.5532 120.032 33.5549C118.363 33.6165 116.779 33.2102 115.212 32.706C115.062 32.6578 114.911 32.6149 114.759 32.572C114.671 32.5468 114.582 32.5216 114.493 32.4954C114.322 32.4445 114.161 32.4731 114.016 32.5698C113.736 32.7565 113.436 32.9088 113.136 33.061C112.792 33.2351 112.449 33.4093 112.135 33.6353C112.096 33.6636 112.037 33.6643 111.977 33.665Z" fill="#FFB61D"/>
<path fill-rule="evenodd" clip-rule="evenodd" d="M92.0527 77.295C92.1731 77.1905 92.2958 77.0841 92.424 76.9785C92.5094 76.8675 92.5964 76.7617 92.6815 76.6581C92.8883 76.4064 93.0845 76.1676 93.2219 75.8993C93.5625 75.2339 93.3814 74.9942 92.6631 74.675C92.3356 74.5295 92.0351 74.3263 91.7339 74.1226C91.5368 73.9893 91.3394 73.8558 91.134 73.7383L91.0877 73.7117C90.8099 73.5522 90.5068 73.3782 90.2042 73.3535C88.6208 73.2241 87.2639 75.2919 87.8947 76.7895C88.5467 78.3377 89.8462 78.8062 91.2064 77.957C91.5042 77.7711 91.7724 77.5384 92.0527 77.295ZM88.4688 76.1594C88.4264 75.6373 88.4989 75.1593 88.884 74.7671C88.9831 74.692 89.0672 74.6376 89.141 74.5899C89.2125 74.5437 89.2744 74.5037 89.3307 74.4573C89.9966 73.9081 90.4239 73.9441 91.0866 74.4769C91.478 74.7917 91.9449 75.0363 92.4129 75.229C92.7723 75.3771 92.8091 75.5793 92.5878 75.7896C92.4471 75.9234 92.3079 76.0611 92.1684 76.1992C91.6771 76.6855 91.1817 77.1759 90.599 77.5112C89.712 78.0215 88.554 77.2075 88.4688 76.1594Z" fill="#FFB61D"/>
<path fill-rule="evenodd" clip-rule="evenodd" d="M48.1901 77.1486L48.2918 77.0593C48.8616 76.5586 49.4081 76.0784 50.0194 75.7007C50.6982 75.2813 51.4698 75.4611 52.0668 76.014C52.9847 76.864 53.5937 76.7651 54.1926 76.0398C54.2502 75.9699 54.3137 75.9006 54.3871 75.8484C54.4667 75.7917 54.5456 75.7292 54.625 75.6664C54.9807 75.3847 55.3466 75.095 55.8352 75.2809C56.4377 75.5101 56.6798 76.0517 56.87 76.6686C57.3031 78.0739 56.4225 79.2675 55.3196 79.8899C54.0526 80.6049 52.6877 80.884 51.2876 81.0912C50.2817 81.2401 48.3436 80.3748 47.9076 79.6701C47.3449 78.7606 47.6882 77.9878 48.1901 77.1486ZM54.1018 79.6661C54.1606 79.6371 54.2196 79.6082 54.2786 79.5793C55.3153 79.0719 56.3459 78.5674 56.1716 77.0916C56.1624 77.0137 56.158 76.932 56.1536 76.8502C56.1337 76.4793 56.1135 76.1053 55.6439 76.0578C55.3451 76.0275 54.9508 76.2754 54.7034 76.5065C53.6779 77.464 52.8275 77.5547 51.7522 76.5511C51.4243 76.245 51.0569 75.9276 50.4333 76.1718C49.3477 76.5969 48.8649 77.4823 48.4944 78.4285C48.3254 78.86 48.3691 79.466 49.0225 79.6697C49.2164 79.7301 49.4112 79.8024 49.6063 79.8749C50.1049 80.0601 50.606 80.2462 51.1016 80.237C51.8854 80.2226 52.6657 80.0257 53.4816 79.8198C53.6859 79.7682 53.8925 79.7161 54.1018 79.6661Z" fill="#FFB61D"/>
<path fill-rule="evenodd" clip-rule="evenodd" d="M77.1293 114.472L77.0823 114.567C76.6363 115.477 76.2051 116.356 75.2031 116.743C74.1597 117.146 72.4746 117.278 71.6549 116.247C71.1692 115.636 71.1371 114.825 71.6814 114.245C71.8537 114.062 72.0365 113.884 72.2195 113.705C72.6833 113.253 73.1481 112.8 73.4454 112.258C73.7297 111.74 73.8566 111.138 73.9837 110.535C74.0422 110.257 74.1008 109.979 74.1749 109.709C74.4104 108.85 74.6573 107.98 75.5095 107.503C76.1235 107.159 76.6122 107.383 77.071 107.936C77.9041 108.941 77.8246 110.077 77.7458 111.202C77.7254 111.493 77.7051 111.784 77.7007 112.071C77.6921 112.631 77.5232 113.188 77.3502 113.759C77.2861 113.971 77.2212 114.185 77.1639 114.401L77.1293 114.472ZM75.136 110.013C75.1219 110.099 75.1081 110.185 75.0944 110.271C74.9469 111.196 74.7982 112.13 74.1638 112.875C73.683 113.44 73.1399 113.963 72.5691 114.44C72.0303 114.89 71.9375 115.42 72.4225 115.9C73.2764 116.744 75.3471 116.36 75.9504 115.205C76.3088 114.519 76.6132 113.796 76.8542 113.061C77.3 111.701 77.0238 110.372 76.5173 109.082C76.4406 108.887 76.225 108.631 76.0569 108.618C75.8989 108.606 75.679 108.852 75.5579 109.032C75.3833 109.291 75.2735 109.593 75.136 110.013Z" fill="#FFB61D"/>
<path fill-rule="evenodd" clip-rule="evenodd" d="M75.2287 81.617C74.5983 81.1688 73.999 81.1615 73.352 81.3081C72.2927 81.5481 71.1479 82.7699 71.1479 84.0201C71.1479 85.2791 71.7137 86.2001 72.7566 86.794C73.7633 87.3673 74.8227 87.767 76.0713 87.654C77.5333 87.5217 78.6383 86.955 79.2362 85.6322C79.3606 85.3568 79.3489 85.0211 79.3372 84.6854C79.3319 84.5316 79.3265 84.3779 79.3342 84.2299C79.2057 84.2305 79.0733 84.2209 78.9409 84.2113C78.6429 84.1896 78.345 84.168 78.0913 84.2625C77.6188 84.4386 77.3663 84.2769 77.2075 83.9277C76.7687 82.9632 76.1041 82.2394 75.2287 81.617ZM73.0081 82.3321C73.6171 82.0481 74.7394 81.7322 75.4053 82.3321C76.0713 82.932 76.3236 83.4943 76.4909 83.8787C76.8948 84.8064 77.4626 85.1117 78.4215 84.8561C78.512 84.832 78.609 84.832 78.706 84.8319C78.7509 84.8319 78.7958 84.8318 78.8401 84.8294C78.8264 84.8734 78.8142 84.9179 78.802 84.9625C78.7757 85.0583 78.7494 85.1541 78.7093 85.2439C77.7618 87.3682 74.7166 87.0512 73.2931 86.1545C72.4246 85.6074 71.9312 84.8941 71.9731 83.8542C72.0022 83.1337 72.3813 82.6243 73.0081 82.3321Z" fill="#FFB61D"/>
<path fill-rule="evenodd" clip-rule="evenodd" d="M79.2261 99.1601C79.0641 99.2959 78.9107 99.4396 78.7595 99.5811C78.4183 99.9006 78.0887 100.209 77.6989 100.391C76.8469 100.789 75.9377 100.585 75.109 100.181C73.7104 99.5003 72.8477 98.4651 72.9342 96.8267C72.9958 95.6594 73.7001 94.9784 74.6513 94.4169C75.4534 93.9435 76.2366 93.8439 77.0753 94.2436C77.7023 94.5424 77.8748 95.1211 78.0453 95.6926C78.0794 95.8071 78.1135 95.9213 78.1511 96.0329C78.1999 96.1779 78.2132 96.3352 78.2264 96.4922C78.2408 96.663 78.2551 96.8334 78.3152 96.9869C78.4023 97.2093 78.6139 97.4844 78.8243 97.5421C79.8611 97.8266 79.9642 98.0783 79.3115 98.9439C79.2939 98.9671 79.2852 98.997 79.2748 99.0327C79.2641 99.0692 79.2516 99.1119 79.2261 99.1601ZM77.9293 99.2412C77.9453 99.2339 77.9614 99.2268 77.9775 99.2197C78.0444 99.1902 78.1113 99.1608 78.166 99.1165C78.821 98.5869 78.819 98.5851 78.1892 98.0448L78.1561 98.0164C77.9718 97.8582 77.8226 97.6081 77.7595 97.3733C77.6944 97.1309 77.6496 96.8813 77.6049 96.6322C77.5324 96.2286 77.4602 95.8264 77.3022 95.4589C77.1621 95.1329 76.7091 94.8019 76.3474 94.7345C75.6081 94.5966 73.9774 95.9016 73.912 96.6473C73.8238 97.6526 74.1288 98.5087 75.0714 99.0715C75.9561 99.5997 76.8377 99.9048 77.8857 99.2622C77.9 99.2549 77.9146 99.248 77.9293 99.2412Z" fill="#FFB61D"/>
<path fill-rule="evenodd" clip-rule="evenodd" d="M40.1399 86.566C41.6558 85.6026 42.6262 84.3239 42.8284 82.4559C42.8284 82.2903 42.8341 82.1306 42.8397 81.9757C42.8515 81.6438 42.8626 81.3334 42.8152 81.0322C42.7123 80.3784 42.4948 79.7426 41.5834 79.8887C41.1376 79.9602 40.6796 80.1629 40.3043 80.4177C39.5281 80.9448 39.266 81.8169 39.0168 82.6462L38.9945 82.7206C38.6254 83.9462 38.0525 84.8088 36.5849 84.8081C36.3291 84.8079 35.9131 85.2836 35.8478 85.5961C35.6699 86.4474 36.5276 87.3206 37.4496 87.3555C38.4375 87.3929 39.3031 87.0979 40.1399 86.566ZM38.1862 86.62C38.1063 86.6371 38.0264 86.6542 37.9479 86.6744C37.2841 86.7475 36.9676 86.4038 36.6623 86.0723C36.6383 86.0463 36.6143 86.0202 36.5904 85.9946C36.5413 85.9421 36.5674 85.7284 36.6284 85.6846L36.6728 85.6526C36.8654 85.5136 37.0747 85.3625 37.2956 85.3253C38.4122 85.1371 39.0299 84.4939 39.4161 83.4488C39.7413 82.5689 40.2302 81.733 40.7563 80.9498C40.9244 80.6995 41.4504 80.5799 41.7977 80.6048C41.9334 80.6145 42.1193 81.1845 42.1265 81.5027C42.1835 84.0164 40.7723 85.5816 38.6892 86.478C38.5307 86.5462 38.3585 86.5831 38.1862 86.62Z" fill="#FFB61D"/>
<path fill-rule="evenodd" clip-rule="evenodd" d="M41.1443 92.6281C41.4151 91.8169 42.0043 91.2975 42.5856 90.7853C42.7911 90.6041 42.9958 90.4237 43.1849 90.2317C43.5601 89.8508 44.4244 90.3498 44.616 90.9954C44.696 91.2651 44.774 91.5354 44.852 91.8057C45.0486 92.4867 45.2452 93.168 45.4734 93.8385C45.6713 94.4202 45.5894 94.8751 45.1684 95.3303C44.8495 95.675 44.5612 96.0691 44.3511 96.4865C43.8346 97.5128 43.0746 97.7684 41.9217 96.8751C40.3989 95.6952 40.6015 94.2131 41.1443 92.6281ZM44.7531 94.091L44.4966 93.4554C44.2613 92.8723 44.0255 92.2884 43.7915 91.7048C43.7434 91.5851 43.6995 91.4637 43.6556 91.3424C43.6354 91.2866 43.6152 91.2308 43.5946 91.1752C43.5352 91.2033 43.4738 91.2287 43.4124 91.2542C43.2793 91.3094 43.1461 91.3647 43.0329 91.4468C42.1934 92.0557 41.7963 92.9626 41.6204 93.9096C41.4803 94.6639 41.4467 95.5235 42.0519 96.1478C42.3297 96.4344 42.7728 96.6055 43.1724 96.7049C43.2335 96.7201 43.3429 96.5316 43.4589 96.3315C43.5246 96.2181 43.5925 96.101 43.655 96.0153C43.7609 95.8698 43.8708 95.727 43.9807 95.5843C44.1613 95.3498 44.3418 95.1153 44.5044 94.8693C44.6154 94.7013 44.6626 94.4921 44.729 94.1975L44.7531 94.091Z" fill="#FFB61D"/>
<path fill-rule="evenodd" clip-rule="evenodd" d="M60.2444 90.1393C58.8596 89.6205 57.4802 89.934 57.4012 91.7095C57.4848 91.8997 57.5621 92.0899 57.6382 92.2774C57.8543 92.8095 58.0617 93.3203 58.3817 93.7488C59.5363 95.2949 60.9968 95.7594 62.6209 95.1155C63.6535 94.7061 63.6582 93.7706 62.9667 93.1836C62.317 92.632 61.7576 92.0113 61.4137 91.1762C61.2333 90.7383 60.7104 90.3139 60.2444 90.1393ZM61.6227 94.4431C60.8762 94.5777 60.1244 94.7133 59.5322 94.023C58.7963 93.3064 58.2878 92.5791 58.2223 91.6139C58.196 91.2257 58.351 91.0149 58.7179 90.8703C59.2332 90.6673 60.4189 90.9152 60.5332 91.419C60.6953 92.1328 61.1221 92.6499 61.5495 93.1675C61.7182 93.3718 61.887 93.5763 62.0396 93.793C62.1283 93.9189 62.2228 94.1475 62.1664 94.2397C62.0973 94.3525 61.8767 94.3976 61.7134 94.4268L61.6227 94.4431Z" fill="#FFB61D"/>
<path fill-rule="evenodd" clip-rule="evenodd" d="M56.8513 108.312C56.8788 108.146 56.8952 107.981 56.9112 107.819C56.9487 107.44 56.984 107.084 57.1531 106.808C57.591 106.093 57.4887 105.477 57.1296 104.815C57.0944 104.75 57.0751 104.677 57.0558 104.604C57.0372 104.533 57.0186 104.462 56.9856 104.399C56.6938 103.837 56.8307 103.286 57.3404 103.052C57.6987 102.887 58.298 102.939 58.6598 103.132C59.8359 103.761 60.3692 104.875 60.5506 106.132C60.7091 107.23 60.4604 108.297 60.009 109.304C59.4268 110.603 58.2513 110.438 57.5014 109.668C57.2659 109.426 57.1394 109.08 57.0056 108.714C56.957 108.581 56.9074 108.446 56.8513 108.312ZM59.1885 104.706C59.1183 104.636 59.0493 104.565 58.9804 104.494C58.8106 104.319 58.6408 104.145 58.4525 103.992C58.373 103.928 58.2581 103.906 58.1432 103.884C58.091 103.874 58.0389 103.864 57.99 103.851C57.9784 103.905 57.9581 103.964 57.9377 104.023C57.8937 104.15 57.8497 104.278 57.8943 104.355C58.3877 105.217 58.2753 106.011 57.7584 106.822C57.6494 106.993 57.6095 107.207 57.5696 107.421C57.5498 107.528 57.53 107.634 57.5018 107.735C57.3482 108.286 57.7576 109.332 58.2789 109.491L58.3233 109.505C58.6013 109.592 58.9759 109.708 59.1968 109.249C59.9081 107.77 60.1441 106.309 59.1885 104.706Z" fill="#FFB61D"/>
<path fill-rule="evenodd" clip-rule="evenodd" d="M99.6563 90.5959C100.541 90.9809 102.028 90.8523 103.147 89.6343C103.23 89.5083 103.313 89.3853 103.394 89.2639C103.648 88.885 103.891 88.5227 104.097 88.1408C104.611 87.1855 103.72 85.714 102.619 85.736C102.306 85.7422 101.995 85.8009 101.683 85.8597C101.393 85.9144 101.103 85.9691 100.811 85.9816C99.9269 86.0195 99.2261 86.33 98.7325 87.0645C97.8792 88.3344 98.1998 89.9622 99.6563 90.5959ZM101.058 86.9489C101.101 86.9478 101.145 86.9466 101.188 86.9466C101.292 86.9294 101.391 86.9176 101.483 86.9066C101.736 86.8766 101.94 86.8523 102.055 86.7391C102.432 86.3682 102.759 86.5403 103.049 86.766C103.363 87.0101 103.537 87.3096 103.386 87.7859C103.03 88.9097 102.388 89.7382 101.213 90.0372C100.555 90.2046 99.939 90.0437 99.483 89.4797C99.0711 88.9702 99.0079 88.4303 99.3117 87.8529C99.6192 87.2685 100.05 86.8739 100.776 86.9447C100.869 86.9538 100.964 86.9514 101.058 86.9489Z" fill="#FFB61D"/>
<path fill-rule="evenodd" clip-rule="evenodd" d="M84.0378 88.5456C84.9053 87.9781 85.7317 87.942 86.5192 88.5855C86.7422 88.7677 86.9386 89.0016 87.0876 89.2472C87.1531 89.3552 87.1922 89.4827 87.2309 89.609C87.2808 89.7718 87.3301 89.9326 87.4347 90.0469C87.9007 90.5555 87.6093 91.0115 87.2286 91.1979C86.2671 91.6687 85.2526 92.0526 84.2272 92.3692C83.6875 92.5358 82.9665 91.9044 82.8355 91.3005C82.5481 89.9758 83.0906 89.1021 84.0378 88.5456ZM86.4094 90.4167C86.3426 90.3269 86.2767 90.2364 86.2108 90.1459C86.0507 89.9259 85.8903 89.7057 85.7175 89.4959L85.7022 89.4773C85.586 89.3358 85.4371 89.1547 85.2879 89.1386C84.1696 89.018 83.2115 90.297 83.6677 91.2968C83.802 91.5911 84.0774 91.9068 84.4039 91.5615C84.8554 91.0841 85.4133 90.9867 86.0034 90.8837L86.0435 90.8767C86.2066 90.8482 86.3342 90.6209 86.4094 90.4167Z" fill="#FFB61D"/>
<path fill-rule="evenodd" clip-rule="evenodd" d="M81.7166 118.343C81.6936 118.453 81.6695 118.568 81.6319 118.688C81.6377 118.776 81.6617 118.855 81.6845 118.93C81.7067 119.003 81.7278 119.072 81.7294 119.142C81.7681 120.822 83.9864 122.121 85.3707 121.923C86.3382 121.784 86.8678 121.436 87.007 120.554C87.1309 119.769 86.9365 118.91 86.3156 118.409C85.6003 117.832 84.7371 117.398 83.8789 117.041C82.8598 116.617 82.2164 116.956 81.8168 117.968C81.7704 118.085 81.7443 118.211 81.7166 118.343ZM82.7319 118.043C82.7926 117.929 82.8532 117.816 82.9036 117.701C83.0273 117.731 83.1506 117.758 83.2729 117.786C84.4195 118.044 85.4837 118.284 85.9946 119.414C86.2371 119.95 86.5131 120.592 85.8484 121.009C85.5277 121.21 85.0382 121.273 84.6503 121.219C83.6856 121.087 82.3149 120.057 82.4414 118.795C82.4672 118.537 82.5996 118.29 82.7319 118.043Z" fill="#FFB61D"/>
<path fill-rule="evenodd" clip-rule="evenodd" d="M83.3848 101.371C84.5035 101.475 85.3909 101.965 85.5752 103.132C85.6405 103.545 85.9044 103.6 86.1947 103.661C86.237 103.669 86.2797 103.678 86.3226 103.688C86.9651 103.84 87.4754 104.364 87.3744 105.191C87.3012 105.79 86.9903 106.034 86.1235 105.986C85.5434 105.954 84.9349 105.893 84.4004 105.688C82.6704 105.025 82.1747 103.615 82.2967 102.124C82.3425 101.565 82.7601 101.337 83.3848 101.371ZM85.9282 104.365C85.1864 104.412 84.8321 103.972 84.7744 103.331C84.7135 102.654 84.2239 102.438 83.7415 102.225L83.6861 102.2C83.3414 102.047 82.9354 102.445 82.992 102.82C83.2035 104.22 84.8149 105.436 86.2595 105.327C86.7929 105.286 86.7252 105.014 86.5328 104.736C86.4698 104.645 86.3547 104.589 86.218 104.523C86.1279 104.479 86.0284 104.431 85.9282 104.365Z" fill="#FFB61D"/>
<path fill-rule="evenodd" clip-rule="evenodd" d="M69.5183 127.232C69.5207 126.84 69.5229 126.471 69.6917 126.204C70.1034 125.553 70.5997 124.955 71.0961 124.357C71.2982 124.114 71.5003 123.87 71.6967 123.623C72.0345 123.198 72.5585 122.952 72.9858 123.182C73.4199 123.415 73.8411 123.89 74.0066 124.352C74.3998 125.448 73.9039 126.39 73.1621 127.195C72.9517 127.423 72.7133 127.625 72.4746 127.828C72.2865 127.987 72.0983 128.147 71.9236 128.319C70.9544 129.276 70.0906 128.83 69.4994 127.772C69.5161 127.592 69.5172 127.41 69.5183 127.232ZM71.9053 127.499C72.8957 126.855 73.5348 126.018 73.4928 124.776C73.4781 124.341 73.3138 124.052 72.9161 123.869C72.4982 123.676 72.2133 123.935 72.0847 124.215C71.7598 124.922 71.2956 125.525 70.8306 126.13C70.6697 126.339 70.5087 126.548 70.3533 126.762C70.1951 126.98 70.2928 127.505 70.4526 127.791C70.6388 128.123 71.0113 128.067 71.326 127.812C71.4028 127.749 71.4956 127.706 71.6027 127.657C71.6936 127.614 71.7948 127.567 71.9053 127.499Z" fill="#FFB61D"/>
<path fill-rule="evenodd" clip-rule="evenodd" d="M66.1828 119.645C66.6112 118.661 66.6759 117.606 66.4405 116.511C66.4209 116.491 66.4058 116.477 66.3939 116.467C66.3752 116.449 66.3648 116.44 66.3582 116.428C65.8832 115.591 65.3862 115.217 64.8281 115.4C64.1217 115.632 63.8583 116.155 63.8333 116.914C63.8154 117.456 63.5983 117.934 62.8627 118.146C61.7709 118.462 61.8496 119.43 62.5232 119.955C62.7804 120.155 63.1077 120.271 63.4316 120.385C63.5335 120.421 63.635 120.457 63.7339 120.496C64.3534 120.736 65.877 120.346 66.1828 119.645ZM65.7026 116.954C65.7302 117 65.7577 117.046 65.7875 117.089C65.7875 117.333 65.8034 117.568 65.8187 117.793C65.8506 118.263 65.8796 118.69 65.7537 119.067C65.4309 120.032 63.513 120.204 62.9013 119.369C62.8359 119.279 63.018 118.842 63.1434 118.813C64.1574 118.579 64.5338 117.929 64.5685 116.959C64.576 116.749 64.7804 116.497 64.967 116.366C65.0371 116.317 65.3329 116.536 65.4915 116.673C65.5786 116.747 65.6406 116.851 65.7026 116.954Z" fill="#FFB61D"/>
</svg>
