<svg width="154" height="136" viewBox="0 0 154 136" fill="none" xmlns="http://www.w3.org/2000/svg">
<path fill-rule="evenodd" clip-rule="evenodd" d="M90.372 135.957C125.726 135.957 130.738 120.229 136.099 117.339C141.46 114.448 138.127 108.648 141.642 104.273C147.258 97.2851 150.662 100.886 152.521 91.8208C154.379 82.7553 151 80.1906 151 72.0968C151 55.8808 158.768 48.2046 148.848 39.7201C138.928 31.2356 122.362 32.2367 105.978 32.2367C75.5676 32.2367 57.3493 -9.45137 16.789 3.05552C2.81106 7.36567 4.35592 13.2394 7.42728 33.9969C8.76101 43.0108 -1.30915 54.4712 0.438064 64.7146C3.62914 83.423 12.057 80.8852 27.9584 93.5166C30.626 95.6357 34.5169 95.6137 37.4251 97.7871C42.3008 101.431 42.6143 107.097 51.7295 110.918C66.4276 117.08 65.1808 135.957 90.372 135.957Z" fill="#FFB61D"/>
<path d="M31.723 87.6653C31.723 92.3075 27.7211 96.0707 22.7845 96.0707C17.8479 96.0707 13.846 92.3075 13.846 87.6653C13.846 83.0232 17.8479 79.26 22.7845 79.26C27.7211 79.26 31.723 83.0232 31.723 87.6653Z" fill="white"/>
<path fill-rule="evenodd" clip-rule="evenodd" d="M19.2791 57.6967C17.7554 53.8912 19.0864 51.6111 19.9396 48.6347C20.6523 46.1484 26.2256 42.1097 28.7907 46.3209C29.5453 47.5598 29.2426 48.7308 30.8918 49.8196C34.8843 52.4554 32.7063 46.9871 32.8547 45.6047C32.9272 44.9304 32.3574 43.3754 32.5695 42.7246C32.7921 42.0418 33.9783 41.0717 33.9783 39.6563C33.9783 38.2408 31.5654 37.6957 30.8918 37.3479C24.9062 34.2575 21.0995 29.0957 22.9966 26.476C25.6396 22.8261 35.9981 28.5688 39.1106 29.0957C39.1509 29.1025 39.7067 26.2007 40.1607 25.5363C41.0691 24.2069 42.073 22.9164 43.2706 21.8403C43.8071 21.3583 44.5343 21.0607 45.249 20.9643C47.388 20.6757 49.5763 20.439 51.7188 20.7004C52.4759 20.7928 56.9845 15.5747 58.7425 13.8915C72.2304 0.977524 99.2687 16.7145 84.5304 38.0987C81.8215 42.0291 78.3576 43.279 77.9103 44.6681C76.9166 47.7537 83.1721 47.3479 85.8219 47.6775C90.3488 48.2405 92.58 50.566 89.7698 54.5517C88.0191 57.0348 77.749 56.9081 73.2502 55.1126C71.5804 54.4461 69.5168 51.5322 67.9387 53.9225C66.8513 55.5695 62.6118 59.0637 58.0638 61.0403C56.011 61.9324 53.6729 61.3947 51.9211 62.1915C49.4554 63.3129 42.1763 68.0217 39.1106 68.0205C36.023 68.0194 32.0276 64.3038 31.5654 64.0601C30.8609 63.6885 25.4107 62.6239 22.7182 58.4689C21.904 57.2125 19.8369 59.0897 19.2791 57.6967Z" fill="white"/>
<path d="M72.6495 35.6357C72.6495 36.1511 72.2255 36.569 71.7026 36.569C71.1796 36.569 70.7557 36.1511 70.7557 35.6357C70.7557 35.1202 71.1796 34.7023 71.7026 34.7023C72.2255 34.7023 72.6495 35.1202 72.6495 35.6357Z" fill="#FFB61D"/>
<path d="M65.6893 33.6873C65.6893 34.1951 65.2777 34.6067 64.77 34.6067C64.2623 34.6067 63.8507 34.1951 63.8507 33.6873C63.8507 33.1796 64.2623 32.768 64.77 32.768C65.2777 32.768 65.6893 33.1796 65.6893 33.6873Z" fill="#FFB61D"/>
<path d="M144.227 32.8993C144.227 39.79 138.641 45.376 131.75 45.376C124.859 45.376 119.273 39.79 119.273 32.8993C119.273 26.0087 124.859 20.4227 131.75 20.4227C138.641 20.4227 144.227 26.0087 144.227 32.8993Z" fill="white"/>
<path d="M128.992 103.68C128.992 120.794 112.76 134.667 92.7374 134.667C72.7146 134.667 56.4829 120.794 56.4829 103.68C56.4829 86.5667 72.7146 72.6933 92.7374 72.6933C112.76 72.6933 128.992 86.5667 128.992 103.68Z" fill="white"/>
<path fill-rule="evenodd" clip-rule="evenodd" d="M62.0019 120.576L62.4088 120.871C61.4905 121.695 60.1089 120.67 59.3343 119.71C58.0888 118.165 56.8248 116.524 56.4458 114.577C56.2301 113.469 56.3164 112.327 56.4035 111.201L56.7549 106.663C56.9106 104.652 57.0668 102.637 57.4149 100.65C58.3571 95.2731 60.7288 90.1531 64.2211 85.9572L64.2561 85.9151C64.8728 85.1745 65.5463 84.3657 65.5344 83.4055C65.5093 81.3739 66.6792 79.4754 68.2153 78.1456C69.7514 76.8157 71.6324 75.9622 73.4845 75.1269C74.3235 74.7484 75.4192 74.4094 76.0694 75.0608C77.4069 76.4007 79.6391 75.5471 81.4058 74.8666C83.5749 74.0312 85.8917 73.581 88.2158 73.5434L88.4204 73.5404C89.8157 73.5205 91.3863 73.4981 92.2377 72.4169C92.7797 71.7286 93.8162 71.7685 94.6861 71.8725L100.669 72.5882C101.127 72.6429 101.675 72.7676 101.819 73.2051C102.205 74.3777 103.569 74.8562 104.751 75.2126C108.953 76.4797 113.061 78.2001 116.629 80.757C120.197 83.3138 123.212 86.7532 124.812 90.8406C122.211 87.2848 119.542 83.6619 115.931 81.1367C114.898 80.414 113.799 79.7901 112.684 79.2021C110.051 77.8143 107.311 76.618 104.465 75.7492C91.2511 71.716 75.966 75.4566 66.1081 85.136C64.6788 86.5395 63.3386 88.0854 62.528 89.9172L63.5989 90.2494C61.9017 91.008 60.641 92.67 60.3681 94.5089C61.0512 93.3391 62.0247 92.3403 63.1767 91.6274C62.8469 92.7289 61.9894 93.6139 61.1488 94.4814C60.0775 95.5871 59.0336 96.6644 59.1443 98.1254C59.653 96.7905 60.9343 95.7828 62.3515 95.6032C60.1037 97.7996 57.6915 100.377 57.7632 103.519C58.5831 101.705 59.9754 100.154 61.6913 99.1446L59.221 102.464C58.2868 103.72 57.3029 105.154 57.5165 106.705C58.3292 105.246 59.4912 103.984 60.8776 103.053C60.21 104.571 59.2568 105.964 58.0827 107.135C59.1992 107 60.2742 106.538 61.1399 105.82C60.777 106.326 60.45 106.898 60.4378 107.521C60.4255 108.144 60.8293 108.813 61.446 108.903C61.6326 108.485 62.2182 108.309 62.6043 108.554C61.434 109.693 61.4219 111.802 62.5791 112.955C62.682 112.413 63.1388 111.957 63.6803 111.854C62.8171 113.364 62.6619 115.259 63.2681 116.889C63.4515 115.965 63.9638 115.111 64.6917 114.514C64.272 116.704 63.3442 118.795 62.0019 120.576ZM61.4907 119.878C62.2215 119.871 62.676 119.053 62.7523 118.327C62.8435 117.457 62.6274 116.588 62.4131 115.74L61.1418 110.712C60.9026 110.788 60.8748 111.048 60.8457 111.321C60.8208 111.554 60.795 111.795 60.6359 111.939C60.3141 111.539 60.2776 110.933 60.5489 110.497C60.8228 110.057 60.6437 109.44 60.255 109.097C59.8664 108.754 59.3256 108.638 58.8075 108.621C58.5275 108.611 58.2297 108.633 58.0005 108.794C57.7714 108.955 57.6508 109.298 57.8136 109.526C58.2981 110.205 58.6626 110.969 58.8852 111.773C58.9018 111.833 58.9179 111.894 58.9341 111.955C59.0448 112.372 59.1586 112.802 59.4639 113.099C59.6999 113.329 59.76 113.68 59.808 114.006L60.1964 116.648C60.2671 117.129 60.3377 117.619 60.2568 118.099C60.1759 118.578 59.9169 119.053 59.4823 119.271L60.8704 119.743C61.0718 119.811 61.278 119.881 61.4907 119.878ZM76.6214 76.5731C76.3479 76.631 76.1185 76.3906 75.9227 76.1854L75.9002 76.1618C75.6995 75.9521 75.3544 75.7691 75.1429 75.9681C72.6792 78.286 69.8755 80.2419 66.8495 81.7537C66.3003 82.0281 66.2266 82.768 66.2262 83.3819C66.2261 83.587 66.4225 83.8748 66.5504 83.7145C67.1743 82.9327 67.9857 82.3258 68.7876 81.728C71.0441 80.0457 73.3275 78.3476 75.9143 77.2385C76.2281 77.1039 76.5957 76.9136 76.6214 76.5731ZM101.384 73.9663C101.244 73.6387 100.847 73.5205 100.497 73.4546C99.5437 73.2749 98.573 73.1935 97.6034 73.1122C96.2717 73.0005 94.9418 72.8889 93.6603 72.5232C93.2498 72.4061 92.8987 72.8222 92.6736 73.1849C93.3489 73.1146 94.0286 73.0856 94.7074 73.0981C95.889 73.1198 97.0643 73.267 98.237 73.414C98.8329 73.4887 99.433 73.5643 100.004 73.7492C100.071 73.7707 100.138 73.7937 100.205 73.8169C100.596 73.9509 100.999 74.0893 101.384 73.9663Z" fill="#00160A"/>
<path d="M88.7701 79.0025C89.0402 79.0642 89.2974 79.266 89.3378 79.5401C89.378 79.8135 89.1912 80.0799 88.9526 80.2191C88.7139 80.3583 88.4317 80.3973 88.1578 80.4335L87.3333 80.5427C87.2507 80.5537 87.1655 80.5655 87.0937 80.6079C86.8865 80.7307 86.9008 81.0632 87.0703 81.2344C87.2397 81.4055 87.4996 81.4481 87.7405 81.4476C88.8622 81.4455 89.9239 80.6383 90.2665 79.5703C90.3479 79.3167 90.3909 79.0346 90.2902 78.7881C90.2391 78.663 90.1537 78.5545 90.0587 78.4583C89.6176 78.0113 88.9604 77.8143 88.3339 77.8585C87.7074 77.9028 87.1115 78.1696 86.6017 78.5364C86.3573 78.7122 86.1244 78.9181 85.9856 79.1853C85.8468 79.4524 85.8169 79.7915 85.9724 80.0493C86.0316 80.1477 86.1231 80.2348 86.2364 80.2533C86.3498 80.2718 86.4806 80.1987 86.4947 80.0847C86.5338 79.768 86.7649 79.5004 87.0405 79.3394C87.316 79.1783 87.6337 79.1075 87.9466 79.045C88.2183 78.9906 88.5001 78.9409 88.7701 79.0025Z" fill="#00160A"/>
<path d="M66.6656 94.6702C66.9739 92.8472 68.4464 91.3652 70.1629 90.6784C71.1088 90.3 72.1912 90.134 73.1425 90.4986C73.3773 90.5886 73.6045 90.7129 73.7737 90.8989C73.9327 91.0736 74.0327 91.294 74.1081 91.5179C74.5914 92.9513 74.1009 94.6092 73.0626 95.7093C72.0242 96.8095 70.5125 97.3867 69.0036 97.4948C68.5202 97.5295 68.0011 97.5099 67.6019 97.2352C67.2026 96.9605 67.0045 96.3501 67.3119 95.9754C67.4572 95.9824 67.5355 96.1121 67.6157 96.2449C67.6555 96.3106 67.6957 96.3772 67.7447 96.4299C67.9122 96.6103 68.1894 96.6234 68.4354 96.613C69.5053 96.5679 70.5914 96.3028 71.4622 95.6796C72.333 95.0564 72.9588 94.0385 72.9405 92.9679C72.9346 92.6228 72.8596 92.27 72.6641 91.9856C72.3432 91.5189 71.7367 91.3082 71.1715 91.3455C70.6064 91.3828 70.0765 91.6334 69.5954 91.9321C68.9622 92.3251 68.377 92.8191 67.9801 93.4498C67.5831 94.0806 67.3891 94.8603 67.557 95.5864C67.4086 95.854 66.9676 95.8006 66.7854 95.5547C66.6032 95.3089 66.6146 94.9719 66.6656 94.6702Z" fill="#00160A"/>
<path d="M76.519 109.695C75.7362 110.199 75.0872 110.987 74.9665 111.91C74.8689 112.657 75.1191 113.4 75.3658 114.112C75.5582 114.667 75.7572 115.234 76.1238 115.694C76.786 116.523 77.8824 116.867 78.9305 117.035C79.2159 117.081 79.6489 116.952 79.5471 116.682C78.4406 116.661 77.3522 116.148 76.6321 115.308C75.912 114.468 75.5719 113.314 75.7213 112.217C75.7527 111.986 75.8053 111.757 75.9022 111.545C76.0982 111.117 76.4637 110.787 76.8593 110.532C77.7108 109.982 78.7476 109.724 79.7577 109.811C80.7316 109.895 81.7045 110.322 82.299 111.098C82.8935 111.874 83.0352 113.019 82.5106 113.843C82.4253 113.977 82.3631 114.215 82.5195 114.243C83.364 113.788 83.8328 112.784 83.7855 111.826C83.7382 110.868 83.2321 109.971 82.5369 109.31C82.1524 108.944 81.6971 108.635 81.1812 108.511C80.5011 108.347 79.7896 108.516 79.1131 108.694C78.2129 108.931 77.3018 109.191 76.519 109.695Z" fill="#00160A"/>
<path d="M114.963 110.885C112.132 109.828 109.056 109.434 106.051 109.744C104.79 109.873 103.526 110.131 102.393 110.698C100.255 111.768 98.7268 113.97 98.4725 116.347C98.2182 118.724 99.2461 121.2 101.109 122.698C101.816 123.266 102.618 123.692 103.421 124.117C103.969 124.408 104.517 124.699 105.037 125.036C105.185 125.178 104.851 125.319 104.656 125.256C102.841 124.67 101.077 123.779 99.7823 122.378C98.2069 120.674 97.4385 118.253 97.7424 115.953C98.0463 113.652 99.4167 111.514 101.381 110.277C102.934 109.299 104.791 108.887 106.626 108.82C108.46 108.754 110.29 109.016 112.104 109.298C113.237 109.473 114.565 109.81 114.963 110.885Z" fill="#00160A"/>
<path d="M85.1788 114.432C85.0502 114.137 84.5335 114.061 84.4391 114.368C83.8386 116.322 81.9319 117.799 79.8899 117.893C79.4283 117.914 78.9664 117.871 78.5064 117.827C77.5159 117.731 76.4944 117.617 75.627 117.13C74.3796 116.428 73.6291 114.988 73.6202 113.557C73.6114 112.126 74.2901 110.736 75.3207 109.743C75.1778 109.342 74.5635 109.536 74.2585 109.832C72.5682 111.475 72.2782 114.311 73.4642 116.348C74.6503 118.385 77.1358 119.527 79.4788 119.268C81.8218 119.009 83.9371 117.441 85.0264 115.35C85.1748 115.065 85.3073 114.726 85.1788 114.432Z" fill="#00160A"/>
<path d="M70.5066 124.326C70.125 125.79 70.0888 127.343 70.4017 128.823C70.5421 129.486 70.5574 129.852 70.5603 129.92L70.5607 129.93L70.561 129.932C70.561 129.932 70.5613 129.928 70.5617 129.92C70.5648 129.852 70.5814 129.485 70.7249 128.82C71.045 127.337 70.9689 125.771 70.5066 124.326Z" fill="#00160A"/>
<path d="M72.5343 125.212C71.9921 126.348 72.0593 127.755 72.7075 128.834C72.8531 129.077 72.9635 129.274 73.045 129.419C73.1546 129.615 73.2119 129.717 73.2317 129.71C73.2533 129.703 73.2303 129.566 73.1822 129.279C73.1629 129.164 73.1396 129.025 73.1135 128.86L72.5343 125.212Z" fill="#00160A"/>
<path d="M74.0611 126.663C73.831 127.389 74.0003 128.228 74.4938 128.807C74.9978 129.399 75.1624 129.589 75.0088 128.827C74.8521 128.049 74.5265 127.306 74.0611 126.663Z" fill="#00160A"/>
<path d="M118.244 118.409C117.551 121.188 115.34 123.294 113.196 125.193C113.294 125.404 113.61 125.328 113.813 125.214C115.985 123.992 117.743 122 118.544 119.64C119.346 117.28 119.147 114.569 117.881 112.423C117.775 112.242 117.639 112.05 117.434 112.01C117.229 111.97 116.992 112.208 117.113 112.379C118.33 114.102 118.753 116.362 118.244 118.409Z" fill="#00160A"/>
<path d="M87.0193 93.315C87.0142 92.8753 87.0204 92.3995 87.2859 92.049C87.6514 91.5664 88.3449 91.5157 88.9502 91.5073C89.2204 91.5035 89.4938 91.5001 89.7567 91.5626C90.3164 91.6957 90.7622 92.1088 91.1594 92.5249C91.2474 92.6171 91.3411 92.7305 91.3193 92.8561C91.2923 93.0118 91.0973 93.0834 90.9425 93.0516C90.8395 93.0304 90.7472 92.9792 90.6547 92.9279C90.608 92.9021 90.5613 92.8762 90.5132 92.8541C89.9567 92.5987 89.3025 92.8787 88.8026 93.2324C88.724 93.288 88.6393 93.3593 88.6373 93.4556C88.6354 93.5522 88.7182 93.6272 88.7963 93.6843C89.4718 94.1791 90.3367 94.4083 91.1686 94.3128C91.3675 94.29 91.6012 94.2171 91.6528 94.0236C91.673 93.948 91.6652 93.859 91.6576 93.7731C91.6449 93.6294 91.633 93.4942 91.7538 93.4443C91.8167 93.4183 91.8882 93.437 91.9535 93.456C92.4038 93.587 92.9302 93.7975 93.0175 94.2583C93.0427 94.3914 93.0247 94.5302 92.9824 94.6589C92.8584 95.0355 92.5127 95.3297 92.1211 95.392C91.9472 95.4196 91.7697 95.4046 91.5942 95.3895C91.136 95.3502 90.6772 95.3108 90.2232 95.2376C89.3894 95.1033 88.574 94.8549 87.807 94.5014C87.5408 94.3788 87.2642 94.2279 87.1293 93.9677C87.0268 93.7699 87.022 93.5377 87.0193 93.315Z" fill="#00160A"/>
<path d="M104.145 82.4733C103.877 81.749 103.229 81.1774 102.477 81.0013C102.245 80.9469 101.982 80.9335 101.785 81.0683C101.587 81.2031 101.519 81.5318 101.708 81.6791C101.89 81.822 101.78 82.1581 101.557 82.2217C101.334 82.2852 101.094 82.1339 100.983 81.9306C100.872 81.7274 100.86 81.4859 100.858 81.2542C100.857 80.9449 100.885 80.5999 101.113 80.3914C101.2 80.312 101.309 80.2608 101.416 80.2127C101.862 80.0137 102.354 79.8451 102.829 79.9519C103.283 80.0537 103.644 80.3883 103.96 80.7288C104.219 81.0079 104.464 81.3001 104.694 81.6038C104.897 81.8715 105.091 82.157 105.167 82.484C105.243 82.8109 105.178 83.1902 104.925 83.4113C104.678 83.6277 104.298 83.6462 103.998 83.5125C103.732 83.3944 103.506 83.1346 103.526 82.845C103.546 82.5555 103.901 82.3153 104.145 82.4733Z" fill="#00160A"/>
<path fill-rule="evenodd" clip-rule="evenodd" d="M106.536 102.838C107.201 102.819 107.82 102.307 107.964 101.657C108.051 101.263 107.944 100.793 107.6 100.581C107.348 100.425 107.032 100.437 106.737 100.456C106.329 100.482 105.906 100.517 105.551 100.721C105.196 100.925 104.933 101.347 105.044 101.741C105.224 102.381 105.872 102.857 106.536 102.838ZM106.622 101.879C106.493 101.913 106.31 101.88 106.298 101.747C106.294 101.692 106.323 101.64 106.357 101.596C106.546 101.352 106.906 101.257 107.191 101.376C107.092 101.619 106.875 101.81 106.622 101.879Z" fill="#00160A"/>
<path d="M106.965 92.0426C106.857 91.7928 107.067 91.5017 107.322 91.4059C107.526 91.3293 107.747 91.3373 107.967 91.3452C108.022 91.3472 108.077 91.3491 108.131 91.3498C108.403 91.3531 108.704 91.3078 108.881 91.1006C108.943 91.0275 108.985 90.9201 108.938 90.8366C108.888 90.7494 108.771 90.7343 108.671 90.7291C107.977 90.6931 107.157 90.7145 106.757 91.2826C106.671 91.4048 106.461 91.3635 106.38 91.2376C106.3 91.1117 106.318 90.9466 106.364 90.8044C106.528 90.2953 106.998 89.9249 107.512 89.7764C108.026 89.6279 108.578 89.6748 109.1 89.7929C109.275 89.8327 109.458 89.8851 109.586 90.0117C109.688 90.1122 109.745 90.2496 109.783 90.3878C109.96 91.0483 109.698 91.8049 109.149 92.2138C108.601 92.6226 107.801 92.6578 107.219 92.2988C107.115 92.2347 107.014 92.1546 106.965 92.0426Z" fill="#00160A"/>
<path d="M104.586 103.715C104.909 104.101 105.291 104.453 105.753 104.649C106.689 105.046 107.886 104.679 108.438 103.826C108.639 103.515 108.729 103.04 108.431 102.82C107.955 103.821 106.574 104.262 105.605 103.724C105.42 103.621 105.251 103.489 105.098 103.342C104.401 102.675 104.038 101.586 104.446 100.712C104.58 100.428 104.784 100.182 105.008 99.9608C105.496 99.4791 106.194 99.0847 106.846 99.2989C106.873 99.3078 106.9 99.3177 106.927 99.3277C107.018 99.3612 107.109 99.395 107.205 99.3894C107.33 99.3821 107.46 99.2709 107.428 99.1505C107.418 99.1149 107.396 99.084 107.373 99.055C106.971 98.5421 106.18 98.3837 105.611 98.7018C104.934 99.0803 104.245 99.526 103.885 100.213C103.298 101.332 103.777 102.745 104.586 103.715Z" fill="#00160A"/>
<path fill-rule="evenodd" clip-rule="evenodd" d="M115.378 86.458C115.348 86.5007 115.356 86.5602 115.363 86.617C115.371 86.6846 115.379 86.7484 115.324 86.7758C115.121 86.8758 114.878 86.8655 114.662 86.7992C114.072 86.6181 113.676 86.0766 113.342 85.5574C113.147 85.2538 112.953 84.9314 112.921 84.5718C112.89 84.2121 113.074 83.8073 113.42 83.7057C113.806 83.5923 114.185 83.8794 114.485 84.147C114.824 84.4489 115.171 84.7601 115.381 85.1627C115.591 85.5653 115.637 86.0855 115.378 86.458ZM114.095 85.1108C114.178 85.1917 114.224 85.3004 114.269 85.4091C114.314 85.5162 114.359 85.6233 114.44 85.7041C114.543 85.8063 114.698 85.8521 114.84 85.8216C114.575 85.411 114.267 85.0277 113.924 84.6796C113.832 84.7072 113.824 84.8433 113.88 84.9216C113.913 84.9691 113.96 85.0041 114.007 85.0391C114.037 85.0618 114.068 85.0846 114.095 85.1108Z" fill="#00160A"/>
<path d="M63.5813 122.208C63.5486 122.747 63.5899 123.371 64.0211 123.696C64.1649 123.616 64.1551 123.41 64.137 123.247C64.0257 122.239 64.3382 121.269 64.6528 120.291C64.8779 119.592 65.1042 118.889 65.1768 118.167C65.1978 117.958 65.142 117.671 64.9315 117.663C64.774 117.657 64.6724 117.823 64.6089 117.968C64.0197 119.306 63.6701 120.749 63.5813 122.208Z" fill="#00160A"/>
<path d="M105.416 102.774C105.902 102.989 106.442 103.209 106.951 103.054C107.153 102.993 107.334 102.876 107.511 102.76C107.51 103.058 107.254 103.308 106.969 103.393C106.684 103.478 106.377 103.432 106.086 103.369C105.763 103.299 105.368 103.101 105.416 102.774Z" fill="#00160A"/>
<path d="M66.9248 127.613C67.0489 127.392 67.0701 127.13 67.0885 126.877L67.2354 124.862C67.3075 123.874 67.3796 122.881 67.315 121.892C67.3068 121.767 67.2941 121.636 67.2214 121.534C67.1487 121.432 66.9947 121.378 66.8951 121.454C66.8218 121.509 66.8033 121.61 66.7906 121.701C66.6311 122.845 66.5459 123.999 66.5356 125.154C66.5282 125.991 66.5664 126.856 66.9248 127.613Z" fill="#00160A"/>
<path d="M64.7228 125.882C64.5938 125.991 64.3789 125.895 64.3078 125.742C64.2367 125.588 64.2654 125.41 64.2958 125.243C64.6147 123.505 64.9764 121.774 65.3804 120.053C65.3905 120.01 65.4014 119.965 65.4293 119.931C65.5357 119.799 65.7507 119.932 65.8262 120.083C66.0114 120.454 65.9227 120.897 65.83 121.301L64.8341 125.645C64.8143 125.731 64.7907 125.824 64.7228 125.882Z" fill="#00160A"/>
<path d="M68.172 125.959C68.1165 126.611 68.2142 127.265 68.3117 127.913C68.3465 128.143 68.5124 128.449 68.7206 128.345L69.1264 124.006C69.1429 123.829 69.1541 123.633 69.0446 123.494C68.9351 123.354 68.658 123.36 68.623 123.534L68.3238 125.022C68.2614 125.332 68.1989 125.643 68.172 125.959Z" fill="#00160A"/>
<path d="M110.072 112.661C108.916 112.066 107.51 111.832 106.31 112.33C105.414 112.702 102.881 114.309 102.544 116.37C102.318 117.749 102.321 119.158 102.803 120.49L102.881 120.699C103.025 121.076 103.483 121.51 103.739 121.198C102.991 119.846 102.851 118.172 103.365 116.715C103.878 115.258 105.036 114.041 106.466 113.457C106.767 113.334 107.081 113.237 107.405 113.206C108.059 113.144 108.712 113.356 109.297 113.656C110.557 114.302 112.118 115.375 112.717 116.657C113.295 117.893 113.721 119.367 113.198 120.627C112.675 121.888 109.239 122.799 109.239 122.799L109.619 123.493C109.619 123.493 111.542 123.114 112.717 122.258C117.649 118.666 111.177 113.23 110.072 112.661Z" fill="#00160A"/>
<path fill-rule="evenodd" clip-rule="evenodd" d="M22.888 94.9246C21.1438 95.1117 19.2963 94.7082 17.9344 93.6024C16.9698 92.8193 16.2921 91.7299 15.8165 90.5821C15.3002 89.3359 15.0033 87.9991 14.9437 86.6515C14.9212 86.1442 14.9333 85.6275 15.0824 85.142C15.3277 84.3431 15.9186 83.7019 16.5219 83.1234C17.8052 81.8926 19.3136 80.7696 21.0728 80.5108C22.2715 80.3345 23.4909 80.5748 24.6643 80.8768C25.5858 81.114 26.5062 81.3936 27.3351 81.8609C29.1667 82.8936 30.436 84.8633 30.6196 86.958C30.8032 89.0527 30.5773 90.4406 27.7505 93.0431C26.2816 94.0022 24.6323 94.7374 22.888 94.9246ZM25.964 88.3493C25.6811 88.4382 25.3991 88.5962 25.1071 88.5448C24.5104 88.4398 24.4036 87.6212 24.5361 87.0301C24.9154 85.3378 26.095 83.8433 27.6528 83.0813C27.3002 82.4416 26.3634 82.3946 25.7008 82.702C25.0382 83.0095 24.5203 83.5635 23.8795 83.9142C23.5607 84.0887 23.1828 84.2122 22.8359 84.1036C22.2651 83.9248 22.0472 83.1772 22.2341 82.609C22.421 82.0408 22.8873 81.6168 23.3351 81.2203C21.7125 81.2772 20.1068 81.7642 18.726 82.6183C17.645 83.2869 16.6196 84.3833 16.7631 85.6462C17.6568 84.9268 18.7062 84.4017 19.8179 84.1177C20.0536 84.0574 20.3496 84.0271 20.4971 84.2207C20.6089 84.3673 20.5768 84.5781 20.5052 84.748C20.1499 85.5907 19.1049 85.8733 18.4568 86.5186C18.3717 86.6033 18.2901 86.7011 18.2695 86.8194C18.2292 87.0513 18.4501 87.2627 18.6822 87.3014C18.9144 87.3401 19.1474 87.2556 19.3676 87.1726C19.8249 87.0001 20.2822 86.8275 20.7395 86.655C21.0705 86.5301 21.4636 86.4109 21.758 86.6071C22.0625 86.8102 22.0912 87.272 21.9191 87.595C21.747 87.9181 21.431 88.1347 21.127 88.3385C20.3941 88.8297 19.6612 89.3209 18.9283 89.8121C18.3147 90.2234 17.6272 90.7778 17.6856 91.5142C17.7405 92.2074 18.503 92.6784 19.1969 92.6339C19.8908 92.5894 20.5014 92.1651 21.0135 91.6948C21.5257 91.2244 21.9879 90.6874 22.5826 90.3272C22.9707 90.0921 23.5244 89.9615 23.8397 90.2879C24.0832 90.54 24.0597 90.9453 23.9683 91.2837C23.7049 92.2591 22.9926 93.1034 22.0755 93.5273C22.8216 93.6994 23.5997 93.7319 24.3576 93.6226C24.7899 93.5602 25.2374 93.4403 25.5499 93.1353C25.8625 92.8303 25.9835 92.2935 25.7124 91.9512C25.3079 91.4405 25.324 90.6933 25.5824 90.0953C25.8408 89.4973 26.3024 89.0144 26.7545 88.5455C26.6251 88.2786 26.2469 88.2605 25.964 88.3493ZM29.4184 89.5085C29.8247 88.5693 29.8395 87.5071 29.7366 86.489C29.6228 85.363 29.2303 84.0754 28.1695 83.6809C26.6151 84.3261 25.4155 85.7655 25.061 87.4108C25.0313 87.549 25.008 87.6977 25.0623 87.8282C25.1167 87.9588 25.2784 88.054 25.4036 87.9883C25.8334 87.7632 26.362 87.6354 26.7989 87.8464C27.2358 88.0574 27.4485 88.7159 27.0948 89.048C26.7039 89.4148 26.3024 89.7965 26.0915 90.2893C25.8807 90.7821 25.9111 91.4201 26.3081 91.7803C26.6064 92.051 26.6072 92.5824 26.3096 92.8539C27.1557 92.6068 27.7585 91.8794 28.3072 91.1895C28.7266 90.6622 29.1509 90.1269 29.4184 89.5085ZM19.6786 84.6516C18.7985 85.0166 17.9442 85.4438 17.1242 85.929C16.9292 86.0444 16.7321 86.1665 16.5896 86.3426C16.397 86.5804 16.3238 86.8907 16.2644 87.1909C16.0721 88.1605 15.973 89.2044 16.3802 90.1051C16.5102 90.3926 16.6879 90.6556 16.8646 90.917C16.9168 90.9941 16.976 91.0766 17.0655 91.1025C17.1549 91.1285 17.273 91.0564 17.252 90.9657C17.1873 90.6861 17.399 90.423 17.608 90.2263C18.8319 89.0742 20.4808 88.413 21.5814 87.1426C21.4145 86.9448 21.0978 87.0378 20.8597 87.1394C20.2927 87.3815 19.708 87.5822 19.1119 87.7395C18.8044 87.8206 18.4617 87.8866 18.181 87.737C17.7703 87.518 17.7034 86.9189 17.9204 86.5071C18.1373 86.0953 18.5498 85.8295 18.9476 85.5877C19.3453 85.346 19.7626 85.0936 20.0013 84.694C19.9578 84.5803 19.7911 84.6049 19.6786 84.6516ZM22.6907 92.3691C23.0796 92.0566 23.4999 91.688 23.5423 91.1909C23.5645 90.931 23.3977 90.6131 23.138 90.6379C23.0582 90.6455 22.9853 90.685 22.9165 90.7262C21.7855 91.4018 21.0411 92.723 19.7652 93.0515C20.1258 93.2128 20.5017 93.3398 20.8863 93.4301C21.0008 93.457 21.12 93.4807 21.2352 93.4568C21.3692 93.4291 21.4814 93.3407 21.588 93.255C21.9556 92.9597 22.3231 92.6644 22.6907 92.3691ZM23.7425 81.5679C23.4908 81.8463 23.2392 82.1246 22.9875 82.403C22.7881 82.6235 22.5743 82.9144 22.6852 83.1902C22.767 83.3934 23.0084 83.496 23.2267 83.4791C23.4451 83.4622 23.6439 83.3505 23.827 83.2303C24.4795 82.8022 25.067 82.2191 25.8284 82.048C25.3004 81.8556 24.7725 81.6632 24.2446 81.4708C24.1346 81.4308 24.012 81.3907 23.9039 81.4354C23.839 81.4621 23.7896 81.5158 23.7425 81.5679Z" fill="#00160A"/>
<path d="M60.428 37.2944C58.5429 33.1969 57.7565 28.6001 58.1722 24.109C58.1793 24.0322 58.189 23.95 58.2397 23.892C58.3112 23.8101 58.458 23.8135 58.5256 23.8986C58.5015 26.3692 58.4784 28.8546 58.8817 31.2921C59.285 33.7297 60.1414 36.1412 61.7049 38.0542C61.7515 38.1112 61.7987 38.1679 61.8461 38.2247C62.115 38.5472 62.3867 38.873 62.5392 39.2619C61.5225 39.2423 60.853 38.2183 60.428 37.2944Z" fill="#00160A"/>
<path fill-rule="evenodd" clip-rule="evenodd" d="M84.5421 22.782L84.0782 22.1972C83.5677 21.5538 82.9415 20.8513 82.1202 20.8504C81.6435 20.8499 81.2052 21.094 80.7917 21.3311L80.1493 21.6995C79.9739 21.8001 79.7937 21.9048 79.6699 22.0648C79.3131 22.5264 79.5735 23.2008 79.9107 23.6768C80.144 24.0062 80.4238 24.3226 80.795 24.4811C81.2753 24.6862 81.8276 24.5955 82.331 24.4566C83.0203 24.2665 83.6864 23.9923 84.3097 23.6419C84.509 23.5298 84.7293 23.3657 84.7192 23.1373C84.7133 23.0027 84.6258 22.8875 84.5421 22.782ZM80.4889 23.2334C80.409 23.1063 80.3265 22.9705 80.3252 22.8204C80.3227 22.5269 80.6156 22.3299 80.8732 22.1894L81.7889 21.6899C81.9274 21.6144 82.0715 21.5372 82.2288 21.5266C82.3862 21.516 82.5612 21.5917 82.6141 21.7403C82.7702 22.1788 83.155 22.5286 83.6063 22.6423C83.7524 22.6792 83.7994 22.8814 83.7304 23.0154C83.6613 23.1493 83.52 23.2276 83.385 23.2946C82.9023 23.5341 82.3977 23.7294 81.8796 23.8772C81.6719 23.9365 81.4521 23.9883 81.242 23.9384C80.8983 23.8566 80.6768 23.5325 80.4889 23.2334Z" fill="#00160A"/>
<path d="M73.9748 27.7541C73.0666 27.8599 72.8939 29.4973 73.3156 30.3707C73.4024 30.5504 73.5382 30.7354 73.7361 30.7605C74.0746 30.8035 74.2615 30.3859 74.3364 30.0531L74.3382 30.0453C74.4369 29.6067 74.8775 27.649 73.9748 27.7541Z" fill="#00160A"/>
<path d="M69.2911 29.9021C69.4726 29.4785 69.5332 29.0038 69.4638 28.5482C69.4316 28.3365 69.3679 28.1215 69.2264 27.9608C69.085 27.8 68.8512 27.7065 68.6497 27.779C68.4673 27.8446 68.3526 28.023 68.2663 28.1965C67.9616 28.8091 67.8401 29.5114 67.9214 30.1908C67.9593 30.5068 68.3575 30.6795 68.6597 30.5796C68.9619 30.4796 69.1656 30.1947 69.2911 29.9021Z" fill="#00160A"/>
<path d="M71.9683 28.9326C72.1092 28.8158 72.2871 29.028 72.3443 29.2019C72.5323 29.7735 72.688 30.3558 72.8103 30.945C72.8876 31.3173 72.9514 31.7042 72.8691 32.0754C72.753 32.5988 72.3552 33.0246 71.8935 33.2973C71.4319 33.57 70.9064 33.7112 70.3884 33.8493C70.2515 33.8858 70.0795 33.9118 69.9911 33.8012C69.9161 33.7072 69.9531 33.5601 70.0385 33.4755C70.1223 33.3925 70.239 33.3542 70.3512 33.3174L70.3578 33.3152C71.1654 33.0499 72.0284 32.5711 72.2164 31.7421C72.3198 31.2863 72.194 30.8284 72.0677 30.3685C71.9526 29.9497 71.8372 29.5293 71.894 29.1074C71.9026 29.0431 71.9183 28.974 71.9683 28.9326Z" fill="#00160A"/>
<path d="M66.3285 27.068C66.1158 26.7735 66.2861 26.3258 66.5945 26.1337C66.9029 25.9416 67.2927 25.9442 67.653 25.9907C68.0831 26.0463 68.5063 26.1557 68.9095 26.3156C68.9953 26.3497 69.0877 26.393 69.1255 26.4773C69.1955 26.6333 69.0145 26.8041 68.8434 26.804C68.7058 26.8039 68.581 26.7376 68.4576 26.6721C68.4408 26.6631 68.4239 26.6542 68.407 26.6454L68.3928 26.6381L68.3681 26.6256C67.6951 26.2916 66.8026 26.4852 66.3285 27.068Z" fill="#00160A"/>
<path d="M74.0856 26.9666C74.4054 26.9134 74.7446 26.9872 75.0133 27.1686C75.1256 27.2444 75.2865 27.1169 75.2871 26.9814C75.2877 26.8458 75.1867 26.7319 75.0802 26.6481C74.8508 26.4675 74.5651 26.3595 74.2737 26.3431C74.0856 26.3324 73.8774 26.3688 73.7563 26.5131C73.6351 26.6574 73.6717 26.9281 73.8532 26.9784C73.918 26.9963 73.986 26.9842 74.0529 26.9723L74.0856 26.9666Z" fill="#00160A"/>
<path d="M70.116 35.2766C70.206 35.2258 70.3248 35.3145 70.3382 35.417C70.3516 35.5195 70.2931 35.6176 70.2262 35.6964C69.8909 36.0922 69.3131 36.2141 68.8027 36.1213C68.2923 36.0285 67.8349 35.7542 67.4044 35.4647C67.2019 35.3286 67.0025 35.188 66.8063 35.0431C66.603 34.8929 66.3862 34.7091 66.3619 34.4574C66.3375 34.2057 66.6599 33.9521 66.844 34.1254C67.2964 34.5514 67.7591 34.9846 68.3219 35.2482C68.8847 35.5118 69.5747 35.582 70.116 35.2766Z" fill="#00160A"/>
<path d="M66.368 23.1185C66.8794 23.5336 67.4622 23.8606 68.083 24.0807C70.0863 24.7911 72.3375 24.3451 74.2706 23.4615C74.566 23.3265 74.9429 23.3976 75.1687 23.631C73.9274 24.5156 72.4068 25.0018 70.8826 25.0014C70.5464 25.0013 70.2107 24.9783 69.8759 24.9491C69.1908 24.8892 68.5005 24.8014 67.856 24.5615C67.2114 24.3215 66.6097 23.9156 66.2448 23.3326L66.368 23.1185Z" fill="#00160A"/>
<path d="M88.1828 50.1174C88.1629 50.1856 88.2177 50.251 88.2681 50.301L89.0294 51.0563C89.1123 50.8391 89.0192 50.5862 88.8595 50.4171C88.6999 50.248 88.4842 50.1451 88.2739 50.046C88.2327 50.0478 88.1943 50.0779 88.1828 50.1174Z" fill="#00160A"/>
<path d="M62.2769 18.7915C62.2421 18.7538 62.2015 18.7205 62.1544 18.7002C62.0185 18.6415 61.8591 18.7017 61.74 18.7898C61.2655 19.141 61.2637 19.9623 61.7366 20.3157C61.9673 20.1191 62.2041 19.9149 62.3392 19.6437C62.4744 19.3725 62.4826 19.0141 62.2769 18.7915Z" fill="#00160A"/>
<path fill-rule="evenodd" clip-rule="evenodd" d="M33.567 48.3172C33.5011 49.6363 32.4835 51.0647 31.172 50.9086C30.5801 50.2241 30.1169 49.3744 29.659 48.5346C28.7797 46.9219 27.9204 45.3458 26.2084 45.0466C24.5269 44.7528 22.9609 45.9895 21.9136 47.3375C20.3969 49.2898 19.4167 51.6548 19.1077 54.1077C18.9261 55.5497 19.5174 57.5496 20.9622 57.3909C22.6125 57.2096 23.7861 58.5077 24.9798 59.828C26.0847 61.05 27.2067 62.2911 28.7397 62.3958C30.565 62.5204 32.0561 63.614 33.5653 64.7209C34.5734 65.4603 35.5895 66.2056 36.7189 66.6722C38.8435 67.5499 41.2936 67.3802 43.4623 66.6179C45.631 65.8556 47.561 64.5425 49.3877 63.147L49.4835 63.0738C50.4806 62.3112 51.5245 61.5129 52.7644 61.3449C59.1047 60.486 65.0017 56.7671 68.509 51.4159C73.4815 55.3908 80.4338 56.7494 86.5369 54.9388C87.5724 54.6315 88.6146 54.2196 89.3825 53.46C90.1504 52.7005 90.5859 51.521 90.2084 50.5089C89.7957 49.4022 88.562 48.8096 87.3894 48.6671C86.7467 48.589 86.099 48.6121 85.4507 48.6352C84.9163 48.6542 84.3815 48.6733 83.8491 48.6357C80.6253 48.4078 77.9409 46.1843 75.5 44.0662C79.0367 42.9813 81.9043 40.2564 83.7977 37.0783C85.6912 33.9002 86.7059 30.2797 87.4768 26.6616C87.8825 24.7575 88.1839 22.6126 87.0961 20.9981C86.6092 20.2755 85.8953 19.7472 85.1839 19.2207C84.3828 18.6279 83.5849 18.0374 83.118 17.1744C82.2197 15.5146 80.4688 14.5303 78.8081 13.6336C74.462 11.2872 69.4699 8.87216 64.786 10.4392C62.9616 11.0496 61.3855 12.2193 59.8489 13.3769C57.2971 15.2992 54.5635 17.5541 54.0777 20.7118C49.9024 18.8438 44.5008 20.3357 41.876 24.0816C41.2756 24.9385 40.8147 25.8833 40.3543 26.8272C39.8122 27.9385 39.2708 29.0484 38.5032 30.0118C35.4203 28.6071 32.2791 27.3303 29.0904 26.1857C27.6766 25.6783 25.9879 25.2299 24.7695 26.1083C23.7926 26.8127 23.4929 28.1953 23.7797 29.365C24.0665 30.5347 24.832 31.5263 25.6529 32.4075C27.4339 34.3193 29.5732 35.8961 31.9265 37.0315C32.0023 37.068 32.0786 37.1044 32.1552 37.1409C32.8921 37.4919 33.6498 37.8529 34.1404 38.4972C34.6822 39.2086 34.7158 40.3989 33.9563 40.871C32.8346 41.5681 32.6281 43.1325 32.858 44.4331C32.9366 44.8775 33.0519 45.3176 33.1671 45.7572C33.389 46.6041 33.6103 47.4489 33.567 48.3172ZM64.02 55.2718C61.1936 58.2396 57.2163 59.9759 53.1495 60.4834C49.0826 60.991 44.9298 60.3312 41.045 59.0256C42.09 59.0249 42.8456 57.6568 42.2897 56.7719C40.1486 59.2678 36.8846 60.4367 33.7742 61.5041C30.9643 62.4685 27.6056 61.768 25.5416 59.6314C23.4775 57.4947 22.919 53.9887 24.3705 51.3967C25.0014 50.27 26.0716 49.2892 27.3582 49.1787C28.6448 49.0681 30.0301 50.1349 29.9108 51.4207C29.1949 51.2963 28.4414 51.9044 28.412 52.6305C31.1817 52.3321 33.7855 50.745 35.3199 48.42C35.8495 47.6175 36.252 46.7433 36.6548 45.8685C36.9252 45.2811 37.1958 44.6934 37.5052 44.1267C38.2753 42.7162 39.381 41.3715 40.9132 40.8869C42.143 40.4979 43.4724 40.7138 44.7434 40.9329L50.3901 41.9065C50.8127 41.5417 50.1283 40.957 49.5818 40.8428C47.817 40.4741 46.0276 40.2468 44.238 40.0196C42.5785 39.8088 40.9189 39.5981 39.2787 39.2745C35.8696 38.6019 32.4432 37.3716 29.9619 34.9391C31.645 33.9708 32.9256 32.3255 33.451 30.4562C33.5573 30.078 33.304 29.4568 32.9969 29.7017C32.646 30.9152 32.2657 32.1809 31.3866 33.088C30.5074 33.9951 28.9644 34.3936 27.9693 33.6153C26.6776 32.6051 25.3195 31.503 24.8087 29.9447C24.2979 28.3865 25.106 26.2937 26.7347 26.1027C27.4657 26.0169 28.1804 26.319 28.8545 26.6145L35.6558 29.5958C37.68 30.4831 39.7344 31.3793 41.9209 31.7013C43.4562 31.9273 45.0176 31.8639 46.5681 31.7999L50.9637 31.6186C51.1434 31.6112 51.3278 31.6028 51.4932 31.5322C51.9349 31.3438 52.0846 30.8044 52.182 30.3343C53.3616 24.6424 54.9464 18.6356 59.2339 14.7105C61.1524 12.9541 63.5422 11.7174 66.0841 11.1658C68.5897 10.622 71.3542 10.7819 73.5113 12.1676C69.8927 12.434 66.3789 13.9599 63.714 16.4224C62.5943 15.2272 60.5104 16.2041 59.6173 17.577C58.233 19.7052 58.2581 22.6615 59.6785 24.7658C60.8741 26.5371 61.3175 28.6505 61.7619 30.7689C62.1703 32.7158 62.5796 34.6668 63.5744 36.3602C65.1483 39.0391 68.0791 40.7586 71.14 41.2917C74.201 41.8248 77.3743 41.268 80.2834 40.177C77.0275 43.4247 71.8261 44.548 67.52 42.9334C67.2061 42.8157 66.8938 42.6842 66.5812 42.5526C65.5918 42.136 64.599 41.718 63.5378 41.7304C64.1595 42.3888 64.9536 42.883 65.8189 43.1501C64.8212 44.8259 63.7745 46.4725 62.6805 48.087C62.5405 48.2936 62.3811 48.5136 62.1416 48.5835C61.8748 48.6613 61.5961 48.5283 61.3528 48.3939C59.3415 47.2821 57.5386 45.7946 56.0652 44.0309L53.1175 47.6164C54.6302 49.4654 56.3987 51.1048 58.3568 52.4732C55.7506 55.6929 51.8021 57.79 47.6752 58.1463C51.9471 58.3639 56.2718 56.3601 58.8678 52.9606C60.5113 53.8833 62.238 54.6579 64.02 55.2718ZM77.5297 23.7441C78.4737 22.7148 78.8235 21.2446 78.7428 19.8503C78.6622 18.456 78.1932 17.1151 77.6742 15.8185C79.0263 15.6582 80.4001 16.1684 81.4772 17.0014C82.5543 17.8344 83.3633 18.9679 84.0269 20.1569C84.8314 21.5982 85.4481 23.1566 85.7157 24.7854C86.3458 28.6204 85.0005 32.5307 83.0854 35.9126C82.7136 36.5693 82.3134 37.2214 81.7706 37.7457C81.224 38.2736 80.5516 38.6531 79.8624 38.9733C77.0188 40.2945 73.7477 40.6758 70.6764 40.044C72.637 38.4116 74.0216 36.1627 74.9035 33.7688C75.7853 31.3748 76.189 28.8304 76.4213 26.2898L76.4226 26.2756C76.4812 25.6349 76.5428 24.9616 76.9079 24.4326C77.0288 24.2574 77.1784 24.1056 77.3281 23.9536C77.3962 23.8845 77.4643 23.8154 77.5297 23.7441ZM73.9817 34.3258C73.1356 36.3048 71.8248 38.1219 70.048 39.3363C69.8399 39.4786 69.6165 39.6158 69.3662 39.645C69.1451 39.6709 68.9239 39.61 68.7116 39.543C67.2009 39.0662 65.7735 38.2209 64.8043 36.9678C64.4526 36.513 64.1655 36.0114 63.9094 35.4968C62.0439 31.7485 61.8612 27.2009 63.4199 23.315C63.4944 23.1294 63.6009 22.921 63.797 22.882C64.0507 22.8317 64.2455 23.0913 64.3879 23.3071C65.5523 25.0714 67.7295 25.9647 69.8413 26.0572C71.9532 26.1497 74.0306 25.5494 76.0332 24.8726C75.6683 25.765 75.5753 26.7373 75.4832 27.7004C75.4716 27.8217 75.46 27.9428 75.4479 28.0637C75.2332 30.2051 74.8277 32.3469 73.9817 34.3258ZM73.5517 15.9412C74.6324 15.6955 75.8932 15.6279 76.7189 16.3671C76.9856 16.6058 77.1837 16.9121 77.3468 17.2307C78.3695 19.2293 77.9689 21.8616 76.398 23.4655C74.5819 25.3197 71.7076 25.6254 69.1215 25.4053C68.1936 25.3264 67.2393 25.1836 66.4471 24.6939C65.4222 24.0603 64.8152 22.9439 64.2539 21.8776C66.7457 19.0932 69.9081 16.7695 73.5517 15.9412ZM82.2917 49.5539C81.9525 50.4099 81.6103 51.2776 81.4993 52.1917C81.3883 53.1057 81.5327 54.0867 82.0887 54.8206C77.4756 55.0758 72.7877 53.6534 69.0942 50.8776C70.2852 49.1922 71.2258 47.33 71.8755 45.3711C72.1322 44.5974 73.1119 44.2746 73.9072 44.4537C74.6394 44.6186 75.2542 45.0884 75.8538 45.5466C75.9055 45.586 75.957 45.6254 76.0085 45.6645C77.9722 47.1553 80.1361 48.3573 82.2917 49.5539ZM50.0559 61.2443C49.3284 62.0634 48.4589 62.7433 47.5706 63.3846C45.7167 64.7232 43.695 65.9399 41.4416 66.3288C38.1393 66.8987 34.5715 65.4744 32.5696 62.7869L39.7725 60.1C39.9449 60.0357 40.1236 59.9703 40.3073 59.9807C40.4111 59.9866 40.511 60.0164 40.6111 60.0462C40.6777 60.0661 40.7444 60.086 40.8124 60.0988C41.0437 60.1426 41.277 60.1042 41.5113 60.0656C41.657 60.0416 41.8032 60.0175 41.9496 60.0131C42.4887 59.9969 42.9842 60.2433 43.4744 60.4871C43.5989 60.549 43.723 60.6107 43.8474 60.6679C45.7575 61.5463 47.9597 61.4041 50.0559 61.2443ZM39.6558 30.4259C39.605 30.3124 39.6585 30.1818 39.7121 30.0695C41.1872 26.9802 43.1386 24.1188 45.4761 21.6176C47.1203 23.9006 48.2146 26.5768 48.641 29.3577C48.7263 29.9136 48.6341 30.6823 48.076 30.7519C45.4012 31.0853 42.6794 31.04 40.0171 30.6177C39.8763 30.5954 39.7139 30.556 39.6558 30.4259ZM49.7304 30.2354C49.1796 27.2075 48.0362 24.2885 46.3839 21.6921C47.7824 20.9558 49.4357 20.9438 51.0162 20.9487C52.0144 20.9518 53.104 20.987 53.8647 21.6333L51.8915 27.4554C51.5565 28.4438 51.2173 29.4599 51.2595 30.5027L50.0123 30.5227C49.9678 30.5234 49.9219 30.5239 49.881 30.5067C49.7812 30.4651 49.7497 30.3418 49.7304 30.2354ZM65.7789 45.1348C66.1102 44.5711 66.4259 43.9691 66.4594 43.3162C67.9517 43.9873 69.5951 44.3199 71.2309 44.2818C71.4877 44.2758 71.4785 44.6717 71.3733 44.906C71.0547 45.6149 70.7358 46.3246 70.3672 47.0088C69.9889 47.7111 69.5594 48.3843 69.1304 49.0568L68.102 50.6688C67.9612 50.8895 67.8159 51.1151 67.6067 51.2723C67.0453 51.6943 66.2441 51.4914 65.6035 51.2036C64.5408 50.7262 63.5628 50.0613 62.7279 49.2489C63.8874 47.9912 64.9121 46.6094 65.7789 45.1348ZM27.189 46.5276C27.6834 47.0261 28.0065 47.665 28.3216 48.2925L26.8383 48.5041C26.344 48.5746 25.8373 48.6491 25.4004 48.8908C24.9754 49.1259 24.6477 49.5029 24.3592 49.8937C23.1528 51.528 22.4842 53.5526 22.48 55.584C22.4785 56.3177 21.6113 56.8411 20.9016 56.6551C20.1918 56.4691 19.7097 55.7641 19.587 55.0407C19.4643 54.3174 19.6371 53.5777 19.8538 52.8767C20.6164 50.4099 21.9805 48.0802 23.9988 46.4698C24.3844 46.1621 24.8105 45.8741 25.2976 45.7962C25.9909 45.6854 26.6945 46.0291 27.189 46.5276ZM89.4786 50.657C89.6502 50.8774 89.7772 51.1459 89.7695 51.4251C89.7595 51.786 89.5308 52.1024 89.2845 52.3663C87.8527 53.9008 85.652 54.4232 83.5678 54.6695C83.4303 54.6857 83.2863 54.7003 83.1574 54.6499C83.0515 54.6085 82.9666 54.527 82.891 54.442C82.3882 53.8764 82.1889 53.0859 82.2297 52.3303C82.2705 51.5747 82.5314 50.8469 82.856 50.1633C82.9244 50.0193 83.0036 49.8682 83.1431 49.791C83.2543 49.7294 83.3871 49.7246 83.5142 49.7212L86.0366 49.6551C86.6577 49.6388 87.2856 49.6231 87.8935 49.7512C88.5015 49.8792 89.0969 50.1667 89.4786 50.657ZM61.366 26.8229C60.3382 24.9185 59.5692 22.8745 59.0869 20.7649L59.5021 19.6558C60.0159 18.6612 60.6635 17.7359 61.4219 16.9127C61.7309 16.5774 62.2663 16.5403 62.6926 16.7019C63.1189 16.8634 63.4619 17.1847 63.7929 17.4982L65.2821 18.9091C65.3264 18.9511 65.3727 18.9964 65.3874 19.0556C65.4152 19.167 65.3231 19.269 65.2399 19.3481C64.5425 20.0112 63.9229 20.7588 63.426 21.5829C62.675 22.8285 62.2165 24.2244 61.764 25.6067L61.366 26.8229ZM65.1722 16.1267C68.2045 14.5027 71.5211 12.9745 74.9414 13.34C76.7295 13.531 78.4401 14.2424 79.9295 15.2501C75.6627 14.1534 70.9066 15.165 67.4557 17.9035C66.9223 18.3267 66.122 18.7864 65.6471 18.2985C65.5252 18.1732 65.4455 17.9976 65.3678 17.8266C65.2434 17.5526 65.1242 17.2903 64.8454 17.2646C64.5795 17.2401 64.4612 16.8794 64.574 16.6373C64.6868 16.3952 64.9368 16.2528 65.1722 16.1267ZM56.8423 45.8307C57.4407 46.4058 58.0998 46.9135 58.7574 47.4199L61.414 49.466C60.5959 50.1869 59.7955 50.9279 59.0137 51.6881C57.1524 50.5849 55.4911 49.1456 54.1341 47.4606C54.8769 46.6868 55.59 45.8845 56.2712 45.056C56.3782 45.3617 56.6087 45.6063 56.8423 45.8307ZM39.7614 40.2964C38.3626 41.3892 36.9164 42.5396 36.147 44.1392C35.9967 44.4518 35.8725 44.7807 35.7485 45.1091C35.4849 45.8073 35.2222 46.5031 34.7111 47.0344C34.4846 46.9679 34.3955 46.7009 34.3403 46.4713L33.808 44.2573C33.7362 43.9586 33.6639 43.6516 33.7047 43.3471C33.7453 43.044 33.8947 42.7679 34.0416 42.4996L35.6033 39.6456C35.6381 39.582 35.6742 39.5167 35.73 39.4704C35.8682 39.3556 36.0726 39.3922 36.247 39.4349L39.7614 40.2964ZM62.4855 50.1006C63.4394 51.0814 64.6249 51.8354 65.9176 52.2833C66.1594 52.0559 66.6266 52.1813 66.722 52.4993C66.2772 53.0764 65.7888 53.6201 65.2624 54.124C65.0273 54.349 64.6507 54.3015 64.3335 54.2287C62.7843 53.8731 61.292 53.2705 59.9302 52.4506C59.8391 52.3957 59.7366 52.3177 59.7456 52.2117C59.7517 52.1405 59.8078 52.0851 59.8605 52.0366L61.7724 50.2757C61.9729 50.0911 62.2955 49.9053 62.4855 50.1006ZM86.8961 25.5018C86.8784 25.7176 86.848 25.9584 86.6793 26.0941C86.6779 24.3992 86.2576 22.7062 85.4661 21.2074C85.3226 20.9355 85.167 20.6698 84.9938 20.4158L84.9523 20.3553L84.9264 20.3178C84.7517 20.0657 84.5729 19.8076 84.5305 19.5066L86.5792 21.6468C86.7677 21.8437 86.9615 22.0491 87.0506 22.3068C87.1366 22.5552 87.1161 22.8261 87.0946 23.0881L86.8961 25.5018Z" fill="#00160A"/>
<path fill-rule="evenodd" clip-rule="evenodd" d="M138.172 20.7357C139.104 21.0589 139.982 20.2179 140.786 19.645C142.029 18.7585 143.651 18.4233 145.144 18.7443C145.392 18.7976 145.651 18.8775 145.815 19.0713C145.964 19.2486 146.006 19.4903 146.03 19.7207C146.177 21.131 145.825 22.5884 145.049 23.7754C144.672 24.3529 144.199 24.8671 143.862 25.4688C143.524 26.0705 143.332 26.8055 143.572 27.4521C145.001 31.2963 144.406 35.8304 142.034 39.1759C139.662 42.5214 135.58 44.5829 131.479 44.5062C129.382 44.467 127.328 43.9073 125.352 43.2034C124.49 42.8963 123.542 42.5594 122.687 42.8837C121.125 43.4754 119.481 43.8491 117.817 43.9905C117.405 44.0255 116.973 44.0436 116.592 43.8806C116.022 43.6366 115.678 43.0182 115.612 42.4014C115.547 41.7846 115.717 41.1672 115.933 40.5855C116.582 38.8309 118.599 36.0899 119.82 35.4585C119.722 33.3278 119.732 31.1722 120.193 29.0895C120.654 27.0069 121.594 24.986 123.136 23.5124C123.773 22.9037 124.502 22.3971 125.265 21.9575C129.127 19.7341 133.961 19.2765 138.172 20.7357ZM132.291 20.5627C129.338 20.6318 126.463 21.8181 124.154 23.661C123.477 24.2021 122.84 24.8032 122.331 25.5056C121.93 26.0593 121.613 26.6703 121.348 27.3006C119.775 31.0402 120.134 35.5333 122.281 38.9759C122.327 39.051 122.381 39.1305 122.464 39.1597C122.567 39.1957 122.678 39.1432 122.775 39.0919C129.515 35.4999 135.515 30.5249 140.293 24.566C140.406 24.4241 140.526 24.2593 140.501 24.079C140.483 23.9438 140.387 23.834 140.292 23.7353C138.254 21.5977 135.244 20.4936 132.291 20.5627ZM136.419 42.8871C139.621 41.3841 142.052 38.414 143.092 35.0335C143.328 34.2681 143.497 33.4768 143.514 32.6761C143.528 32.0027 143.434 31.3323 143.34 30.6654C143.204 29.6984 143.068 28.7315 142.932 27.7646C142.896 27.5082 142.649 27.1698 142.469 27.3555C137.46 32.5105 131.99 37.2178 126.146 41.4029C125.951 41.5422 125.737 41.7144 125.727 41.9534C125.715 42.2299 125.979 42.4306 126.218 42.5689C129.282 44.3357 133.218 44.3902 136.419 42.8871ZM116.671 42.4936C116.904 42.8671 117.409 42.9436 117.849 42.9558C120.158 43.0197 122.442 42.3432 124.508 41.31C126.573 40.2768 128.443 38.8947 130.259 37.4688C132.683 35.5669 135.033 33.5737 137.325 31.5145C140.162 28.9643 142.95 26.2593 144.813 22.9301C145.173 22.2861 145.506 21.5799 145.449 20.8441C145.393 20.1083 144.806 19.3655 144.069 19.3942C142.504 19.4553 140.965 20.0569 139.774 21.0736C139.537 21.2757 139.705 21.7061 139.996 21.8156C140.288 21.925 140.613 21.8163 140.898 21.6905C141.183 21.5648 141.479 21.4177 141.789 21.4521C142.262 21.5047 142.598 21.9888 142.626 22.4637C142.654 22.9386 142.444 23.3951 142.196 23.8015C141.738 24.5535 141.14 25.209 140.536 25.8493C135.163 31.5411 128.966 36.4528 122.198 40.3832C121.588 40.7372 120.972 41.0845 120.316 41.3423C119.971 41.4776 119.577 41.5862 119.241 41.4315C118.691 41.1779 118.646 40.4048 118.812 39.8215C119.06 38.9457 119.596 38.154 120.317 37.5984C120.18 37.2137 120.043 36.8289 119.907 36.4442C118.127 37.581 116.878 39.5145 116.574 41.6042C116.53 41.9057 116.51 42.235 116.671 42.4936ZM121.732 39.8534C121.744 39.8137 121.721 39.7724 121.699 39.7371C121.469 39.3718 121.239 39.0065 121.009 38.6412C120.905 38.476 120.704 38.2888 120.548 38.4063C119.986 38.8295 119.584 39.4599 119.436 40.1479C119.407 40.2836 119.391 40.4352 119.464 40.5527C119.602 40.7713 119.931 40.7226 120.174 40.6355C120.692 40.4498 121.191 40.211 121.661 39.924C121.69 39.9063 121.721 39.8858 121.732 39.8534ZM141.731 22.4648C141.708 22.3699 141.595 22.3287 141.498 22.3244C141.201 22.3115 140.892 22.555 140.911 22.8509C140.929 23.1468 141.369 23.3332 141.553 23.1005C141.609 23.0303 141.632 22.9407 141.654 22.854C141.676 22.768 141.698 22.6821 141.72 22.5962C141.731 22.5531 141.742 22.508 141.731 22.4648Z" fill="#00160A"/>
</svg>
