<svg width="149" height="144" viewBox="0 0 149 144" fill="none" xmlns="http://www.w3.org/2000/svg">
<path d="M106.246 26.2572C106.257 26.4498 106.242 26.6458 106.194 26.8405L101.876 44.1115C101.659 44.9816 100.879 45.5934 99.9822 45.5981L74.0756 45.729C74.0722 45.729 74.0691 45.729 74.0657 45.729H48.1589C47.2576 45.729 46.4723 45.1151 46.2546 44.2405L41.9369 26.9041C41.8871 26.7042 41.8727 26.5027 41.8853 26.3051C40.215 25.7788 39 24.2158 39 22.3738C39 20.1011 40.8488 18.2523 43.1215 18.2523C45.3942 18.2523 47.243 20.1011 47.243 22.3738C47.243 23.6537 46.6566 24.7988 45.7383 25.5554L51.1441 31.002C52.5104 32.3787 54.4063 33.168 56.3459 33.168C58.6393 33.168 60.8259 32.0788 62.2028 30.2541L71.087 18.4826C70.3406 17.7368 69.8785 16.7063 69.8785 15.5701C69.8785 13.2974 71.7273 11.4486 74 11.4486C76.2727 11.4486 78.1215 13.2974 78.1215 15.5701C78.1215 16.6723 77.684 17.6727 76.9766 18.413C76.979 18.4162 76.9819 18.4188 76.9842 18.4222L85.804 30.2261C87.1804 32.0684 89.3749 33.1682 91.6748 33.1682C93.6322 33.1682 95.4729 32.4059 96.8569 31.0217L102.297 25.5818C101.359 24.8255 100.757 23.6694 100.757 22.3738C100.757 20.1011 102.606 18.2523 104.879 18.2523C107.151 18.2523 109 20.1011 109 22.3738C109 24.1666 107.847 25.6914 106.246 26.2572ZM101.455 51.8785C101.455 50.7946 100.576 49.9159 99.4923 49.9159H48.7259C47.6421 49.9159 46.7633 50.7946 46.7633 51.8785V56.5888C46.7633 57.6727 47.6421 58.5514 48.7259 58.5514H99.4923C100.576 58.5514 101.455 57.6727 101.455 56.5888V51.8785Z" fill="#FFB61D"/>
<path d="M19.2908 94.432L15.1308 98.72V108H5.14675V71.2H15.1308V86.88L30.1068 71.2H41.2428L25.9468 87.584L42.0748 108H30.2988L19.2908 94.432ZM46.5843 71.2H56.6963V108H46.5843V71.2ZM101.659 71.2V108H93.3393L76.3793 87.712V108H66.4593V71.2H74.7793L91.7393 91.552V71.2H101.659ZM135.714 89.12H144.93V104.032C142.924 105.525 140.556 106.677 137.826 107.488C135.095 108.299 132.407 108.704 129.762 108.704C125.708 108.704 122.082 107.893 118.882 106.272C115.724 104.608 113.25 102.325 111.458 99.424C109.708 96.5227 108.834 93.2587 108.834 89.632C108.834 86.0053 109.73 82.7413 111.522 79.84C113.314 76.896 115.788 74.6133 118.946 72.992C122.146 71.328 125.73 70.496 129.698 70.496C136.78 70.496 142.135 72.6933 145.762 77.088L139.106 83.04C136.674 80.1813 133.58 78.752 129.826 78.752C126.668 78.752 124.066 79.7547 122.018 81.76C120.012 83.7653 119.01 86.3893 119.01 89.632C119.01 92.832 120.012 95.4347 122.018 97.44C124.066 99.4453 126.711 100.448 129.954 100.448C132.002 100.448 133.922 100.064 135.714 99.296V89.12Z" fill="#FFB61D"/>
<rect x="4" y="119" width="140" height="25" fill="#FFB61D"/>
<path d="M55.2527 127.2V137H53.8527V132.632H48.2247V137H46.8247V127.2H48.2247V131.414H53.8527V127.2H55.2527ZM64.71 137.112C63.7207 137.112 62.8293 136.897 62.036 136.468C61.2427 136.029 60.6173 135.427 60.16 134.662C59.712 133.897 59.488 133.043 59.488 132.1C59.488 131.157 59.712 130.303 60.16 129.538C60.6173 128.773 61.2427 128.175 62.036 127.746C62.8293 127.307 63.7207 127.088 64.71 127.088C65.69 127.088 66.5767 127.307 67.37 127.746C68.1633 128.175 68.784 128.773 69.232 129.538C69.68 130.294 69.904 131.148 69.904 132.1C69.904 133.052 69.68 133.911 69.232 134.676C68.784 135.432 68.1633 136.029 67.37 136.468C66.5767 136.897 65.69 137.112 64.71 137.112ZM64.71 135.866C65.4287 135.866 66.0727 135.703 66.642 135.376C67.2207 135.049 67.6733 134.601 68 134.032C68.336 133.453 68.504 132.809 68.504 132.1C68.504 131.391 68.336 130.751 68 130.182C67.6733 129.603 67.2207 129.151 66.642 128.824C66.0727 128.497 65.4287 128.334 64.71 128.334C63.9913 128.334 63.338 128.497 62.75 128.824C62.1713 129.151 61.714 129.603 61.378 130.182C61.0513 130.751 60.888 131.391 60.888 132.1C60.888 132.809 61.0513 133.453 61.378 134.032C61.714 134.601 62.1713 135.049 62.75 135.376C63.338 135.703 63.9913 135.866 64.71 135.866ZM75.9531 128.418H72.5931V127.2H80.6991V128.418H77.3391V137H75.9531V128.418ZM91.4359 135.782V137H84.3239V127.2H91.2399V128.418H85.7239V131.428H90.6379V132.618H85.7239V135.782H91.4359ZM95.8028 127.2H97.2028V135.782H102.509V137H95.8028V127.2Z" fill="black"/>
</svg>
