<svg width="279" height="251" viewBox="0 0 279 251" fill="none" xmlns="http://www.w3.org/2000/svg">
<path fill-rule="evenodd" clip-rule="evenodd" d="M37.2286 199.717C-2.74364 171.987 45.129 135.241 33.4348 91.302C21.7405 47.363 -6.58692 -18.1508 105.168 5.19349C218.398 28.8461 290.213 59.3026 273.241 153.642C256.27 247.982 77.2008 227.447 37.2286 199.717Z" fill="#FFB61D"/>
<path fill-rule="evenodd" clip-rule="evenodd" d="M210.723 237.701C208.217 235.203 207.03 231.709 205.922 228.347C203.02 232.55 196.541 232.685 192.092 230.177C187.643 227.67 184.64 223.291 181.446 219.306C175.726 212.172 151.225 194.554 150.822 189.239C150.609 186.42 158.807 181.288 158.807 181.288L144.075 172.621C144.075 172.621 136.435 178.482 132.042 179.178C119.821 181.116 111.178 179.963 111.167 182.162C111.13 190.12 159.278 230.494 143.924 230.177C120.881 229.702 78.7952 184.852 65.1623 181.288C59.4531 179.795 20.2949 182.162 20.2949 172.684C20.2949 159.953 55.2711 151.195 55.2711 151.195C55.2711 151.195 46.1553 120.455 57.1884 95.3178C59.7153 89.5607 62.8439 82.8718 63.1487 77.2154C63.2324 75.6636 107.342 33.8821 113.009 31.7948C126.222 26.928 140.276 24.356 154.356 24.2281C156.233 24.211 209.751 31.7948 233.817 71.5181C238.166 78.697 257.923 132.01 237.864 165.453C234.699 170.729 235.087 177.277 237.275 183.085C239.463 188.894 242.153 195.355 239.673 201.045C238.32 191.928 235.942 182.964 232.599 174.375C227.938 177.764 230.298 185.056 233.077 190.105C236.579 196.467 240.081 202.829 243.583 209.192C245.039 211.838 246.545 214.754 246.021 217.728C245.422 221.13 242.391 223.483 239.583 225.495C233.174 230.088 226.764 234.681 220.355 239.274C217.478 241.336 213.23 240.2 210.723 237.701Z" fill="white"/>
<path fill-rule="evenodd" clip-rule="evenodd" d="M124.14 96.9181C124.631 95.5892 126.398 95.0405 127.702 95.5943C129.006 96.148 129.815 97.5327 130.02 98.9344C130.224 100.336 129.914 101.761 129.515 103.12C129.151 104.36 128.712 105.577 128.201 106.763C128.153 106.873 128.089 106.997 127.972 107.023C127.848 107.051 127.733 106.954 127.643 106.863C125.427 104.618 124.092 101.527 123.976 98.3756C123.957 97.8837 123.97 97.3797 124.14 96.9181ZM127.97 97.2423C127.607 96.9306 127.137 96.7265 126.659 96.741C125.542 96.7749 124.762 97.9937 124.787 99.1112C124.812 100.229 125.407 101.243 125.985 102.2C126.398 102.885 126.812 103.571 127.226 104.256C127.367 104.489 127.645 104.756 127.864 104.594C127.953 104.529 127.987 104.415 128.016 104.309C128.185 103.686 128.355 103.063 128.524 102.441C128.766 101.551 129.01 100.646 128.995 99.7239C128.98 98.8016 128.671 97.8426 127.97 97.2423Z" fill="#FFB61D"/>
<path fill-rule="evenodd" clip-rule="evenodd" d="M127.239 100.82C126.967 100.896 126.67 100.882 126.407 100.779C125.895 100.58 125.542 100.032 125.572 99.4843C125.602 98.9364 126.012 98.4301 126.541 98.2871C127.344 98.0705 128.248 98.81 128.194 99.6395C128.16 100.178 127.759 100.673 127.239 100.82Z" fill="#FFB61D"/>
<path fill-rule="evenodd" clip-rule="evenodd" d="M141.867 231.074C142.784 231.195 142.445 232.617 141.851 233.325C136.171 240.087 128.755 245.378 120.514 248.549C118.666 249.26 116.754 249.871 114.779 250.007C111.115 250.259 107.465 248.829 104.568 246.572C101.671 244.315 99.4633 241.282 97.6642 238.08C92.7443 229.325 90.6817 218.994 91.8627 209.021C91.9739 208.083 92.614 206.838 93.4787 207.219C93.2282 210.553 93.1893 213.904 93.3625 217.243C93.5326 220.523 93.9112 223.812 94.8531 226.958C95.7251 229.871 97.0667 232.619 98.4655 235.319C99.9034 238.094 101.427 240.861 103.503 243.197C105.58 245.533 108.275 247.432 111.341 248.037C115.185 248.797 119.131 247.472 122.675 245.801C130.025 242.336 136.618 237.277 141.867 231.074Z" fill="#00160A"/>
<path fill-rule="evenodd" clip-rule="evenodd" d="M168.459 193.072C175.134 186.505 181.809 179.938 188.484 173.371C188.857 173.003 189.411 172.611 189.853 172.893C190.442 173.269 189.971 174.174 189.474 174.665C182.289 181.771 175.105 188.876 167.92 195.981C167.403 195.719 167.252 195.01 167.435 194.459C167.617 193.908 168.045 193.479 168.459 193.072Z" fill="#00160A"/>
<path fill-rule="evenodd" clip-rule="evenodd" d="M117.358 155.303C116.951 155.373 116.544 155.443 116.137 155.514C115.348 154.328 114.539 153.098 114.291 151.696C114.043 150.293 114.508 148.661 115.753 147.969C117.161 147.186 117.586 145.26 117.137 143.712C116.688 142.164 115.577 140.91 114.488 139.722C113.382 138.515 111.608 137.234 110.295 138.211C109.439 138.849 108.158 138.488 107.392 137.745C106.625 137.003 106.22 135.976 105.725 135.031C104.787 133.243 103.421 131.63 101.633 130.693C99.8446 129.755 97.6066 129.569 95.807 130.484C94.0217 131.392 92.8957 133.198 91.3739 134.5C89.852 135.802 87.339 136.493 85.9678 135.033C85.6192 134.662 85.3853 134.111 85.5834 133.642C85.7815 133.173 86.551 133.012 86.7965 133.458C87.4224 134.595 89.1518 134.579 90.2334 133.862C91.315 133.144 91.9918 131.972 92.8791 131.025C94.6147 129.172 97.2526 128.208 99.7737 128.504C102.295 128.8 104.637 130.35 105.896 132.554C106.503 133.616 106.877 134.824 107.669 135.756C108.461 136.688 109.9 137.259 110.916 136.578C112.064 135.809 113.561 136.765 114.568 137.711C115.931 138.991 117.259 140.374 118.026 142.079C118.794 143.784 118.915 145.882 117.912 147.459C117.077 148.773 115.48 149.837 115.618 151.387C115.747 152.833 117.411 153.852 117.358 155.303Z" fill="#00160A"/>
<path fill-rule="evenodd" clip-rule="evenodd" d="M134.979 90.2096C137.423 91.3537 139.597 93.1835 140.853 95.5716C142.109 97.9596 142.365 100.925 141.238 103.377C138.909 108.45 131.5 110.424 130.683 115.946C130.475 117.353 130.758 118.815 130.41 120.193C130.17 121.146 129.644 121.996 129.223 122.884C128.32 124.789 127.894 126.917 127.993 129.023C127.051 129.532 125.944 128.447 125.824 127.383C125.704 126.319 126.13 125.262 126.107 124.192C126.064 122.179 124.507 120.578 123.179 119.065C121.188 116.796 119.457 114.124 119.133 111.123C119.029 110.156 119.073 109.169 118.856 108.221C118.622 107.201 118.098 106.277 117.634 105.338C116.385 102.808 115.54 99.8881 116.309 97.1732C117.078 94.4584 119.944 92.2124 122.665 92.9595C123.438 93.1718 124.195 93.6054 124.987 93.4871C126.38 93.2794 126.941 91.6185 127.912 90.5987C129.652 88.7707 132.693 89.1395 134.979 90.2096ZM123.146 116.592C124.689 118.622 126.232 120.652 127.775 122.682C129.544 120.818 128.812 117.804 129.35 115.291C130.083 111.868 133.145 109.544 135.798 107.26C138.451 104.976 141.086 101.851 140.49 98.4011C140.011 95.6292 137.592 93.6592 135.273 92.0676C133.965 91.1701 132.456 90.2676 130.896 90.556C129.319 90.8476 128.239 92.2457 127.103 93.3774C125.967 94.5091 124.254 95.4922 122.832 94.7506C120.831 93.707 118.283 95.4874 117.719 97.6723C117.154 99.8573 117.966 102.143 118.857 104.216C119.749 106.29 120.754 108.439 120.585 110.689C120.42 112.879 121.817 114.844 123.146 116.592Z" fill="#00160A"/>
<path fill-rule="evenodd" clip-rule="evenodd" d="M0.0696126 69.9649C-0.0305611 69.6935 0.445283 69.6171 0.700409 69.7535C0.689425 70.0357 0.255524 70.1784 0.0791815 69.9577L0.0696126 69.9649Z" fill="#00160A"/>
<path fill-rule="evenodd" clip-rule="evenodd" d="M185.134 181.136C185.657 181.209 185.936 181.854 185.817 182.369C185.698 182.884 185.31 183.288 184.938 183.664C181.931 186.704 178.924 189.743 175.916 192.783C175.694 193.007 175.434 193.248 175.118 193.238C174.694 193.224 174.416 192.734 174.468 192.312C174.52 191.891 174.797 191.537 175.065 191.208C177.83 187.825 180.831 184.634 184.039 181.667C184.347 181.381 184.718 181.078 185.134 181.136Z" fill="#00160A"/>
<path fill-rule="evenodd" clip-rule="evenodd" d="M96.7133 137.179C98.3701 137.329 99.6442 138.886 99.9286 140.525C100.213 142.164 99.702 143.84 99.0089 145.352C98.627 146.185 98.1881 146.992 97.6962 147.766C97.3424 148.322 96.8918 148.907 96.2411 149.015C95.1549 149.195 94.3921 148 93.973 146.982C93.3831 145.548 92.8418 144.095 92.3504 142.626C92.1091 141.904 91.877 141.145 92.0003 140.394C92.1889 139.246 93.1643 138.387 94.1864 137.832C94.9622 137.41 95.834 137.099 96.7133 137.179ZM95.1568 145.619C95.284 145.817 95.4193 146.02 95.6185 146.146C95.7818 146.249 95.9821 146.292 96.1734 146.266C96.6662 146.197 96.9829 145.723 97.2345 145.294C97.8932 144.17 98.5693 142.992 98.6434 141.692C98.7175 140.392 97.9789 138.946 96.7048 138.678C95.2141 138.365 93.8252 139.858 93.6988 141.377C93.5725 142.895 94.3345 144.336 95.1568 145.619Z" fill="#FFB61D"/>
<path fill-rule="evenodd" clip-rule="evenodd" d="M96.6419 140.259C97.0509 140.391 97.4034 140.69 97.6012 141.071C97.7773 141.411 97.8302 141.813 97.7482 142.186C97.5588 143.049 96.5836 143.651 95.7274 143.434C94.8712 143.217 94.3005 142.223 94.545 141.374C94.7894 140.526 95.8014 139.987 96.6419 140.259ZM96.4523 142.05C96.7641 141.886 96.4856 141.288 96.1594 141.421C95.9066 141.455 95.7392 141.773 95.8547 142C95.9703 142.228 96.3258 142.28 96.5019 142.095L96.4523 142.05Z" fill="#FFB61D"/>
<path fill-rule="evenodd" clip-rule="evenodd" d="M184.329 156.59C183.406 155.593 182.575 154.509 181.853 153.357C181.622 152.989 182.101 152.51 182.531 152.567C182.962 152.624 183.279 152.986 183.554 153.322C184.511 154.496 185.468 155.67 186.425 156.844C186.315 157.263 185.786 157.452 185.367 157.341C184.949 157.23 184.624 156.908 184.329 156.59Z" fill="#00160A"/>
<path fill-rule="evenodd" clip-rule="evenodd" d="M215.862 210.978C215.873 211.115 215.822 211.248 215.77 211.375C215.245 212.655 214.462 213.829 213.483 214.806C211.926 216.361 209.815 217.513 208.981 219.55C208.784 220.033 208.047 220.102 207.664 219.749C207.281 219.395 207.228 218.788 207.398 218.295C207.567 217.802 207.918 217.396 208.261 217.003C209.377 215.723 210.493 214.443 211.61 213.163C212.465 212.182 213.358 211.172 214.544 210.634C215.031 210.413 215.821 210.444 215.862 210.978Z" fill="#00160A"/>
<path fill-rule="evenodd" clip-rule="evenodd" d="M185.467 151.26C186.569 152.555 187.671 153.849 188.773 155.144C188.958 155.362 189.154 155.609 189.141 155.894C189.122 156.338 188.577 156.602 188.145 156.499C187.714 156.395 187.387 156.05 187.097 155.714C186.164 154.631 185.327 153.464 184.602 152.232C184.319 151.752 184.209 150.912 184.762 150.84C185.046 150.803 185.282 151.042 185.467 151.26Z" fill="#00160A"/>
<path fill-rule="evenodd" clip-rule="evenodd" d="M172.776 158.477C172.609 158.241 172.435 157.935 172.577 157.683C172.811 157.267 173.446 157.59 173.762 157.946C174.882 159.209 175.835 160.619 176.589 162.129C175.871 162.493 175.107 161.753 174.641 161.097C174.019 160.224 173.398 159.35 172.776 158.477Z" fill="#00160A"/>
<path fill-rule="evenodd" clip-rule="evenodd" d="M173.769 162.194C174.217 162.661 174.671 163.427 174.204 163.875C173.729 164.33 172.969 163.817 172.549 163.31C171.534 162.084 170.651 160.748 169.921 159.334C170.389 158.932 171.084 159.4 171.512 159.845C172.264 160.628 173.017 161.411 173.769 162.194Z" fill="#00160A"/>
<path fill-rule="evenodd" clip-rule="evenodd" d="M174.991 157.604C174.788 157.306 174.597 156.896 174.817 156.61C175.131 156.202 175.769 156.577 176.121 156.953C177.14 158.046 178.16 159.139 179.179 160.232C179.134 160.627 178.671 160.863 178.278 160.805C177.884 160.746 177.557 160.481 177.262 160.214C176.405 159.438 175.641 158.56 174.991 157.604Z" fill="#00160A"/>
<path fill-rule="evenodd" clip-rule="evenodd" d="M181.418 155.181C182.053 155.991 182.688 156.801 183.323 157.611C183.574 157.932 183.84 158.345 183.676 158.718C183.518 159.078 183.018 159.173 182.656 159.018C182.294 158.864 182.041 158.536 181.805 158.221C181.142 157.337 180.486 156.448 179.836 155.554C179.692 155.356 179.542 155.135 179.563 154.892C179.6 154.487 180.118 154.277 180.505 154.4C180.893 154.524 181.167 154.861 181.418 155.181Z" fill="#00160A"/>
<path fill-rule="evenodd" clip-rule="evenodd" d="M180.94 158.916C181.071 159.06 181.212 159.227 181.198 159.421C181.179 159.68 180.875 159.84 180.619 159.802C180.362 159.764 180.15 159.588 179.957 159.415C178.69 158.275 177.622 156.915 176.815 155.413C176.974 155.001 177.598 155.281 177.897 155.606C178.911 156.71 179.925 157.813 180.94 158.916Z" fill="#00160A"/>
<path fill-rule="evenodd" clip-rule="evenodd" d="M193.245 151.612C193.344 151.725 193.448 151.855 193.442 152.006C193.433 152.233 193.163 152.376 192.939 152.337C192.714 152.299 192.533 152.139 192.366 151.984C191.173 150.882 190.032 149.724 188.948 148.514C189.331 147.999 190.141 148.412 190.606 148.854C191.529 149.731 192.41 150.651 193.245 151.612Z" fill="#00160A"/>
<path fill-rule="evenodd" clip-rule="evenodd" d="M189.465 152.713C188.798 151.799 188.131 150.885 187.464 149.972C187.341 149.804 187.213 149.6 187.278 149.404C187.408 149.017 187.995 149.189 188.312 149.447C189.315 150.266 190.167 151.269 190.811 152.393C190.936 152.611 191.056 152.869 190.967 153.104C190.855 153.403 190.445 153.491 190.151 153.366C189.857 153.241 189.654 152.971 189.465 152.713Z" fill="#00160A"/>
<path fill-rule="evenodd" clip-rule="evenodd" d="M194.789 149.355C194.13 148.647 193.471 147.938 192.812 147.229C192.577 146.977 192.861 146.529 193.204 146.492C193.547 146.455 193.861 146.672 194.132 146.884C194.632 147.275 195.114 147.688 195.577 148.122C195.833 148.363 196.092 148.625 196.189 148.963C196.285 149.3 196.153 149.729 195.821 149.843C195.439 149.975 195.064 149.651 194.789 149.355Z" fill="#00160A"/>
<path fill-rule="evenodd" clip-rule="evenodd" d="M193.51 150.758C192.598 149.823 191.724 148.85 190.892 147.843C190.747 147.667 190.594 147.451 190.656 147.233C190.726 146.985 191.049 146.888 191.292 146.971C191.536 147.054 191.714 147.259 191.879 147.455C192.642 148.357 193.404 149.259 194.167 150.161C194.373 150.405 194.576 150.789 194.342 151.007C194.106 151.226 193.735 150.989 193.51 150.758Z" fill="#00160A"/>
<path fill-rule="evenodd" clip-rule="evenodd" d="M236.902 208.584C237.931 208.266 240.538 207.559 241.567 207.242C242.029 207.099 242.714 207.081 242.801 207.556C242.872 207.947 242.423 208.213 242.046 208.339C241.006 208.689 238.354 209.321 237.265 209.453C236.877 209.499 236.314 209.355 236.393 208.973C236.438 208.752 236.687 208.65 236.902 208.584Z" fill="#00160A"/>
<path fill-rule="evenodd" clip-rule="evenodd" d="M121.865 165.528C123.495 165.552 125.422 165.931 126.072 167.426C126.683 168.83 125.723 170.518 124.376 171.247C123.029 171.975 121.425 171.993 119.894 171.991C99.0033 171.965 78.1134 171.46 57.2458 170.479C55.9455 170.418 55.8223 168.542 56.1195 167.274C56.2968 166.518 56.496 165.72 57.0417 165.167C57.8268 164.372 59.0719 164.317 60.1898 164.314C75.1913 164.265 90.2201 164.218 105.158 165.598C107.524 165.817 109.893 166.072 112.269 166.048C115.473 166.017 118.661 165.481 121.865 165.528ZM124.204 169.32C124.554 168.637 124.039 167.768 123.338 167.454C122.638 167.14 121.832 167.222 121.068 167.297C111.276 168.261 101.416 167.149 91.5928 166.575C84.4528 166.157 77.2996 166.024 70.1486 165.892C67.1676 165.836 64.1866 165.781 61.2057 165.726C60.2546 165.708 59.2129 165.72 58.4823 166.329C57.7516 166.938 57.7271 168.374 58.6339 168.661C58.7978 168.713 58.9718 168.722 59.1435 168.73C80.1312 169.751 101.146 170.208 122.158 170.103C122.929 170.099 123.853 170.005 124.204 169.32Z" fill="#00160A"/>
<path fill-rule="evenodd" clip-rule="evenodd" d="M108.528 182.414C110.391 186.492 114.404 189.511 118.839 190.17C120.925 190.48 122.35 192.377 123.538 194.12C124.773 195.932 125.679 199.002 123.637 199.802C131.56 208.539 139.483 217.276 147.406 226.013C148.326 227.028 149.22 228.722 148.153 229.581C147.757 229.9 147.214 229.95 146.705 229.967C140.178 230.186 134.019 227.131 128.369 223.853C120.235 219.132 112.465 213.783 105.153 207.867C99.8113 203.545 92.1372 202.309 85.7082 204.734C82.373 205.993 78.1919 203.428 77.8027 199.884C77.4134 196.341 80.9379 192.929 84.4668 193.433C79.1614 185.561 69.6728 180.696 60.1842 180.983C48.7316 181.329 37.2334 180.128 26.0998 177.421C25.1219 177.184 24.0719 176.887 23.4585 176.089C22.2355 174.498 23.5185 172.236 24.8628 170.747C34.7673 159.77 50.0072 153.848 64.7244 155.258C65.3515 155.318 65.6927 154.556 65.8397 153.944C69.5809 138.352 73.322 122.761 77.0632 107.169C77.5143 105.289 80.3759 105.029 81.7938 106.344C83.2116 107.658 83.5233 109.754 83.6867 111.68C84.9052 126.042 82.7773 141.503 89.9166 154.023C90.2492 154.607 90.6249 155.204 91.2091 155.535C91.7846 155.861 92.4775 155.881 93.1389 155.893C106.357 156.127 119.576 156.361 132.794 156.595C134.441 156.624 136.463 156.429 137.129 154.922C138.834 151.06 140.539 147.199 142.243 143.338C142.786 142.11 143.534 140.716 144.861 140.514C146.763 140.224 147.966 142.612 147.904 144.534C147.843 146.457 147.196 148.499 148.043 150.226C151.148 146.925 154.307 143.582 158.19 141.245C162.073 138.909 166.842 137.667 171.197 138.923C167.347 145.044 163.497 151.164 159.648 157.285C162.863 159.413 163.117 164.794 160.115 167.214C158.834 168.248 159.851 170.287 160.912 171.545C164.238 175.487 167.564 179.429 170.889 183.371C168.051 184.687 164.745 183.332 161.954 181.918C156.966 179.391 152.097 176.629 147.368 173.644C145.073 172.196 142.544 174.911 140.461 176.651C137.155 179.412 132.59 179.962 128.305 180.398C121.713 181.07 115.12 181.742 108.528 182.414ZM120.027 173.845C124.077 174.067 128.204 174.348 132.133 173.344C136.157 172.316 139.819 169.923 142.376 166.65C142.997 165.855 144.084 165.63 145.078 165.459C148.51 164.869 152.123 164.292 155.401 165.466C156.88 165.995 158.684 165.389 159.543 164.074C160.402 162.759 160.232 160.863 159.153 159.721C157.985 159.689 157.772 161.347 157.152 162.338C156.339 163.639 154.563 163.851 153.03 163.928C147.405 164.211 141.78 164.494 136.156 164.777C134.79 164.845 132.909 164.448 132.95 163.081C132.968 162.48 133.407 161.983 133.838 161.563C135.348 160.089 137.072 158.834 138.939 157.849C116.1 158.022 93.2576 157.766 70.4284 157.079C59.2025 156.742 47.2316 156.486 37.666 162.371C36.773 162.921 36.0748 164.541 37.111 164.701C40.1623 165.171 43.2137 165.642 46.265 166.113C46.6285 166.169 47.0172 166.237 47.2803 166.494C48.0688 167.264 46.9641 168.503 45.9482 168.931C41.7567 170.695 36.7619 170.426 32.7844 168.221C31.8829 167.721 30.8135 167.114 29.8951 167.581C28.7856 168.146 28.938 169.93 29.8792 170.745C30.8203 171.561 32.1607 171.675 33.4035 171.752C44.5679 172.441 55.7322 173.13 66.8966 173.819C70.0348 174.013 73.1826 174.206 76.3207 174.011C90.8696 173.104 105.472 173.049 120.027 173.845ZM136.324 217.126C132.416 211.75 127.965 206.769 123.061 202.284C121.455 200.815 120.041 199.153 118.631 197.495C112.466 190.248 106.302 183.001 100.137 175.754C99.5217 175.03 98.4576 174.935 97.5084 174.905C89.4118 174.648 81.2882 175.25 73.3178 176.697C72.7286 176.804 72.0926 176.942 71.7035 177.397C70.801 178.453 71.9288 179.996 72.9864 180.896C83.5693 189.907 94.5412 198.461 105.861 206.527C107.945 208.011 110.059 209.49 112.412 210.494C116.85 212.39 121.289 214.285 125.727 216.181C129.123 217.631 133.172 219.049 136.324 217.126ZM83.3202 137.111C83.1572 134.994 83.1563 132.84 82.5745 130.798C81.5263 127.119 78.7313 124.23 75.9493 121.605C75.7334 121.401 75.4486 121.182 75.1697 121.284C74.9162 121.376 74.8244 121.681 74.7665 121.945C72.693 131.387 70.6196 140.829 68.5461 150.272C68.1548 152.054 67.7612 153.861 67.8459 155.683C75.1152 155.775 82.3845 155.867 89.6537 155.958C86.032 150.327 83.8344 143.787 83.3202 137.111ZM168.732 140.247C164.217 139.861 159.566 141.52 156.315 144.678C150.36 150.461 144.001 155.828 137.3 160.727C136.383 161.398 135.4 162.141 135.089 163.234C140.703 162.981 146.317 162.727 151.931 162.474C153.412 162.407 155.155 162.185 155.863 160.883C159.737 153.756 164.037 146.861 168.732 140.247ZM24.6283 173.678C24.4753 174.005 24.3397 174.369 24.4247 174.72C24.5749 175.341 25.2999 175.599 25.9205 175.75C38.4732 178.796 51.4962 179.188 64.4075 179.566C65.6923 179.603 67.0253 179.632 68.205 179.122C69.3847 178.612 70.365 177.399 70.1732 176.128C61.7805 174.965 53.3093 174.369 44.8364 174.345C39.7607 174.331 34.5403 174.499 29.7819 172.733C28.634 172.307 27.3348 171.452 27.4811 170.237C26.2586 171.116 25.2663 172.313 24.6283 173.678ZM144.326 171.411C143.876 170.434 142.607 170.072 141.555 170.298C140.503 170.523 139.609 171.19 138.727 171.806C136.691 173.227 134.489 174.482 132.072 175.055C129.965 175.554 127.773 175.519 125.608 175.48C117.704 175.34 109.8 175.2 101.897 175.06C103.657 177.686 106.069 180.637 109.212 180.292C115.359 179.616 121.587 179.778 127.706 178.875C133.824 177.972 140.024 175.854 144.326 171.411ZM162.613 178.172C162.9 178.133 163.236 178.037 163.326 177.761C163.402 177.53 163.263 177.288 163.128 177.085C160.852 173.659 158.048 170.622 155.257 167.601C154.832 167.14 154.387 166.666 153.809 166.423C153.211 166.171 152.536 166.195 151.888 166.244C149.241 166.442 146.619 166.982 144.109 167.846C143.904 167.916 143.666 168.03 143.642 168.245C143.624 168.413 143.75 168.558 143.868 168.678C146.506 171.36 149.805 173.276 153.061 175.158C156.008 176.862 159.24 178.627 162.613 178.172ZM87.5568 195.396C87.3109 195.206 87.0491 195.009 86.7406 194.969C86.4903 194.936 86.2399 195.012 85.9988 195.087C85.441 195.26 84.8832 195.433 84.3254 195.606C83.7788 195.776 83.0959 196.279 83.4113 196.756C84.3949 198.246 84.7942 200.111 84.5068 201.872C84.4135 202.444 85.2357 202.648 85.8135 202.608C88.7997 202.397 91.7858 202.186 94.772 201.975C95.0835 201.953 95.5037 201.795 95.4311 201.492C92.8063 199.46 90.1816 197.428 87.5568 195.396ZM138.725 155.011C138.515 155.56 139.074 156.155 139.658 156.216C140.243 156.276 140.799 155.981 141.312 155.696C143.162 154.666 145.158 153.47 145.857 151.471C146.085 150.819 146.155 150.125 146.224 149.439C146.341 148.26 146.459 147.082 146.577 145.904C146.603 145.642 146.625 145.359 146.486 145.136C146.348 144.912 145.98 144.822 145.826 145.035C145.206 145.897 144.294 146.546 143.277 146.851C142.836 146.983 142.363 147.059 141.992 147.33C141.55 147.653 141.333 148.193 141.138 148.704C140.333 150.806 139.529 152.909 138.725 155.011ZM120.325 192.767C119.519 191.263 117.297 190.758 115.92 191.765C117.696 193.153 118.697 195.293 120.204 196.968C120.723 197.545 121.397 198.102 122.171 198.052C122.945 198.001 123.584 196.967 123.036 196.418C121.96 195.342 121.044 194.108 120.325 192.767ZM80.8486 196.868C79.6501 198.038 80.0584 200.02 80.553 201.62C80.7198 202.16 81.2512 202.831 81.6925 202.478C81.8424 202.358 81.8959 202.158 81.9407 201.971C82.1618 201.052 82.3845 200.111 82.2857 199.17C82.1868 198.23 81.7025 197.274 80.8486 196.868Z" fill="#00160A"/>
<path fill-rule="evenodd" clip-rule="evenodd" d="M213.395 239.928C210.889 237.429 209.702 233.935 208.594 230.574C205.692 234.776 201.928 237.76 197.479 235.252C193.03 232.744 187.312 225.518 184.118 221.533C178.398 214.399 171.603 208.128 164.034 202.998C168.076 207.433 170.494 213.318 170.736 219.314C173.803 219.282 176.869 219.25 179.936 219.218C169.626 222.732 158.581 224.071 147.731 223.122C153.627 218.164 158.237 211.691 160.995 204.498C160.38 202.551 157.455 203.002 155.747 204.12C154.04 205.238 151.83 206.657 150.185 205.449C148.16 203.961 148.299 199.301 145.895 200.03C139.652 201.922 132.25 198.164 130.094 192.007C128.621 192.928 127.149 193.848 125.676 194.769C124.967 192.488 128.25 190.725 130.463 191.625C132.675 192.524 133.972 194.763 135.506 196.593C137.041 198.424 139.503 200.04 141.692 199.086C145.773 197.308 151.14 200.518 151.504 204.954C154.669 202.415 159.009 201.408 162.968 202.295C160.443 198.637 157.624 195.181 154.548 191.971C156.887 188.855 159.778 186.155 163.047 184.036C161.442 187.068 159.219 189.772 156.552 191.931C170.228 205.339 183.903 218.746 197.578 232.153C198.439 232.997 199.426 233.897 200.632 233.913C201.953 233.932 203.018 232.891 203.918 231.925C210.337 225.037 216.755 218.15 223.173 211.262C224.846 209.467 226.605 207.489 226.856 205.049C227.171 201.985 225.032 199.267 222.989 196.961C214.771 187.683 206.027 178.871 196.813 170.581C192.771 166.945 187.443 163.164 182.359 165.089C176.225 167.412 174.765 176.644 168.464 178.468C170.348 175.878 172.232 173.289 174.116 170.699C170.38 167.997 165.708 161.966 165.465 157.362C168.464 154.631 172.161 152.562 175.227 150.976C172.161 143.757 172.525 142.255 176.625 141.269C180.726 140.284 184.279 139.306 188.047 138.046C198.496 134.552 203.483 117.983 194.712 111.102C189.888 107.316 153.728 70.1532 138.202 56.4515C139.378 61.6957 132.469 66.6402 127.885 63.8356C128.764 66.8586 126.65 70.5169 123.527 70.9157C120.404 71.3145 117.357 67.8517 118.45 64.8993C119.391 62.358 122.402 61.3067 124.15 59.236C125.898 57.1654 124.373 52.6146 121.997 53.9179C120.743 58.9681 113.357 61.1197 109.586 57.5336C108.259 56.2712 106.52 55.9608 104.742 56.2591C102.564 56.6246 98.7962 57.4701 97.1849 59.032C94.6608 61.4788 94.0911 65.0532 91.0858 66.7141C90.6068 66.9788 90.1047 67.206 89.5743 67.3867C85.7164 68.7014 80.3146 64.8836 82.3177 61.334C71.3405 71.4554 63.8047 85.2443 61.2142 99.9491C66.9438 101.583 68.0316 109.107 68.0154 115.065C61.5519 116.705 67.6322 129.042 62.0422 132.678C55.6698 136.822 57.4414 146.46 59.9649 153.63C53.5053 139.728 52.7281 123.285 57.8477 108.836C57.3417 118.003 56.8357 127.17 56.3297 136.337C60.6641 135.702 62.4148 130.42 62.7732 126.054C63.1316 121.689 63.4042 116.552 67.0748 114.161C65.7045 110.668 65.1423 106.861 65.4444 103.121C63.8492 102.606 62.2539 102.091 60.6587 101.576C59.7004 108.326 52.2039 111.645 46.0222 114.519C39.3486 117.622 33.0701 121.573 27.3859 126.247C21.2889 131.261 15.4828 138.154 16.158 146.019C16.8073 153.581 23.3238 159.364 30.165 162.651C22.839 162.634 16.5512 156.117 15.3702 148.887C14.1893 141.657 17.3396 134.219 22.2649 128.796C27.1903 123.372 33.7214 119.686 40.3442 116.554C49.017 112.452 59.5368 107.133 59.8604 97.5445C60.1302 89.5517 68.8967 81.7181 64.6971 74.9121C58.7982 65.3523 55.5079 54.2002 55.2726 42.9693C55.1566 37.4286 56.1679 31.1566 60.7098 27.9812C62.9711 26.4003 65.7844 25.8482 68.5255 25.5335C78.6908 24.3662 89.1632 25.995 98.4938 30.1946C104.001 32.6732 110.014 36.1087 115.681 34.0214C128.894 29.1546 142.948 26.5826 157.028 26.4547C158.905 26.4377 160.463 25.0595 161.77 23.7121C166.912 18.4103 171.204 12.2755 176.8 7.45517C182.396 2.63488 189.841 -0.835361 197.075 0.656453C204.648 2.2182 210.301 8.96208 212.775 16.288C215.249 23.6139 215.109 31.5283 214.942 39.2589C214.643 53.1031 232.007 60.6425 236.489 73.7447C239.131 81.4697 247.848 85.0495 255.688 87.3286C263.528 89.6077 272.31 92.1328 276.351 99.2272C280.114 105.835 278.253 114.492 273.81 120.663C269.367 126.835 262.789 131.063 256.372 135.143C245.981 141.748 248.898 158.643 240.536 167.679C236.32 172.235 237.759 179.504 239.947 185.312C242.135 191.121 244.825 197.581 242.345 203.272C240.991 194.155 238.614 185.191 235.271 176.602C230.61 179.991 232.97 187.282 235.749 192.331C239.251 198.694 242.753 205.056 246.255 211.419C247.711 214.065 249.217 216.98 248.693 219.955C248.094 223.356 245.063 225.71 242.255 227.721C235.846 232.315 229.436 236.908 223.027 241.501C220.15 243.562 215.902 242.427 213.395 239.928ZM227.075 181.286C226.512 180.654 225.484 180.963 224.716 181.317C223.946 181.673 223.176 182.029 222.406 182.384C222.237 182.462 222.051 182.542 221.872 182.493C221.534 182.401 221.477 181.901 221.689 181.622C221.901 181.344 222.261 181.232 222.594 181.124C223.303 180.894 223.995 180.611 224.663 180.279C225.045 180.088 225.455 179.838 225.559 179.424C225.662 179.01 225.188 178.508 224.836 178.75C223.803 179.462 222.641 179.986 221.423 180.289C221.057 180.38 220.488 180.265 220.574 179.899C220.607 179.758 220.737 179.666 220.859 179.59C221.946 178.906 223.132 178.381 224.368 178.036C224.813 177.911 224.703 177.162 224.278 176.978C223.854 176.795 223.369 176.981 222.946 177.165C221.921 177.612 220.896 178.059 219.872 178.506C219.651 178.602 219.405 178.727 219.346 178.96C219.293 179.169 219.414 179.378 219.53 179.559C220.275 180.725 221.02 181.891 221.765 183.058C221.878 183.235 222.007 183.425 222.207 183.491C222.425 183.561 222.658 183.463 222.866 183.366C224.284 182.704 225.687 182.011 227.075 181.286ZM157.062 54.4282C154.65 54.4693 152.838 51.7271 153.287 49.3568C153.736 46.9866 155.867 45.2129 158.175 44.5102C161.311 43.5553 165.055 44.114 167.555 41.9932C168.678 41.0405 169.363 39.672 170.386 38.6124C172.614 36.3028 176.492 35.8141 179.224 37.4985C179.838 35.8887 178.022 34.3323 176.324 34.0456C174.625 33.759 172.793 34.1013 171.228 33.3808C168.479 32.1152 165.242 33.7411 163.042 35.8191C160.842 37.8971 159.038 40.5148 156.327 41.8585C153.615 43.2022 149.512 42.4528 148.766 39.5198C148.534 38.6058 148.505 37.3948 147.614 37.0867C146.208 36.6007 145.477 34.9594 145.56 33.4743C145.644 31.9892 146.356 30.6221 147.053 29.3079C144.298 29.169 141.531 29.2545 138.79 29.5633C138.133 29.6373 137.297 29.9149 137.298 30.5766C137.301 31.9441 136.032 32.9251 134.891 33.6792C132.476 35.2752 130.062 36.8712 127.647 38.4672C127.723 40.0613 130.073 40.4426 131.45 39.6353C132.826 38.828 133.796 37.3848 135.28 36.798C136.073 36.4847 136.944 36.4462 137.795 36.4115C139.25 36.3524 140.705 36.2932 142.159 36.234C144.023 36.1582 146.538 36.6315 146.637 38.4944C146.718 40.0224 145.021 40.9151 143.935 41.9928C141.463 44.446 141.472 49.1943 138.228 50.4605C137.075 50.9105 136.765 52.5074 137.27 53.6369C137.776 54.7665 138.831 55.5342 139.829 56.2663C157.245 69.0454 187.585 101.991 188.248 102.079C188.912 102.167 189.691 101.691 189.654 101.022C189.558 99.2932 189.465 97.533 189.888 95.854C190.31 94.1749 191.337 92.5588 192.92 91.8568C194.378 91.2097 196.501 91.0634 196.817 89.4991C197.523 85.9999 201.026 83.294 204.59 83.4942C206.342 83.5925 208.274 84.2608 209.731 83.2849C208.556 82.1701 206.819 81.94 205.362 81.2323C203.905 80.5246 202.623 78.7328 203.494 77.3667C204.779 75.3492 202.906 72.711 203.292 70.3498C203.455 69.3476 204.021 68.4606 204.619 67.6403C206.648 64.8598 209.21 62.4702 212.126 60.6404C212.803 60.215 212.973 59.3192 213.08 58.5262C213.338 56.6114 213.595 54.6966 213.853 52.7817C214.033 51.4458 214.155 49.9128 213.238 48.9246C210.255 45.7088 205.288 45.6035 200.904 45.7465C196.519 45.8896 191.565 45.8332 188.528 42.6681C187.585 41.6858 185.864 42.0198 184.842 42.9188C183.819 43.8178 183.254 45.1124 182.493 46.2413C180.116 49.7681 175.512 51.6373 171.349 50.7665C169.119 50.3001 166.871 49.1251 164.682 49.7544C161.763 50.5932 160.098 54.3764 157.062 54.4282ZM240.851 141.23C240.985 141.717 241.181 142.273 241.658 142.436C242.041 142.568 242.454 142.388 242.819 142.213C244.03 141.629 245.241 141.046 246.452 140.463C247.074 140.163 247.772 139.766 247.883 139.085C250.125 125.273 249.476 110.999 245.988 97.4475C245.163 94.2428 244.18 91.072 242.869 88.0337C241.194 84.1526 239 80.5197 236.748 76.9428C233.506 71.7941 230.127 66.7313 226.618 61.7615C225.967 62.777 225.772 64.0072 225.441 65.1672C225.11 66.3272 224.555 67.5298 223.489 68.0954C222.424 68.661 220.787 68.1809 220.598 66.9894C220.189 64.4136 217.425 62.466 214.862 62.9481C214.311 63.0518 214.129 63.7371 214.06 64.2939C213.436 69.3535 212.812 74.4131 212.188 79.4728C212.143 79.8406 212.124 80.2784 212.414 80.5101C212.654 80.7029 212.998 80.6599 213.307 80.6552C215.051 80.629 216.572 82.4511 216.235 84.1628C215.898 85.8746 213.8 86.984 212.195 86.2985C211.503 86.0026 210.961 86.9414 210.787 87.6741C209.739 92.0971 208.691 96.5202 207.644 100.943C207.335 102.248 208.461 103.479 209.673 104.052C210.885 104.626 212.27 104.833 213.382 105.582C216.167 107.458 216.047 111.724 218.299 114.215C220.134 116.244 223.529 116.613 225.757 115.025C227.75 113.605 228.617 111.011 228.618 108.564C228.618 106.895 229.655 105.27 231.168 104.565C232.681 103.861 234.592 104.115 235.87 105.189C237.114 106.235 237.678 107.861 238.187 109.405C238.412 110.086 238.637 110.829 238.396 111.504C238.001 112.608 236.644 112.935 235.535 113.314C233.497 114.01 231.711 115.42 230.561 117.24C230 118.129 229.62 119.374 230.315 120.163C232.012 122.089 233.71 124.016 235.408 125.942C236.296 126.95 237.211 128.005 237.567 129.3C238.662 133.277 239.756 137.253 240.851 141.23ZM67.895 77.8999C70.5557 72.934 73.2427 67.9288 76.8572 63.6074C80.0228 59.8227 83.8354 56.6405 87.6428 53.5022C92.6588 49.3677 97.7054 45.2702 102.782 41.2101C104.895 39.5202 107.041 37.8195 109.504 36.7003C102.119 33.4457 94.6859 30.1749 86.8446 28.2631C79.0033 26.3513 70.6511 25.8529 62.9139 28.1502C62.1685 28.3715 61.4198 28.6233 60.7763 29.0598C59.6897 29.797 59.0033 30.9912 58.4885 32.1992C56.4649 36.9467 56.5785 42.3257 57.2367 47.4443C58.6186 58.1899 62.2749 68.6375 67.895 77.8999ZM234.656 225.277C234.586 225.998 233.808 226.676 233.155 226.363C232.846 226.215 232.658 225.901 232.488 225.604C229.883 221.056 227.278 216.508 224.673 211.96C222.992 212.592 222.184 214.619 222.373 216.405C222.562 218.191 223.514 219.792 224.444 221.329C225.866 223.679 227.288 226.03 228.71 228.38C227.962 229.15 226.758 228.127 226.205 227.207C224.231 223.932 222.258 220.656 220.285 217.38C216.516 221.257 212.748 225.133 208.979 229.009C211.434 232.845 213.888 236.682 216.342 240.518C216.92 241.422 218.159 241.711 219.208 241.484C220.257 241.256 221.163 240.62 222.038 239.998C228.615 235.32 235.193 230.642 241.77 225.964C242.27 225.608 242.805 225.203 242.952 224.607C243.106 223.984 242.787 223.352 242.478 222.789C227.599 195.723 211.72 169.207 194.883 143.313C194.387 142.551 193.76 141.709 192.853 141.648C192.248 141.608 191.688 141.938 191.172 142.255C184.494 146.365 177.816 150.474 171.139 154.583C169.902 155.344 168.666 156.105 167.43 156.866C167.108 157.064 166.761 157.293 166.653 157.655C166.526 158.083 166.779 158.523 167.022 158.897C169.455 162.634 172.023 166.283 174.719 169.834C177.906 166.404 181.697 162.71 186.377 162.826C190.418 162.926 193.752 165.865 196.695 168.636C198.417 170.256 200.138 171.877 201.86 173.498C199.139 168.4 195.922 163.568 192.269 159.091C192.111 158.337 193.439 158.543 193.95 159.119C199.048 164.853 201.854 172.389 207.222 177.871C212.708 183.473 218.194 189.075 223.68 194.677C226.01 197.056 228.482 199.745 228.666 203.07C228.834 206.107 227.033 208.869 225.223 211.313C228.414 215.08 231.333 219.077 233.949 223.264C234.333 223.878 234.725 224.555 234.656 225.277ZM176.558 29.9328C178.868 30.3906 181.181 30.8491 183.447 31.4891C189.285 33.1373 194.712 35.9579 200.092 38.7594C204.788 41.2045 209.509 43.6657 213.723 46.8694C214.181 35.4166 213.727 24.0448 209.917 13.2348C208.818 10.1175 206.164 6.75606 203.582 4.69244C200.55 2.26945 196.342 1.84306 192.5 2.39264C185.789 3.35269 179.676 6.94686 174.642 11.4872C169.608 16.0275 165.526 21.5055 161.479 26.9443C166.505 27.9405 171.532 28.9367 176.558 29.9328ZM243.975 85.5232C250.46 102.066 252.577 120.299 250.057 137.888C258.286 133.172 265.641 126.937 271.64 119.59C274.629 115.93 277.399 111.621 277.204 106.899C277.044 103.018 274.837 99.4356 271.922 96.8688C269.007 94.302 265.427 92.6237 261.829 91.1608C256.041 88.8076 250.065 86.9203 243.975 85.5232ZM231.259 113.809C232.783 112.691 234.413 111.718 236.121 110.909C236.117 109.819 236.105 108.694 235.668 107.696C235.23 106.698 234.249 105.853 233.162 105.928C232.019 106.007 231.157 107.05 230.794 108.137C230.431 109.223 230.425 110.395 230.174 111.513C229.48 114.604 226.741 117.127 223.603 117.565C220.466 118.003 217.14 116.327 215.625 113.545C214.405 111.302 214.222 108.401 212.277 106.746C211.2 105.83 209.766 105.478 208.389 105.154C208.07 105.079 207.73 105.005 207.419 105.111C206.92 105.282 206.685 105.84 206.509 106.338C205.33 109.671 204.151 113.004 202.973 116.337C202.536 117.57 202.178 119.146 203.152 120.018C212.151 128.071 215.814 140.881 224.966 148.76C225.237 148.993 225.571 149.237 225.919 149.154C230.285 148.118 234.517 146.522 238.48 144.417C238.795 144.249 239.124 144.064 239.305 143.757C239.489 143.444 239.488 143.06 239.469 142.698C239.338 140.208 238.598 137.752 237.33 135.604C236.731 134.588 235.995 133.585 235.881 132.411C235.783 131.409 236.156 130.381 235.918 129.403C235.723 128.603 235.151 127.959 234.598 127.35C233.035 125.63 231.472 123.91 229.91 122.19C229.137 121.34 228.334 120.432 228.097 119.307C227.635 117.116 229.453 115.134 231.259 113.809ZM133.315 63.1701C135.159 62.0611 136.276 59.8489 136.074 57.707C135.78 54.5814 133.088 52.3037 130.603 50.385C126.532 47.2412 117.222 39.6027 113.129 37.9608C109.035 36.319 90.9254 52.4733 84.6324 58.6671C84.3145 58.98 83.9831 59.3211 83.8945 59.7581C83.8059 60.1952 81.8827 64.8984 85.7548 66.0416C89.6268 67.1848 90.0419 66.3039 91.6237 64.8984C93.2055 63.4929 94.1264 61.4992 94.8696 59.518C95.5043 57.8259 97.4237 57.0161 99.1945 56.6554C100.965 56.2947 102.874 56.1604 104.338 55.1018C105.864 53.9994 107.994 54.0635 109.733 54.7843C111.471 55.505 112.907 56.7871 114.307 58.0458C115.476 59.0974 117.366 57.9216 118.086 56.5239C118.807 55.1263 119.11 53.4019 120.37 52.4618C122.172 51.1175 124.938 52.3207 126.048 54.276C127.626 57.0569 126.51 61.0275 123.714 62.5794C122.094 63.4787 119.724 64.0813 119.659 65.9331C119.627 66.8537 120.27 67.6635 120.986 68.2429C122.271 69.2823 124.363 69.7755 125.457 68.5374C127.017 66.7731 125.275 63.0446 127.436 62.1075C129.344 61.2798 131.533 64.2423 133.315 63.1701ZM182.579 43.4325C183.225 42.4299 183.873 41.3316 184.951 40.8206C186.329 40.1675 187.983 40.6863 189.29 41.4715C190.597 42.2568 191.764 43.3076 193.198 43.827C194.657 44.3556 196.255 44.2842 197.805 44.206C200.383 44.0759 202.961 43.9458 205.539 43.8157C189.957 34.7877 172.43 28.4562 154.423 28.2782C152.905 28.2632 151.352 28.2978 149.928 28.8229C148.504 29.348 147.21 30.4533 146.845 31.9268C146.289 34.1706 148.33 36.569 150.641 36.6405C149.434 37.5241 149.62 39.5763 150.77 40.533C151.92 41.4898 153.64 41.4823 155.021 40.9062C156.401 40.3301 157.52 39.2795 158.605 38.2506C160.626 36.3358 162.647 34.4211 164.667 32.5063C165.937 31.3028 167.915 31.2517 169.631 31.5914C171.348 31.931 173.028 32.5884 174.777 32.5459C178.45 32.4567 181.703 36.2274 181.077 39.8474C179.428 38.2928 177.03 37.5723 174.798 37.9609C172.566 38.3494 170.552 39.8378 169.526 41.8579C168.694 43.4957 166.837 44.3612 165.031 44.6982C163.225 45.0351 161.36 44.9647 159.561 45.3364C157.762 45.7081 155.928 46.6551 155.192 48.3382C154.456 50.0214 155.417 52.4219 157.246 52.5916C159.377 52.7892 160.621 50.2875 162.413 49.1185C164.119 48.006 166.345 48.1517 168.335 48.5841C170.325 49.0166 172.314 49.6985 174.343 49.5231C177.868 49.2181 180.662 46.4069 182.579 43.4325ZM239.64 146.026C235.557 147.601 231.475 149.175 227.392 150.749C226.824 150.968 226.132 151.528 226.474 152.032C230.368 157.779 233.366 164.133 235.326 170.793C235.516 171.442 236.5 170.957 236.885 170.401C240.456 165.238 243.302 159.576 245.317 153.631C245.681 152.554 246.021 151.392 245.708 150.3C245.217 148.583 243.372 147.718 242.012 146.561C241.637 146.241 241.257 145.871 240.769 145.8C240.385 145.744 240.002 145.887 239.64 146.026ZM192.541 94.9744C190.665 96.9658 192.241 100.339 191.277 102.9C191.064 103.467 190.719 104.066 190.915 104.639C191.013 104.925 191.234 105.149 191.447 105.363C192.114 106.031 192.781 106.7 193.447 107.368C193.971 107.892 194.82 108.436 195.366 107.934C197.609 105.871 200.326 104.327 203.246 103.456C204.087 103.205 204.997 102.978 205.583 102.326C206.101 101.751 206.268 100.95 206.415 100.19C207.24 95.9368 208.059 91.682 208.872 87.4261C208.935 87.0941 208.997 86.738 208.861 86.4282C208.718 86.0996 208.386 85.8982 208.062 85.7441C204.778 84.1794 200.36 85.7827 198.844 89.0899C198.329 90.2124 198.091 91.512 197.227 92.394C195.967 93.6792 193.774 93.6643 192.541 94.9744ZM127.048 40.5636C126.413 39.9872 125.756 39.2638 125.818 38.4086C125.885 37.497 126.729 36.8683 127.494 36.368C130.205 34.5952 132.915 32.8225 135.626 31.0497C135.56 30.5233 134.822 30.4676 134.3 30.5625C127.281 31.8388 120.405 33.8961 113.839 36.6841C121.162 41.198 128.187 46.1947 134.853 51.6309C135.662 49.7944 137.744 48.8904 138.977 47.3068C140.534 45.3063 140.651 42.3353 142.566 40.6742C143.506 39.8591 144.902 39.294 145.09 38.0642C143.446 38.0757 141.802 38.0872 140.158 38.0987C138.158 38.1127 136.028 38.1645 134.366 39.2774C132.916 40.2488 131.801 42.0153 130.057 42.0651C128.907 42.0979 127.899 41.3366 127.048 40.5636ZM209.016 149.942C210.292 152.23 211.568 154.518 212.844 156.806C210.506 149.368 207.719 142.072 204.501 134.97C204.387 134.717 204.256 134.448 204.011 134.318C203.709 134.158 203.341 134.264 203.018 134.372C193.953 137.403 184.889 140.434 175.824 143.464C175.549 143.556 175.25 143.666 175.102 143.916C174.925 144.216 175.031 144.598 175.15 144.926C175.681 146.392 176.376 147.798 177.218 149.11C182.903 145.802 188.588 142.495 194.273 139.187C195.148 138.678 196.069 138.154 197.081 138.116C197.918 138.085 198.732 138.392 199.48 138.769C203.921 141.009 206.593 145.598 209.016 149.942ZM167.86 211.84C166.717 209.4 164.757 207.402 162.506 205.92C159.742 211.055 156.57 215.971 153.03 220.605C152.759 220.96 152.659 221.685 153.104 221.654C157.421 221.35 161.737 221.047 166.054 220.743C166.92 220.682 167.962 220.5 168.28 219.692C169.268 217.185 169.003 214.281 167.86 211.84ZM233.033 175.837C233.383 175.301 233.739 174.751 233.88 174.128C234.068 173.303 233.861 172.445 233.638 171.629C231.926 165.355 229.233 159.366 225.871 153.799C225.479 153.151 225.058 152.487 224.421 152.078C223.784 151.67 222.867 151.595 222.311 152.108C221.569 152.795 221.851 154.007 222.189 154.96C224.869 162.511 227.549 170.062 230.229 177.612C230.389 178.062 230.753 178.616 231.198 178.443C231.371 178.376 231.484 178.211 231.585 178.055C232.068 177.316 232.551 176.576 233.033 175.837ZM206.135 79.801C206.911 80.4553 207.94 80.7031 208.929 80.931C209.722 81.1139 210.191 80.0795 210.329 79.2773C211.246 73.9198 211.835 68.5124 212.423 63.1089C211.973 62.9177 211.496 63.2854 211.145 63.6257C209.884 64.849 208.623 66.0722 207.362 67.2955C206.484 68.1471 205.567 69.0669 205.288 70.2577C204.758 72.5243 206.69 75.1073 205.469 77.089C204.937 77.9529 205.359 79.1467 206.135 79.801ZM203.389 122.659C203.086 122.318 202.759 121.967 202.326 121.827C201.893 121.687 201.327 121.845 201.177 122.275C199.835 126.115 198.492 129.956 197.15 133.796C197.022 134.16 197.108 134.775 197.479 134.666C199.743 133.997 201.832 132.815 204.105 132.18C206.379 131.545 209.037 131.553 210.854 133.061C208.736 129.347 206.229 125.854 203.389 122.659ZM222.781 66.5062C223.462 64.659 224.143 62.8118 224.824 60.9646C224.956 60.6066 224.695 60.2338 224.449 59.9416C222.018 57.0456 219.567 54.1297 216.623 51.7562C216.498 51.6551 216.356 51.5496 216.195 51.5582C215.889 51.5745 215.767 51.955 215.724 52.2582C215.357 54.8339 214.991 57.4096 214.624 59.9853C214.517 60.7359 215.209 61.3882 215.934 61.6102C216.659 61.8321 217.439 61.7704 218.185 61.9091C219.559 62.1649 220.776 63.1487 221.314 64.4391C221.656 65.2577 221.909 66.3464 222.781 66.5062ZM201.046 116.26C202.333 112.968 203.514 109.634 204.585 106.266C204.657 106.039 204.729 105.793 204.653 105.567C204.448 104.966 203.558 105.122 202.99 105.406C200.758 106.524 198.611 107.813 196.575 109.258C196.322 109.438 196.046 109.664 196.037 109.974C196.029 110.208 196.18 110.414 196.325 110.599C197.837 112.536 199.412 114.425 201.046 116.26ZM219.929 170.522C219.687 170.258 219.291 170.218 218.934 170.224C218.127 170.237 217.323 170.401 216.576 170.706C216.208 170.856 215.842 171.042 215.446 171.063C215.049 171.083 214.604 170.876 214.507 170.491C215.555 169.742 216.826 169.308 218.114 169.261C218.687 169.24 218.704 168.268 218.201 167.993C217.698 167.717 217.078 167.919 216.543 168.124C215.659 168.464 214.774 168.804 213.89 169.144C213.632 169.243 213.367 168.931 213.405 168.658C213.442 168.385 213.664 168.177 213.883 168.01C214.678 167.402 215.628 166.998 216.617 166.845C217.089 166.772 217.165 166.041 216.82 165.711C216.476 165.381 215.946 165.359 215.469 165.384C214.084 165.456 212.71 165.757 211.421 166.269C212.52 168.242 213.643 170.202 214.788 172.148C215.085 172.652 215.407 173.178 215.921 173.457C216.843 172.292 218.247 171.519 219.725 171.363C220.08 171.325 220.17 170.785 219.929 170.522ZM238.865 206.113C238.018 206.329 237.178 206.576 236.349 206.852C236.122 206.928 235.859 207.046 235.821 207.283C235.798 207.423 235.866 207.561 235.931 207.687C236.419 208.624 236.906 209.56 237.393 210.497C237.591 210.877 237.989 211.323 238.358 211.105C239.573 210.391 240.931 209.919 242.328 209.726C242.712 209.673 242.963 209.261 242.972 208.873C242.981 208.485 242.809 208.119 242.642 207.769C242.354 207.169 242.038 206.538 241.472 206.188C240.711 205.718 239.732 205.892 238.865 206.113ZM242.135 216.405C241.804 216.465 241.421 216.565 241.291 216.876C241.185 217.13 241.297 217.416 241.408 217.668C241.83 218.627 242.253 219.586 242.676 220.545C242.808 220.845 242.983 221.181 243.302 221.252C243.53 221.303 243.76 221.199 243.97 221.099C244.622 220.787 245.273 220.475 245.925 220.162C246.291 219.987 246.68 219.791 246.881 219.438C247.082 219.085 246.975 218.532 246.583 218.424C246.374 218.366 246.153 218.448 245.958 218.543C245.375 218.827 244.849 219.239 244.226 219.42C243.603 219.601 242.81 219.462 242.515 218.885C244.049 218.34 245.516 217.604 246.872 216.701C246.75 215.854 245.563 215.779 244.721 215.933C243.859 216.09 242.997 216.247 242.135 216.405ZM229.597 194.384C229.847 194.112 230.209 193.979 230.556 193.856C231.512 193.516 232.468 193.176 233.424 192.836C233.921 192.66 233.799 191.834 233.33 191.592C232.861 191.351 232.295 191.502 231.791 191.657C230.698 191.994 229.604 192.33 228.511 192.667C228.368 192.711 228.218 192.759 228.118 192.87C227.89 193.124 228.043 193.523 228.206 193.823C228.639 194.623 229.072 195.423 229.505 196.224C229.556 196.317 229.613 196.417 229.709 196.462C229.825 196.516 229.962 196.474 230.083 196.432C231.413 195.973 232.744 195.513 234.074 195.053C234.391 194.943 234.773 194.742 234.746 194.408C234.71 193.951 234.04 193.947 233.603 194.086C232.235 194.52 230.866 194.955 229.498 195.389C229.256 195.11 229.348 194.655 229.597 194.384ZM246.605 142.176C245.427 142.841 244.249 143.507 243.071 144.173C242.93 144.253 242.781 144.34 242.703 144.483C242.498 144.861 242.904 145.272 243.262 145.511C243.994 146.002 244.727 146.493 245.46 146.984C245.604 147.081 245.759 147.181 245.933 147.183C246.327 147.186 246.531 146.722 246.632 146.341C246.957 145.116 247.282 143.892 247.607 142.667C247.648 142.514 247.688 142.345 247.622 142.2C247.463 141.851 246.94 141.987 246.605 142.176ZM231.096 197.126C230.811 197.199 230.487 197.306 230.38 197.58C230.301 197.784 230.373 198.013 230.466 198.211C230.704 198.721 231.082 199.165 231.547 199.482C232.783 199.01 234.019 198.538 235.255 198.066C235.786 197.864 236.415 197.522 236.392 196.954C236.376 196.547 235.992 196.232 235.593 196.154C235.194 196.075 234.783 196.177 234.389 196.279C233.292 196.561 232.194 196.844 231.096 197.126ZM213.188 152.664C213.62 153.509 214.69 153.753 215.626 153.905C217.119 154.147 218.612 154.389 220.105 154.631C220.131 153.783 219.257 153.22 218.48 152.88C217.057 152.256 215.571 151.775 214.053 151.445C213.889 151.409 213.718 151.375 213.555 151.415C213.069 151.532 212.96 152.219 213.188 152.664ZM207.653 152.026C207.77 151.981 207.888 151.936 207.989 151.862C208.435 151.535 208.299 150.766 207.844 150.451C207.39 150.136 206.774 150.178 206.247 150.344C205.719 150.51 205.227 150.784 204.688 150.906C203.959 151.071 203.006 151.063 202.727 151.756C202.489 152.348 203.035 153.018 203.658 153.155C204.281 153.292 204.92 153.062 205.516 152.836C206.229 152.566 206.941 152.296 207.653 152.026ZM210.519 157.362C211.121 156.97 210.843 155.936 210.203 155.609C209.563 155.283 208.794 155.435 208.094 155.596C207.355 155.765 206.566 155.962 206.063 156.529C205.56 157.095 205.561 158.157 206.247 158.478C207.18 158.914 208.055 157.683 209.073 157.53C209.56 157.458 210.107 157.631 210.519 157.362ZM231.64 190.481C231.841 190.413 232.055 190.337 232.185 190.169C232.329 189.981 232.334 189.714 232.253 189.491C232.061 188.971 231.461 188.694 230.907 188.704C230.352 188.714 229.83 188.95 229.326 189.181C228.685 189.476 228.043 189.77 227.402 190.065C227.049 190.226 226.65 190.446 226.592 190.83C226.533 191.22 226.891 191.575 227.277 191.657C227.662 191.74 228.06 191.624 228.437 191.508C229.509 191.178 230.576 190.835 231.64 190.481ZM234.53 204.065C235.912 203.484 237.294 202.904 238.675 202.323C238.806 202.268 238.941 202.21 239.036 202.105C239.317 201.794 239.061 201.252 238.669 201.103C238.278 200.953 237.842 201.069 237.44 201.185C236.506 201.456 235.572 201.726 234.638 201.997C234.122 202.146 233.544 202.347 233.326 202.839C233.029 203.511 233.853 204.35 234.53 204.065ZM243.857 212.12C244.409 211.907 244.208 210.977 243.66 210.754C243.112 210.531 242.496 210.76 241.941 210.965C240.853 211.365 239.732 211.675 238.593 211.891C238.195 212.425 238.68 213.244 239.32 213.426C239.961 213.607 240.637 213.364 241.258 213.124C242.124 212.789 242.991 212.455 243.857 212.12ZM214.443 150.201C215.556 150.493 216.67 150.785 217.783 151.077C218.207 151.188 218.86 151.126 218.829 150.689C216.906 149.359 214.694 148.451 212.392 148.046C212.27 148.025 212.141 148.005 212.025 148.048C211.625 148.193 211.778 148.811 212.078 149.112C212.7 149.732 213.593 149.979 214.443 150.201ZM218.65 145.9C219.043 146.847 219.437 147.794 219.831 148.741C220.068 149.311 220.334 149.917 220.858 150.245C221.381 150.573 222.232 150.434 222.403 149.841C222.534 149.389 222.228 148.937 221.938 148.567C220.829 147.153 219.688 145.766 218.514 144.405C218.254 144.855 218.45 145.421 218.65 145.9ZM216.743 147.68C216.952 147.752 217.206 147.816 217.375 147.674C217.573 147.507 217.501 147.184 217.367 146.963C216.879 146.16 215.892 145.842 214.988 145.585C213.772 145.24 212.557 144.894 211.341 144.549C210.964 144.442 210.679 144.993 210.856 145.343C211.033 145.694 211.44 145.852 211.811 145.98C213.455 146.546 215.099 147.113 216.743 147.68ZM232.994 199.879C232.652 199.982 232.281 200.108 232.094 200.412C231.762 200.953 232.247 201.658 232.818 201.936C234.107 200.887 235.75 200.281 237.411 200.241C237.976 200.227 238.026 199.28 237.546 198.98C237.067 198.68 236.445 198.834 235.904 198.998C234.934 199.292 233.964 199.585 232.994 199.879ZM227.595 185.082C226.812 185.289 226.028 185.496 225.244 185.703C224.526 185.893 223.625 186.363 223.797 187.087C223.944 187.702 224.804 187.842 225.381 187.583C225.959 187.323 226.399 186.821 226.973 186.556C227.912 186.122 229.234 186.28 229.761 185.39C229.313 184.753 228.349 184.882 227.595 185.082ZM198.225 143.64C198.074 143.705 197.919 143.78 197.82 143.91C197.564 144.247 197.843 144.77 198.24 144.918C198.636 145.066 199.076 144.96 199.488 144.861C200.87 144.53 202.277 144.301 203.694 144.176C203.831 143.399 202.816 142.964 202.027 142.933C200.728 142.881 199.418 143.125 198.225 143.64ZM221.142 173.767C221.548 173.337 221.318 172.378 220.737 172.492C219.197 172.792 217.713 173.375 216.38 174.201C216.068 174.836 216.93 175.494 217.629 175.384C218.327 175.274 218.888 174.762 219.542 174.494C220.09 174.269 220.735 174.198 221.142 173.767ZM221.985 159.854C221.803 159.623 221.511 159.514 221.234 159.415C219.888 158.934 218.542 158.452 217.197 157.971C216.828 157.839 216.416 157.708 216.058 157.866C215.699 158.023 215.556 158.616 215.907 158.79C217.631 159.642 219.464 160.274 221.347 160.666C221.543 160.707 221.762 160.741 221.931 160.634C222.179 160.476 222.167 160.084 221.985 159.854ZM215.649 144.02C215.841 144.134 216.093 143.919 216.098 143.696C216.103 143.473 215.953 143.279 215.802 143.114C214.356 141.537 212.235 140.801 210.206 140.122C209.691 139.95 208.938 139.892 208.788 140.413C211.134 141.499 213.425 142.703 215.649 144.02ZM245.581 213.994C245.46 213.571 245.013 213.308 244.576 213.264C244.138 213.22 243.704 213.35 243.283 213.479C242.549 213.703 241.815 213.928 241.081 214.152C240.573 214.307 239.957 214.612 239.999 215.141C240.034 215.571 240.535 215.829 240.965 215.787C241.395 215.746 241.773 215.503 242.163 215.317C243.012 214.91 243.981 214.758 244.914 214.885C245.35 214.944 245.702 214.417 245.581 213.994ZM199.536 146.857C199.53 147.254 199.84 147.633 200.231 147.705C200.484 147.752 200.742 147.682 200.99 147.613C202.419 147.215 203.848 146.817 205.277 146.418C205.299 146.017 204.952 145.67 204.567 145.553C204.182 145.437 203.769 145.496 203.371 145.557C202.333 145.715 201.295 145.873 200.257 146.031C199.864 146.09 199.542 146.46 199.536 146.857ZM223.141 175.442C223.198 175.069 222.831 174.74 222.456 174.693C222.082 174.646 221.714 174.799 221.367 174.948C220.264 175.424 219.162 175.901 218.059 176.377C217.731 176.793 218.135 177.454 218.652 177.571C219.169 177.688 219.693 177.451 220.17 177.221C220.924 176.858 221.677 176.495 222.431 176.131C222.741 175.982 223.089 175.783 223.141 175.442ZM207.368 137.254C207.495 137.481 207.748 137.601 207.985 137.707C209.95 138.588 211.915 139.468 213.881 140.349C214.229 140.505 214.738 140.611 214.91 140.27C215.095 139.903 214.639 139.553 214.262 139.393C212.148 138.495 210.034 137.597 207.92 136.699C207.813 136.653 207.7 136.607 207.586 136.626C207.33 136.669 207.241 137.028 207.368 137.254ZM217.545 162.606C217.48 162.578 217.409 162.55 217.339 162.564C217.266 162.578 217.205 162.642 217.194 162.715C217.366 163.891 218.686 164.471 219.816 164.838C221.294 165.317 222.772 165.797 224.249 166.277C224.604 165.884 224.024 165.34 223.537 165.134C221.539 164.291 219.542 163.449 217.545 162.606ZM206.62 148.823C206.784 148.513 206.536 148.124 206.224 147.963C205.677 147.682 205.018 147.839 204.426 148.002C203.751 148.187 203.076 148.372 202.401 148.557C201.915 148.691 201.329 148.943 201.311 149.447C201.297 149.824 201.653 150.132 202.024 150.201C202.395 150.27 202.773 150.161 203.135 150.054C204.098 149.766 205.06 149.479 206.022 149.192C206.253 149.123 206.507 149.036 206.62 148.823ZM240.074 203.543C239.672 203.311 239.168 203.446 238.726 203.587C237.322 204.037 235.917 204.486 234.513 204.935C234.202 205.432 234.767 206.094 235.353 206.129C235.938 206.163 236.469 205.822 236.986 205.545C237.926 205.041 238.962 204.717 240.022 204.595C240.482 204.542 240.475 203.775 240.074 203.543ZM213.25 160.905C212.8 160.784 212.324 160.868 211.866 160.953C211.299 161.057 210.733 161.162 210.166 161.266C209.524 161.385 208.709 161.717 208.777 162.367C208.817 162.751 209.195 163.028 209.577 163.083C209.958 163.139 210.342 163.025 210.711 162.913C211.842 162.569 212.973 162.224 214.104 161.88C214.115 161.414 213.7 161.025 213.25 160.905ZM209.393 153.286C209.079 152.965 208.56 152.942 208.128 153.067C207.697 153.192 207.31 153.437 206.888 153.592C206.39 153.775 205.852 153.829 205.357 154.016C204.861 154.204 204.382 154.578 204.296 155.101C204.482 155.536 205.107 155.488 205.564 155.365C206.775 155.039 207.987 154.712 209.198 154.386C209.632 154.269 209.708 153.607 209.393 153.286ZM207.708 159.213C207.203 159.36 207.29 160.193 207.75 160.447C208.21 160.701 208.779 160.561 209.283 160.415C210.342 160.109 211.401 159.803 212.46 159.497C212.537 158.968 212.053 158.489 211.531 158.374C211.009 158.259 210.469 158.41 209.956 158.559C209.206 158.777 208.457 158.995 207.708 159.213ZM213.715 84.7181C214.388 84.2334 214.285 83.2326 214.305 82.4032C213.427 82.296 212.466 82.2069 211.726 82.6908C210.986 83.1747 210.788 84.4807 211.58 84.8733C211.852 85.0082 212.17 85.0045 212.473 84.998C212.904 84.9887 213.365 84.9701 213.715 84.7181ZM215.412 155.245C214.988 155.201 214.37 155.389 214.491 155.798C214.549 155.994 214.764 156.09 214.957 156.16C216.802 156.827 218.729 157.269 220.68 157.472C220.922 157.416 220.993 157.074 220.867 156.861C220.74 156.648 220.497 156.537 220.266 156.445C218.715 155.821 217.076 155.416 215.412 155.245ZM206.824 134.761C208.42 135.581 210.047 136.342 211.7 137.041C212.021 137.176 212.385 137.311 212.708 137.178C213.03 137.046 213.154 136.506 212.834 136.366C210.955 135.544 209.076 134.721 207.197 133.899C206.898 133.768 206.473 133.675 206.311 133.958C206.134 134.268 206.506 134.598 206.824 134.761ZM222.622 162.271C222.35 162.024 221.984 161.913 221.632 161.81C220.149 161.374 218.667 160.939 217.184 160.503C216.979 160.443 216.751 160.384 216.559 160.478C216.367 160.573 216.297 160.896 216.489 160.99C218.518 161.984 220.659 162.748 222.859 163.262C223.041 162.943 222.894 162.517 222.622 162.271ZM223.785 185.152C224.842 184.778 225.899 184.404 226.956 184.03C227.421 183.865 227.92 183.675 228.187 183.259C228.119 182.887 227.716 182.653 227.338 182.645C226.959 182.638 226.601 182.802 226.258 182.962C225.332 183.395 224.405 183.828 223.479 184.261C223.144 184.417 222.758 184.647 222.752 185.016C222.926 185.355 223.426 185.278 223.785 185.152ZM215.384 164.007C215.631 163.732 215.409 163.255 215.066 163.118C214.723 162.981 214.336 163.075 213.979 163.171C212.765 163.496 211.552 163.82 210.338 164.145C210.118 164.4 210.316 164.831 210.626 164.964C210.935 165.098 211.29 165.027 211.619 164.954C212.714 164.711 213.809 164.468 214.903 164.225C215.078 164.186 215.265 164.14 215.384 164.007ZM230.211 186.747C229.96 186.692 229.705 186.791 229.468 186.888C228.174 187.417 226.881 187.945 225.587 188.474C225.213 188.627 225.364 189.263 225.744 189.402C226.124 189.541 226.54 189.361 226.904 189.185C228.015 188.647 229.127 188.109 230.239 187.571C230.365 187.509 230.5 187.44 230.562 187.314C230.675 187.084 230.461 186.802 230.211 186.747ZM220.713 166.205C220.215 166.021 219.497 165.924 219.298 166.416C221.051 167.319 222.911 168.015 224.826 168.485C225.217 168.249 224.728 167.691 224.3 167.533C223.104 167.09 221.909 166.648 220.713 166.205ZM196.598 141.979C196.263 142.36 196.592 143.081 197.099 143.076C198.257 142.32 199.609 141.865 200.988 141.766C200.551 141.219 199.794 141.011 199.096 141.066C198.398 141.12 197.739 141.399 197.095 141.673C196.914 141.75 196.727 141.832 196.598 141.979ZM224.927 170.386C225.306 170.478 225.903 170.371 225.809 169.993C224.225 169.278 222.556 168.753 220.849 168.431C220.66 168.685 220.773 169.07 221.009 169.281C221.245 169.492 221.566 169.573 221.874 169.648C222.892 169.894 223.909 170.14 224.927 170.386ZM223.729 172.37C224.616 172.644 225.534 172.817 226.46 172.884C226.645 172.639 226.539 172.265 226.312 172.057C226.086 171.85 225.775 171.767 225.477 171.691C224.532 171.451 223.588 171.211 222.644 170.971C222.301 171.561 223.077 172.168 223.729 172.37ZM243.921 222.717C243.709 223.236 243.984 223.963 244.54 224.035C245.233 223.37 245.827 222.604 246.299 221.768C246.03 221.478 245.557 221.548 245.186 221.685C244.66 221.879 244.132 222.198 243.921 222.717ZM229.132 179.587C228.681 179.168 228.125 178.863 227.528 178.708C227.433 179.553 227.917 180.433 228.683 180.804C228.866 180.892 229.083 180.953 229.271 180.874C229.744 180.672 229.508 179.938 229.132 179.587ZM226.915 174.28C226.606 174.056 226.205 174.013 225.825 173.978C225.356 173.934 224.887 173.891 224.418 173.847C224.191 174.394 224.835 174.926 225.42 175.011C226.006 175.097 226.647 174.98 227.159 175.278C227.391 174.974 227.225 174.503 226.915 174.28ZM230.547 184.58C230.731 184.737 230.958 184.877 231.198 184.851C231.282 183.7 230.505 182.63 229.538 182.002C229.424 182.957 229.816 183.957 230.547 184.58ZM227.545 176.827C227.002 176.528 226.364 176.405 225.749 176.482C225.972 177.082 226.503 177.557 227.123 177.712C227.455 177.795 227.87 177.758 228.051 177.468C228.232 177.177 227.874 176.696 227.594 176.893M197.153 139.564C196.639 139.655 196.156 139.916 195.798 140.297C196.438 140.477 197.166 140.295 197.646 139.836C197.528 139.677 197.344 139.569 197.148 139.541" fill="#00160A"/>
<path fill-rule="evenodd" clip-rule="evenodd" d="M186.116 190.729C191.364 185.688 198.73 186.399 203.882 191.93C208.362 196.743 207.297 203.1 202.209 208.432C200.29 210.423 196.437 211.744 193.648 211.421C191.288 211.186 187.612 209.446 185.429 207.842C184.418 207.1 183.494 205.569 182.622 203.244L182.493 202.897C180.945 198.603 181.991 194.064 185.499 191.216L185.663 191.085L185.7 191.034C185.731 190.996 185.766 190.96 185.806 190.927L185.87 190.878L185.941 190.832L186.09 190.757L186.116 190.729ZM195.239 208.044L193.652 209.741L193.827 209.756C195.454 209.874 197.046 209.62 198.493 209.004L198.573 208.969L198.461 208.962C197.461 208.891 196.404 208.586 195.306 208.076L195.239 208.044ZM190.608 204.855L190.46 204.719L190.303 204.872C189.688 205.471 189.062 206.086 188.423 206.719L187.698 207.438C187.903 207.587 188.117 207.733 188.339 207.876C189.343 208.53 190.427 209.026 191.548 209.348L191.789 209.415L192.95 208.192L193.818 207.274L193.761 207.24C192.67 206.57 191.597 205.747 190.608 204.855ZM198.179 204.898L196.287 206.922L196.383 206.964C197.855 207.581 199.164 207.698 200.29 207.243L200.409 207.192L200.295 207.063C199.726 206.427 199.114 205.796 198.444 205.151L198.179 204.898ZM186.781 200.626L186.445 200.956C185.961 201.427 185.473 201.894 184.981 202.358L184.207 203.082L184.272 203.237C184.796 204.446 185.526 205.497 186.478 206.417L186.512 206.45L186.62 206.34C187.309 205.641 188.021 204.933 188.762 204.207L189.339 203.645L189.182 203.488C188.32 202.61 187.582 201.751 186.961 200.883L186.781 200.626ZM201.269 201.591L199.205 203.801L199.225 203.82C200.018 204.576 200.742 205.318 201.414 206.067L201.618 206.297L201.624 206.29C202.329 205.333 202.208 203.773 201.361 201.801L201.269 201.591ZM194.045 201.292L193.892 201.436C193.186 202.098 192.471 202.778 191.741 203.48L191.535 203.678L191.727 203.847C192.736 204.729 193.703 205.471 194.67 206.068L194.852 206.178L196.148 204.802L197.04 203.852L196.746 203.59C196.211 203.118 195.632 202.623 194.906 202.012L194.045 201.292ZM205.076 197.52L202.219 200.575L202.312 200.755C202.469 201.065 202.624 201.379 202.775 201.699L203 202.182L203.21 202.647C203.423 203.098 203.57 203.546 203.649 203.988L203.661 204.063L203.746 203.909C204.902 201.79 205.376 199.609 205.086 197.583L205.076 197.52ZM198.792 197.486L198.646 197.292L198.125 197.729L196.673 198.93L196.413 199.148C196.146 199.373 195.907 199.579 195.685 199.776L195.428 200.007L195.162 200.252L195.761 200.751C196.429 201.312 197.01 201.81 197.554 202.29L198.071 202.751L199.731 200.972L200.521 200.122L200.515 200.111C200.018 199.235 199.428 198.341 198.792 197.486ZM189.949 197.665L189.825 197.543L189.786 197.585C189.3 198.093 188.81 198.598 188.316 199.098L187.824 199.594L187.927 199.751C188.527 200.65 189.269 201.528 190.135 202.38L190.354 202.592L190.394 202.629L190.462 202.565C190.962 202.087 191.475 201.601 192.006 201.103L192.86 200.303L192.742 200.204C191.781 199.385 190.852 198.54 189.949 197.665ZM184.67 194.423L184.622 194.502C183.447 196.478 183.085 198.934 183.63 201.273L183.679 201.474L183.704 201.569L183.95 201.339C184.465 200.854 184.977 200.364 185.484 199.87L186 199.362L185.951 199.273C185.106 197.699 184.663 196.101 184.67 194.46L184.67 194.423ZM194.005 192.944L193.392 193.648C192.696 194.44 191.991 195.223 191.276 195.998L190.855 196.451L190.96 196.553C191.793 197.358 192.656 198.142 193.557 198.913L193.976 199.268L194.376 198.899C194.632 198.666 194.908 198.426 195.219 198.161L195.729 197.734L196.929 196.746C197.145 196.567 197.339 196.405 197.518 196.254L197.694 196.104L197.609 196.005C197.198 195.527 196.81 195.117 196.488 194.816L196.394 194.729C195.74 194.139 195.025 193.6 194.229 193.086L194.005 192.944ZM202.665 192.858L202.601 192.971C201.939 194.094 201.026 195.145 199.784 196.29L199.681 196.384L199.718 196.436C200.26 197.198 200.774 197.995 201.262 198.826L201.438 199.133L202.827 197.633L204.584 195.726L204.543 195.626C204.139 194.666 203.539 193.765 202.741 192.936L202.665 192.858ZM186.226 193.712L186.219 193.777C186.076 195.291 186.373 196.78 187.068 198.245L187.085 198.281L187.27 198.096C187.68 197.681 188.087 197.263 188.492 196.842L188.8 196.518L188.675 196.39C187.963 195.657 187.265 194.9 186.575 194.114L186.226 193.712ZM186.916 192.038L186.81 192.089L186.837 192.122C187.777 193.243 188.735 194.305 189.726 195.324L189.828 195.427L190.241 194.983C190.967 194.197 191.683 193.402 192.388 192.597L192.732 192.202L192.695 192.182C192.52 192.087 192.342 191.992 192.158 191.897L191.879 191.754C190.243 190.951 189.035 191.04 187.081 191.959L186.916 192.038ZM197.146 189.173L196.543 189.921C196.136 190.421 195.726 190.918 195.312 191.412L195.021 191.756L195.095 191.803C196.191 192.509 197.124 193.276 197.892 194.127L198.066 194.324C198.236 194.522 198.404 194.722 198.569 194.925L198.759 195.161L198.785 195.137C200.007 193.998 200.871 192.96 201.463 191.845L201.48 191.811L201.324 191.687C199.739 190.441 198.578 189.701 197.35 189.246L197.146 189.173ZM194.722 188.745C193.17 188.734 191.756 189.011 190.451 189.581L190.377 189.614L190.507 189.631C190.793 189.673 191.073 189.746 191.349 189.85L191.486 189.905C192.226 190.23 192.905 190.556 193.543 190.895L193.756 191.01L194.174 190.518C194.599 190.011 195.02 189.501 195.438 188.989L195.587 188.803L195.405 188.782C195.254 188.767 195.103 188.756 194.95 188.75L194.722 188.745Z" fill="#FFB61D"/>
<path fill-rule="evenodd" clip-rule="evenodd" d="M221.112 82.4498C221.603 81.121 223.37 80.5723 224.674 81.1261C225.978 81.6798 226.787 83.0644 226.992 84.4662C227.196 85.8679 226.886 87.2926 226.487 88.6518C226.123 89.8913 225.684 91.1086 225.173 92.2948C225.125 92.405 225.061 92.5284 224.944 92.5548C224.82 92.5828 224.705 92.4857 224.615 92.3947C222.399 90.1502 221.064 87.059 220.948 83.9073C220.929 83.4155 220.942 82.9115 221.112 82.4498ZM224.942 82.7741C224.579 82.4624 224.109 82.2583 223.631 82.2728C222.513 82.3067 221.734 83.5255 221.759 84.643C221.784 85.7605 222.379 86.775 222.957 87.7319C223.37 88.4172 223.784 89.1025 224.198 89.7878C224.339 90.0213 224.616 90.2878 224.836 90.126C224.925 90.0608 224.959 89.9465 224.988 89.8404C225.157 89.2178 225.327 88.5952 225.496 87.9726C225.738 87.0826 225.982 86.178 225.967 85.2557C225.952 84.3334 225.643 83.3744 224.942 82.7741Z" fill="#FFB61D"/>
<path fill-rule="evenodd" clip-rule="evenodd" d="M224.211 86.3513C223.939 86.428 223.642 86.4135 223.379 86.3108C222.867 86.1116 222.514 85.564 222.544 85.0161C222.574 84.4682 222.984 83.9619 223.513 83.8189C224.316 83.6023 225.22 84.3418 225.166 85.1713C225.132 85.7097 224.731 86.2052 224.211 86.3513Z" fill="#FFB61D"/>
</svg>
